<?xml version="1.0" standalone="no"?>
<!DOCTYPE svg PUBLIC "-//W3C//DTD SVG 1.1//EN" "http://www.w3.org/Graphics/SVG/1.1/DTD/svg11.dtd" >
<svg xmlns="http://www.w3.org/2000/svg" xmlns:xlink="http://www.w3.org/1999/xlink" version="1.1">
<metadata>
Created by FontForge 20200427 at Wed Aug 27 17:55:55 2014
 By www
Copyright (c) Patrick M. Murphy. A Mad Irishman Production, 2002. All rights reserved.
</metadata>
<defs>
<font id="OldRomanW00-BoldItalic" horiz-adv-x="584" >
  <font-face 
    font-family="OldRomanW00-BoldItalic"
    font-weight="700"
    font-style="italic"
    font-stretch="normal"
    units-per-em="1000"
    panose-1="2 0 8 6 6 0 0 9 0 3"
    ascent="800"
    descent="-200"
    x-height="319"
    cap-height="502"
    bbox="-120 -210.667 1008 669"
    underline-thickness="50"
    underline-position="-175"
    slope="-11"
    unicode-range="U+0020-FB02"
  />
<missing-glyph horiz-adv-x="1000" 
 />
    <glyph glyph-name=".notdef" horiz-adv-x="1000" 
 />
    <glyph glyph-name="glyph1" horiz-adv-x="0" 
 />
    <glyph glyph-name="glyph1" horiz-adv-x="0" 
 />
    <glyph glyph-name="glyph2" horiz-adv-x="212" 
 />
    <glyph glyph-name="space" unicode=" " horiz-adv-x="212" 
 />
    <glyph glyph-name="exclam" unicode="!" horiz-adv-x="130" 
d="M135 176q-3 -6 -6 -9l-3 -3q-1 -1 -7 -3q-5 -2 -15 -5t-28 -8q-7 -2 -10 0l-4 2q-2 1 -4 3q-3 4 -5 11q7 23 19.5 63t27.5 86t30.5 93t28.5 85.5t21.5 63.5t9.5 25l8 4q5 2 16.5 6t30.5 11q5 2 11 0q3 -1 4 -3q2 -2 4 -6.5t-1 -10.5l-128 -405v0zM19 46q0 3 4 11l3 6
q1 1 10.5 5t44.5 17q4 2 6.5 1t4.5 -2q3 -1 4 -3q2 -2 3.5 -6t-1.5 -11l-14 -47q-3 -7 -6 -10q-2 -2 -3 -2q-1 -1 -7 -3q-5 -2 -15 -5t-28 -8q-4 -2 -10 0q-3 1 -4 2q-2 1 -4 3q-3 3 -5 11l16 49l1 -8v0z" />
    <glyph glyph-name="quotedbl" unicode="&#x22;" horiz-adv-x="201" 
d="M257 476q1 2 1.5 5t2.5 5q2 3 3 6q1 0 10.5 4t43.5 15q4 2 10 0q3 -1 4 -2q2 -2 4 -6.5t-1 -10.5q-7 -19 -13 -38t-15 -37q-8 -17 -17.5 -36t-19.5 -35q-6 -10 -11.5 -13t-12.5 -3q-12 0 -15.5 8t-3.5 18q0 11 2.5 21.5t3.5 16.5q5 23 10 45t13 44l1 -7v0zM162 476
q1 2 1.5 5t2.5 5q2 3 3 6q1 0 10.5 4t42.5 15q5 2 11 0q3 -1 4 -2q2 -2 4 -6.5t-1 -10.5q-7 -19 -13 -38t-15 -37q-8 -17 -17.5 -36t-19.5 -35q-6 -10 -11.5 -13t-12.5 -3q-12 0 -15.5 8t-3.5 18q0 11 2.5 21.5t3.5 16.5q5 23 10 45t13 44l1 -7v0z" />
    <glyph glyph-name="numbersign" unicode="#" horiz-adv-x="491" 
d="M338 216h81l5 -58h-96l-27 -157h-72l28 157h-94l-28 -157h-71l27 157h-90l-4 58h104l15 84h-90l-4 58h104l27 156h71l-27 -156h94l27 156h71l-27 -156h82l5 -58h-96zM172 216h95l14 84h-94z" />
    <glyph glyph-name="dollar" unicode="$" horiz-adv-x="395" 
d="M160 -65q-13 -12 -27 -12h-32q-5 10 -5 19v7q1 1 2 4q2 6 3 10l8 24q-17 2 -29 6.5t-22 10.5q-9 5 -20.5 13t-21 18.5t-14.5 23t-1 25.5q8 24 22.5 38.5t33.5 14.5q17 0 24 -9t11 -20.5t7.5 -23t12.5 -16.5q11 -5 21 -8l56 172q-18 8 -37.5 20t-34.5 28.5t-21.5 37.5
t1.5 46q6 17 18 40.5t33.5 47t54.5 41.5t79 22l13 41q8 12 17 12q2 0 8 1t10 1q5 0 9 -0.5t6 -0.5q6 0 13 -6.5t5 -14.5l-12 -34q18 -3 35.5 -10t31 -18t22 -27t9.5 -37q0 -8 -3 -23t-13 -22q-6 -5 -12.5 -4.5t-12 4t-9.5 8.5t-6 9q-3 9 -5 15.5t-9 13.5q-6 7 -17.5 14
t-33.5 10l-40 -122q27 -12 52 -27t42 -36t22.5 -49t-6.5 -65q-10 -30 -30.5 -59t-49.5 -51.5t-65 -37t-77 -16.5zM211 419q-8 -8 -12 -16t-7 -18q-3 -9 -1 -18t27 -17l9 -3l32 98q-18 -5 -29.5 -11.5t-18.5 -14.5zM259 202q-2 2 -4.5 2.5t-5.5 2.5l-48 -148q31 7 54.5 25
t36.5 47q13 27 1 43t-34 28z" />
    <glyph glyph-name="percent" unicode="%" horiz-adv-x="490" 
d="M437 108q-20 -30 -51 -52t-72 -17q-14 2 -25.5 10t-19.5 22q-12 27 -12 54q0 28 8.5 53.5t23.5 48t34 40.5q12 11 28.5 18.5t35 9t36 -4.5t30.5 -22q12 -19 14.5 -40.5t-1 -42.5t-11.5 -41t-18 -36zM211 447q9 -19 9 -40q0 -20 -5 -39.5t-14.5 -38t-19.5 -33.5
q-17 -25 -44.5 -46.5t-64.5 -19.5q-33 3 -55 28q-14 24 -16.5 50t3.5 50.5t18 47.5t27 41q14 18 32 28t38 14t40 3t39 -4q94 3 165 81l33 -2l-2 -24q-65 -140 -130.5 -276.5t-130.5 -276.5q-4 -7 -6 -13l-4 -12t-6.5 -11t-13.5 -10h-58q-11 3 -12.5 14.5t2.5 19.5
q68 126 138.5 249.5t138.5 250.5q-20 -14 -46 -23t-55 -8zM390 233q-8 5 -14 8t-13 1q-19 -4 -31 -22t-16 -40t0 -43.5t17 -33.5q20 -14 38.5 -2t26.5 32q10 25 9 54t-17 46zM145 428q-6 11 -29 13q-20 -5 -32.5 -22.5t-20.5 -38.5q-5 -23 -3 -45t16 -39q12 -12 21 -9
q21 3 35 19.5t20.5 38.5t5 44.5t-12.5 38.5z" />
    <glyph glyph-name="ampersand" unicode="&#x26;" horiz-adv-x="572" 
d="M440 329l130 -2q11 2 15.5 -2t6.5 -10q2 -7 -1 -16q-3 -7 -7 -12t-9 -8.5t-13 -3.5h-69l-118 -151q8 -20 15 -31.5t13 -16.5q7 -6 13 -8q20 0 38 7t32 7t24.5 -9t5.5 -26q-2 -7 -9 -13.5t-15.5 -12t-17 -9.5t-14.5 -7q-20 -8 -49.5 -12t-51.5 -4q-9 0 -20 2.5t-18 10.5
q-2 3 -6 8q-3 5 -8 12t-13 19q-35 -29 -72 -43.5t-85 -14.5q-19 0 -39 2t-37 9q-19 7 -37 21.5t-25 36.5q-7 21 -1 48.5t13 47.5q14 44 49 77q12 13 25.5 21t27.5 14.5t29 11.5t30 12q32 14 42 40t15.5 56.5t14 61.5t37.5 54q22 17 46 24.5t47 7.5q33 0 51 -12t25.5 -28.5
t6.5 -33.5t-4 -27t-11 -23t-18.5 -27t-23 -26.5t-24.5 -20.5q-2 -2 -18.5 -13.5t-34.5 -23.5q-4 -9 -3 -19t4.5 -19.5t7.5 -18.5t7 -18q2 -6 6 -14zM327 433q-8 -13 -9 -26t-4 -27v-6v-16q9 6 15.5 10.5t10.5 7.5q4 4 7 6q13 9 18 20.5t5 22.5t-4.5 20t-11.5 12
q-8 5 -15 -5.5t-12 -18.5zM245 138q-8 23 -19 51.5t-13 51.5q-4 -2 -8.5 -4t-8.5 -4q-3 -1 -15 -9t-26.5 -19.5t-27.5 -26t-18 -30.5q-14 -43 10 -64q14 -11 34 -13t46 -1q6 0 14.5 4.5t16.5 10.5t14 13t6 11q1 12 -5 29z" />
    <glyph glyph-name="quotesingle" unicode="'" horiz-adv-x="119" 
d="M159 476q0 6 3 10q2 3 3 6q1 0 9.5 4t38.5 15q5 3 10 0q2 -1 3 -2q2 -2 3.5 -6.5t-0.5 -10.5q-6 -19 -11.5 -38t-13.5 -37q-8 -17 -16.5 -36t-16.5 -35q-6 -10 -11 -13t-11 -3q-10 0 -13.5 8t-3.5 18q0 11 2.5 21.5t3.5 16.5q6 43 20 89l1 -7v0z" />
    <glyph glyph-name="parenleft" unicode="(" horiz-adv-x="255" 
d="M379 552q-4 -4 -9.5 -8.5t-11.5 -9.5q-41 -33 -74 -69t-59 -76.5t-47 -85.5t-38 -98q-33 -100 -33 -165q0 -64 12 -101q6 -19 13 -32.5t13 -24.5q8 -13 12 -23.5t-4 -25.5q-1 -2 -4 -6.5t-11 -4.5q-12 0 -35 27.5t-39.5 78.5t-19 123t26.5 161q19 60 48 112t61 95
t65.5 76t61.5 55.5t48 34.5t26 12q13 0 13 -10t-2 -18q-2 -5 -5.5 -9t-7.5 -8z" />
    <glyph glyph-name="parenright" unicode=")" horiz-adv-x="255" 
d="M-42 -178q-13 0 -13 10t2 18q3 9 15 19t20 16q81 67 132 145t85 182q17 51 24.5 92t8.5 74t-2.5 58t-9.5 44t-13 32.5t-13 24.5q-8 14 -12 24.5t4 24.5q1 2 4.5 6.5t10.5 4.5q8 0 21.5 -12.5t27.5 -36t25.5 -58t16.5 -78t0 -95.5t-24 -112t-48 -111.5t-61 -94.5
t-65.5 -75.5t-61.5 -55.5t-48 -34.5t-26 -11.5z" />
    <glyph glyph-name="asterisk" unicode="*" horiz-adv-x="240" 
d="M118 437q4 7 8 16t8.5 17.5t10.5 15t14 9.5q10 4 20 -1.5t14 -17.5q4 -11 -1.5 -20t-14.5 -16t-20 -13t-18 -12q9 0 21 1.5t24 1.5t21.5 -4t13.5 -15q3 -11 -0.5 -21.5t-15.5 -14.5q-16 -5 -34.5 5t-32.5 17q6 -13 14.5 -24.5t13.5 -24.5q5 -14 -2.5 -24.5t-19 -13
t-22.5 5.5t-13 30q-1 11 -1 20q0 10 -2 20q-4 -7 -8 -16t-8.5 -17.5t-10.5 -15t-14 -9.5q-12 -4 -21.5 2.5t-12.5 16.5q-4 12 1 20.5t14.5 16t20 13t17.5 11.5q-9 1 -21 -0.5t-24 -1.5q-11 0 -20.5 3.5t-13.5 15.5q-5 11 0 21.5t16 14.5q16 5 34.5 -5t32.5 -17q-6 13 -15 24
t-14 25t3 24.5t19.5 13t22.5 -5.5t12 -31q1 -10 1.5 -19.5t2.5 -20.5z" />
    <glyph glyph-name="plus" unicode="+" horiz-adv-x="325" 
d="M247 130q-16 1 -32 1h-32l-6 -1v-72q0 -27 -15.5 -34.5t-38.5 0.5q-22 7 -21 33q2 33 0 66v7q-19 0 -38 -0.5t-39 0.5q-12 0 -19 5t-10 12.5t-3 15.5q0 9 2 18q2 14 11.5 19t23.5 5h64h8q0 19 -0.5 37.5t0.5 36.5q0 20 12.5 29t26.5 8t26 -11t10 -29q-2 -17 -1 -35.5
t1 -35.5q37 -1 74 0q20 0 29 -12t8 -26t-11 -26t-30 -11z" />
    <glyph glyph-name="comma" unicode="," horiz-adv-x="111" 
d="M3 29q0 7 1 10l2 6q2 1 8.5 5t29.5 15q3 2 8 0l4 -2q2 -1 3 -3t2 -4.5t0 -6.5l-1 -102v-21q0 -4 -1 -5l-3 -9t-5.5 -12t-7 -10.5t-7.5 -4.5q-4 -1 -9 -1q-4 0 -7 2q-8 6 -9.5 12t0.5 12.5t5.5 13t3.5 13.5q1 10 0.5 20.5t-2.5 19.5q-5 -2 -9.5 2.5t-7.5 9.5v44l2 -4v0z
" />
    <glyph glyph-name="hyphen" unicode="-" horiz-adv-x="189" 
d="M30 138q-11 0 -19 6.5t-8 15.5v13q0 9 8 15.5t19 6.5h121q11 0 19 -6.5t8 -15.5v-13q0 -9 -8 -15.5t-19 -6.5h-121z" />
    <glyph glyph-name="hyphen" unicode="&#xad;" horiz-adv-x="189" 
d="M30 138q-11 0 -19 6.5t-8 15.5v13q0 9 8 15.5t19 6.5h121q11 0 19 -6.5t8 -15.5v-13q0 -9 -8 -15.5t-19 -6.5h-121z" />
    <glyph glyph-name="period" unicode="." horiz-adv-x="111" 
d="M1 32q0 3 2 9q1 3 2 5q1 1 8 4.5t30 13.5q5 2 8 0l4 -2q2 -1 3 -3q2 -4 1 -9l1 -37q-1 -8 -5 -12q-1 0 -7 -2.5t-29 -10.5q-5 -2 -8 0q-2 1 -3 1q-3 0 -8 9v39l1 -5v0z" />
    <glyph glyph-name="slash" unicode="/" horiz-adv-x="422" 
d="M35 -129q-5 -9 -15.5 -15t-21.5 -6h-17q-14 0 -20 10.5t1 22.5l392 689q5 9 15.5 15t21.5 6h18q14 0 20 -10.5t-2 -22.5l-392 -689v0z" />
    <glyph glyph-name="zero" unicode="0" horiz-adv-x="393" 
d="M111 -11q-37 0 -62 22t-36.5 59t-9 85.5t20.5 101.5q18 54 46.5 102t63 83t71.5 55.5t72 20.5q38 0 62.5 -22t36 -59t9 -85.5t-20.5 -101.5q-18 -54 -46.5 -102t-63 -83t-71.5 -55.5t-72 -20.5zM262 450q-16 0 -35 -16t-38.5 -43t-37.5 -63.5t-32 -77.5q-12 -37 -19 -72
t-7.5 -62t7 -43t25.5 -16q16 0 35.5 16t39 43t37.5 63.5t32 77.5q12 38 19 72.5t7.5 61.5t-7.5 43t-26 16z" />
    <glyph glyph-name="one" unicode="1" horiz-adv-x="223" 
d="M169 52h22q11 0 15.5 -4.5t6.5 -9.5q2 -6 0 -15q-2 -6 -6 -11t-9.5 -8.5t-15.5 -3.5h-154q-11 0 -15.5 5t-5.5 10q-1 6 1 14q2 6 6 11t9.5 8.5t13.5 3.5h38l128 393q-10 -1 -22 -5t-21 -3.5t-12 8t5 29.5q36 9 77 21t83 20l-7 -41z" />
    <glyph glyph-name="two" unicode="2" horiz-adv-x="400" 
d="M405 269q-11 -11 -23.5 -22t-26.5 -20q-4 -2 -51 -35t-138 -92q16 -5 28.5 -7t22.5 -4q11 -2 20 -2q12 1 32 5q17 4 44.5 10.5t68.5 20.5l-12 -38t-15 -35.5t-22.5 -30t-34.5 -22.5q-11 -5 -22 -6.5t-22 -1.5q-25 0 -50 3t-47 6t-40 6t-29 3q-1 0 -21.5 -2t-64.5 -16
q2 11 2.5 17.5t1.5 11.5t2 8q3 9 14.5 26t37.5 33q9 5 32 19.5t53.5 35t64 46t64 54t53.5 58.5t32 58q7 21 4 35.5t-13 23.5t-25 13.5t-32 5.5q-9 0 -21 -4.5t-23.5 -10.5t-20 -11l-8.5 -5q-1 -1 -10.5 -7t-20.5 -13.5t-20 -14t-11 -9.5q-2 -2 -4 -6t-14 -23q-3 17 -4 28
t-1 18q0 8 1 13q2 5 18 26t44.5 44t67 41t84.5 18q51 0 82 -26.5t42 -70.5q4 -19 -0.5 -39.5t-14.5 -40t-24.5 -38t-29.5 -34.5z" />
    <glyph glyph-name="three" unicode="3" horiz-adv-x="355" 
d="M378 344q-14 -11 -29 -20.5t-31 -18.5q9 -14 15 -25t10 -18q4 -8 6 -14q3 -7 6 -19t4.5 -26.5t0.5 -29.5t-6 -30t-22.5 -40t-47.5 -50t-73 -43t-98 -18q-20 0 -39 6.5t-33 15.5q-7 4 -15 10t-13.5 14t-8 17.5t0.5 20.5q6 17 21 28t31 14q24 4 37 -6.5t22.5 -24
t18.5 -25.5t24 -12t34 14t35.5 35.5t28 46.5t10.5 46.5t-17 36t-54 14.5q-18 -3 -24 3q-3 3 0 14.5t17 20.5q4 3 22 12.5t41 24.5q22 16 40.5 35.5t26.5 42.5q5 17 0.5 26.5t-12.5 14t-16 5.5t-10 1q-26 0 -50 -12.5t-44 -26.5q-7 -5 -14.5 -9.5t-15.5 -6.5q-8 -3 -12 0
t-5.5 8t-0.5 12t3 11q9 24 31 42q9 7 22 16t31 17.5t41 14.5t51 6t50.5 -8t36.5 -22.5t18 -35.5t-5 -48q-5 -17 -14 -31t-26 -26z" />
    <glyph glyph-name="four" unicode="4" horiz-adv-x="400" 
d="M360 208q14 -8 16 -19q1 -5 -1 -11q-3 -10 -11 -19t-19 -9h-70l-35 -107h25q11 -2 15 -6.5t5 -9.5q1 -6 -1 -14q-5 -14 -14.5 -18t-14.5 -4h-142q-11 0 -16 5t-6 11q-1 7 1 15q6 9 11.5 13.5t10.5 6.5q5 3 9 2h38l34 105h-173q-8 0 -10.5 3.5t-2.5 8.5t3 12q3 5 4 6.5
t5 5.5q7 7 45 42q16 15 41 37.5t60.5 55.5t83.5 77t111 102q3 5 8 7q3 1 5 1q6 0 10 -2q3 -2 4.5 -6t-3.5 -13l-92 -278h66zM215 208l35 106l-108 -106h73z" />
    <glyph glyph-name="five" unicode="5" horiz-adv-x="354" 
d="M270 440l-49 -98q15 -2 27 -4t14 -2q28 -5 52.5 -15t37.5 -39q14 -31 16 -63.5t-12 -72.5q-7 -20 -24.5 -48.5t-47.5 -54t-74.5 -43.5t-104.5 -18q-23 5 -37 9t-22 7q-9 4 -13 7q-7 6 -14 11.5t-11 12t-5 15t3 20.5q8 25 29.5 36.5t32.5 11.5q16 0 28.5 -11t24 -24
t23 -24t24.5 -11q7 0 21.5 6.5t30.5 20.5t31.5 35.5t25.5 51.5q9 27 0 48t-29 35.5t-46.5 21.5t-52.5 7h-39l113 244l221 -2q11 -5 15 -11.5t6 -12.5q2 -7 0 -13q-4 -8 -9 -14q-5 -5 -11 -10t-16 -7z" />
    <glyph glyph-name="six" unicode="6" horiz-adv-x="435" 
d="M407 490q-34 -20 -69.5 -37t-68.5 -37q-40 -25 -64.5 -52.5t-31.5 -37.5q-4 -7 -5 -10t-2 -5q0 -2 7 0q10 2 22.5 4t24.5 3.5t22 2.5t13 1q4 0 17.5 -1.5t30.5 -6.5t34.5 -15t29 -28t14 -44.5t-10.5 -64.5q-17 -49 -49 -84t-68 -57t-69.5 -32t-52.5 -10q-57 1 -88 26.5
t-42 63t-6.5 79.5t18.5 75q25 60 67 110.5t94 88.5q22 16 47 33t51.5 31.5t54.5 23t57 8.5q5 -1 11.5 -0.5t12.5 -0.5q5 -7 7 -14t-8 -13zM232 267q-18 2 -38.5 -5.5t-39.5 -23t-35 -37t-25 -46.5q-17 -51 -4 -84t46 -33q19 0 40 12.5t39.5 33t34 45.5t22.5 49q8 26 5 43
t-11 27t-18 14t-16 5z" />
    <glyph glyph-name="seven" unicode="7" horiz-adv-x="360" 
d="M114 7q-4 -4 -10 -8q-3 -2 -4 -2q-3 -1 -11.5 -3.5t-19 -4.5t-19.5 -3.5t-12 -0.5q-17 4 -26.5 20t-1.5 34q5 9 12 16t13 15q20 24 38.5 48.5t38.5 49.5q43 55 86.5 109.5t87.5 109.5q8 11 17 22.5t18 22.5q-6 15 -18 17.5t-13 2.5q-18 0 -40.5 -7t-45.5 -17t-45 -21
t-39 -19q-14 -6 -26 -10t-22 -4q-9 0 -10.5 9.5t0.5 16.5t10.5 21t18.5 30t19.5 31t15.5 22q36 -2 59 -2t36 -1q15 -1 22 -1h31q20 0 56.5 1t99.5 2l-316 -496v0z" />
    <glyph glyph-name="eight" unicode="8" horiz-adv-x="368" 
d="M318 276q11 -27 16 -40t6 -15q6 -15 11 -40t-6 -59q-6 -17 -23 -41t-44 -46t-63 -37.5t-80 -15.5q-50 0 -83.5 23.5t-44.5 74.5q-5 22 2.5 43.5t21.5 41.5t31.5 37t33.5 29q4 3 14 10t19.5 15.5t15.5 17.5t2 15q-3 4 -6 6.5t-6 6.5q-5 8 -9 15t-9 14q-8 14 -7.5 31t7 34
t17 33.5t22.5 28.5q18 18 42 33.5t49.5 25.5t51 12.5t45.5 -5.5q23 -7 41 -19.5t29 -30t13 -40t-7 -50.5q-6 -15 -17 -32q-9 -14 -24.5 -31t-39.5 -32zM294 453q-18 0 -36.5 -10.5t-30.5 -26.5t-14.5 -35.5t10.5 -36.5q4 -5 8.5 -10t9.5 -10q13 -14 28.5 -8.5t29.5 20t25 32
t14 27.5q8 22 -3.5 40t-40.5 18zM246 202q-1 2 -6.5 7t-11.5 10t-11.5 8.5t-8.5 2.5q-2 -1 -8.5 -4t-20.5 -12q-6 -4 -15.5 -11t-20 -17.5t-20 -24t-15.5 -30.5q-5 -16 -4 -29.5t7 -23t15 -14.5t19 -5q17 0 34 7.5t32 19.5t26 27.5t16 31.5q8 22 5 34.5t-12 22.5z" />
    <glyph glyph-name="nine" unicode="9" horiz-adv-x="428" 
d="M408 283q-15 -38 -41.5 -76t-59.5 -72.5t-70 -64t-73 -50.5q-30 -18 -70 -34.5t-92 -28.5q-5 0 -7.5 1t-4.5 1l-3 2q-5 16 -4.5 19t11.5 11q5 4 22.5 15t41.5 26t51 31t52.5 33.5t48 38t38.5 45.5q7 13 7 14q0 3 -6 1q-3 0 -13 -2q-8 -2 -24.5 -3.5t-45.5 -5.5
q-4 0 -17.5 1.5t-31 6.5t-35 15t-29 28t-14 44.5t10.5 64.5q17 49 49.5 84t68.5 56.5t69 31.5t52 10q58 0 89 -25.5t42 -63t6.5 -79.5t-18.5 -75zM285 468q-19 0 -40 -12.5t-40 -33t-34 -45.5t-23 -49q-8 -26 -4.5 -43t11.5 -27t18 -14t16 -5q18 -2 38.5 5.5t40 23t35.5 37
t24 46.5q17 51 4 84t-46 33z" />
    <glyph glyph-name="colon" unicode=":" horiz-adv-x="113" 
d="M159 267q-4 -7 -6 -15t-4.5 -15.5t-7 -13.5t-14.5 -9l-51 -15l-9 18l19 55q17 8 34 14.5t42 7.5l-3 -27v0zM104 93q-4 -7 -6 -15t-4.5 -15.5t-7 -13.5t-13.5 -9l-52 -15l-8 18l19 55q17 8 34 14.5t41 7.5l-3 -27v0z" />
    <glyph glyph-name="semicolon" unicode=";" horiz-adv-x="130" 
d="M155 263q-4 -7 -6 -15t-4.5 -15.5t-7 -14t-14.5 -9.5l-52 -15l-9 18l19 56q17 9 34.5 15.5t42.5 7.5l-3 -28v0zM102 92q0 -2 -0.5 -5.5t-1.5 -8.5t-2 -11q-3 -17 -9.5 -39.5t-18 -43.5t-27.5 -37.5t-39 -22.5l-14 2q-3 14 2.5 22.5t13.5 18.5q7 9 13 19.5t10 20.5
q6 16 8 18t3 2q-3 1 -9 -1t-11.5 -0.5t-7.5 8.5q-3 7 0.5 16t5.5 16q5 14 8.5 23.5t18.5 14.5l5 2q9 3 15.5 5.5t12 4t12 2t16.5 0.5q-2 -13 -2.5 -17.5t-1.5 -8.5z" />
    <glyph glyph-name="semicolon" unicode="&#x37e;" horiz-adv-x="130" 
d="M155 263q-4 -7 -6 -15t-4.5 -15.5t-7 -14t-14.5 -9.5l-52 -15l-9 18l19 56q17 9 34.5 15.5t42.5 7.5l-3 -28v0zM102 92q0 -2 -0.5 -5.5t-1.5 -8.5t-2 -11q-3 -17 -9.5 -39.5t-18 -43.5t-27.5 -37.5t-39 -22.5l-14 2q-3 14 2.5 22.5t13.5 18.5q7 9 13 19.5t10 20.5
q6 16 8 18t3 2q-3 1 -9 -1t-11.5 -0.5t-7.5 8.5q-3 7 0.5 16t5.5 16q5 14 8.5 23.5t18.5 14.5l5 2q9 3 15.5 5.5t12 4t12 2t16.5 0.5q-2 -13 -2.5 -17.5t-1.5 -8.5z" />
    <glyph glyph-name="less" unicode="&#x3c;" horiz-adv-x="342" 
d="M222 60q-9 0 -19.5 4t-17.5 10l-175 155q-9 8 -9 20q0 13 9 20l175 155q7 6 17.5 10.5t19.5 4.5h18q11 0 15 -5.5t4 -10.5q0 -10 -8 -16l-178 -158l178 -158q8 -6 8 -15q0 -5 -4 -10.5t-15 -5.5h-18z" />
    <glyph glyph-name="equal" unicode="=" horiz-adv-x="336" 
d="M31 184q-12 0 -20.5 8t-8.5 19v16q0 11 8.5 19.5t20.5 8.5h235q12 0 20.5 -8t8.5 -19v-17q0 -11 -8.5 -19t-20.5 -8h-235zM31 84q-12 0 -20.5 8t-8.5 19v16q0 11 8.5 19.5t20.5 8.5h235q12 0 20.5 -8t8.5 -19v-17q0 -11 -8.5 -19t-20.5 -8h-235z" />
    <glyph glyph-name="greater" unicode="&#x3e;" horiz-adv-x="342" 
d="M72 74q-7 -6 -17.5 -10t-19.5 -4h-18q-11 0 -15 5.5t-4 10.5q0 9 8 15l178 158l-178 158q-8 6 -8 16q0 5 4 10.5t15 5.5h18q9 0 19.5 -4.5t17.5 -10.5l175 -155q9 -7 9 -20q0 -12 -9 -20z" />
    <glyph glyph-name="question" unicode="?" horiz-adv-x="344" 
d="M291 347q-17 -15 -30 -26t-36 -25q-35 -23 -47.5 -31t-14.5 -10q-6 -6 -8.5 -15.5t-5.5 -17.5l-15 -46q-3 -7 -6 -10q-2 -2 -3 -2q-2 -1 -8 -3q-5 -2 -15 -5t-28 -8q-6 -2 -11 0q-3 1 -4 2q-2 1 -4 3q-3 4 -5 11l16 48l15 47q3 10 8.5 15t13.5 10q4 2 22 11.5t40 25.5
q22 15 40.5 35t25.5 43q5 17 0.5 26t-12 13.5t-15.5 5.5t-10 1q-26 0 -49.5 -12t-43.5 -26q-14 -11 -29 -17q-8 -3 -12 0t-5.5 8.5t-0.5 12t2 11.5q11 25 31 42q9 7 22 16t30.5 17.5t40 14.5t50.5 6q46 0 71 -17.5t32 -43.5t-4 -55.5t-38 -54.5zM16 46q0 3 4 11l3 6
q1 1 11 5t45 16q5 2 11 0q3 -1 4 -3q2 -2 4 -6.5t-1 -10.5l-15 -47q-3 -7 -6 -10q-2 -2 -3 -2q-1 -1 -7 -3q-5 -2 -15.5 -5t-28.5 -8q-4 -2 -11 0q-3 1 -4 2l-3 3q-3 3 -5 11l16 49l1 -8v0z" />
    <glyph glyph-name="at" unicode="@" horiz-adv-x="535" 
d="M287 141q-16 -17 -35 -26.5t-39 -9.5q-7 0 -19.5 2.5t-25 12t-21.5 28t-9 51.5q0 23 10 52.5t28.5 56t45 45t59.5 18.5q16 0 26 -5.5t17 -13.5l3 10h69l-44 -165q-2 -7 -4 -15.5t-2 -14.5q0 -9 3 -14t12 -5q18 0 33 11.5t25.5 29.5t16.5 40.5t6 44.5q0 27 -12 57t-36 55
t-58.5 41t-79.5 16q-36 0 -68.5 -14t-57.5 -42t-39.5 -69t-14.5 -94q0 -34 13 -66.5t37 -57.5t58.5 -40t77.5 -15t72.5 10t65.5 26l19 -38q-40 -18 -75.5 -31t-80.5 -13q-69 0 -118.5 23t-81.5 57.5t-47 75.5t-15 76q0 45 16 90t47.5 81t79.5 58.5t112 22.5q52 0 94.5 -17
t73 -46t47 -66.5t16.5 -78.5q0 -25 -8.5 -55t-25.5 -56t-42.5 -43t-59.5 -17q-25 0 -40.5 12t-23.5 25zM289 320q-10 0 -24.5 -8t-28 -23t-22.5 -37.5t-9 -52.5q0 -25 9.5 -34.5t24.5 -9.5q12 0 24 12.5t21.5 32t16 43t6.5 46.5q0 20 -5.5 25.5t-12.5 5.5z" />
    <glyph glyph-name="A" unicode="A" 
d="M324 0q-15 4 -17 17q-1 6 1 14q4 8 8.5 12.5t9.5 6.5q5 3 10 3h70l-1 126h-161l-95 -126h61q10 0 13.5 -4.5t4.5 -10.5q1 -7 0 -15q-3 -8 -7.5 -13t-9.5 -7q-5 -3 -11 -2h-26q-17 0 -51.5 0.5t-96.5 -0.5q-11 0 -15 4.5t-5 10.5q-1 7 1 15q4 8 8.5 12.5t9.5 6.5q5 3 11 3
h49l326 432q8 6 15 10q4 2 5 3q14 6 22 6q11 0 21.5 -6.5t15.5 -15.5q2 -5 5 -16.5t3 -16.5q1 -7 1 -51v-345h58q11 0 15 -4.5t5 -10.5q1 -7 -1 -15q-2 -6 -6 -11q-7 -11 -22 -12h-224zM288 237h117l-2 153z" />
    <glyph glyph-name="B" unicode="B" horiz-adv-x="515" 
d="M32 1q-12 0 -17 4.5t-6 9.5q-1 6 1 14q2 6 6 11t10 8.5t14 4.5h46l135 401h-37q-12 0 -17 4.5t-6 9.5q-1 6 1 13q3 9 8 13.5t10 6.5q6 3 13 3h246q25 0 42.5 -3t28.5 -7t16.5 -7.5t6.5 -4.5q9 -7 19 -17.5t16 -24t7.5 -31t-6.5 -40.5q-10 -28 -21.5 -47t-34.5 -36
q-22 -16 -39.5 -22t-40.5 -12q-2 -1 -3 -1t-2 -1l1 1q1 0 2 1q-4 3 -4.5 7t4.5 9q-3 0 -4 1.5t-3 2.5q13 -5 18.5 -6.5t7.5 -2.5q2 0 10 -3.5t17.5 -8.5t19 -11t12.5 -11q4 -6 8.5 -15t7 -21.5t2 -28t-7.5 -35.5q-6 -19 -20.5 -41.5t-42 -42t-71 -32t-107.5 -12.5h-246v0z
M314 452l-57 -168h89q30 0 55 12.5t42 31t25.5 40.5t5.5 40.5t-18.5 31t-45.5 12.5h-96zM239 233l-60 -180h88q48 0 78 14.5t48 31.5q21 20 31 45q6 26 0 45q-5 17 -24.5 30.5t-63.5 13.5h-97z" />
    <glyph glyph-name="C" unicode="C" horiz-adv-x="452" 
d="M511 417q-1 -14 -3 -30t-7 -34q-10 -12 -24 -14t-22 6q-10 23 -22.5 43.5t-29 35.5t-38.5 21.5t-51 0.5q-25 -5 -51 -19.5t-49 -35t-42 -44t-31 -46.5q-36 -67 -32.5 -127t44.5 -95q26 -22 71 -22.5t92 21.5q21 10 42.5 24t41.5 30q5 3 11 3t11.5 -2.5t8.5 -8t2 -14.5
q-18 -28 -49 -53t-68.5 -42.5t-79.5 -26.5t-81 -6.5t-72.5 19.5t-55.5 51q-20 31 -25 69.5t3 80t28 83.5t50 79q24 30 54 55.5t63 45t68.5 31t69.5 14.5q35 3 62.5 -5.5t59.5 -15.5q9 -2 20 -3.5t29 -1.5q1 -22 2 -37.5t0 -29.5z" />
    <glyph glyph-name="D" unicode="D" horiz-adv-x="639" 
d="M440 49q-51 -28 -98.5 -39t-104.5 -11h-211q-12 0 -16.5 4.5t-6.5 10.5q-2 7 1 15q4 8 9 12.5t10 6.5q6 3 12 3h50l134 399h-35q-13 0 -17.5 5t-6.5 10q-2 6 1 14q4 9 9.5 13.5t10.5 6.5q6 3 13 3h205q11 -2 32.5 -1t46.5 -2q37 -4 62 -16t48 -41q32 -41 38 -89t-11 -98
q-17 -51 -46.5 -89.5t-58.5 -64.5q-33 -30 -70 -52zM495 418q-6 10 -20 17q-12 6 -33 11t-54 5h-71l-134 -400h63q17 0 35.5 4t36 10t31 11.5t20.5 8.5q6 3 23 15t38 32.5t41.5 49t32.5 65.5t15 64t0 47t-9.5 34t-14.5 26z" />
    <glyph glyph-name="E" unicode="E" horiz-adv-x="535" 
d="M620 394q-4 -6 -10.5 -9.5t-13 -4t-12 3t-8.5 12.5q-5 12 -16.5 24t-23.5 17q-9 4 -23.5 8t-25.5 4h-27q-17 0 -49.5 0.5t-89.5 -0.5l-52 -155h134q2 6 5 19.5t9 27t15 24t22 10.5q8 0 13 -4q5 -3 8 -8.5t0 -16.5l-56 -165q-3 -8 -8 -12t-10 -6q-5 -3 -12 -3q-8 0 -14 4
q-5 3 -8 8.5t1 16.5l17 51h-134l-62 -184h172q8 0 14 1t11 2l10 2q20 6 34 12.5t25.5 15t22.5 19t26 24.5q6 6 16.5 11t19.5 2q14 -5 12.5 -17.5t-7.5 -20.5q-1 -3 -12 -17.5t-24 -32t-23.5 -31.5t-12.5 -16q-7 -7 -12 -9q-3 -1 -4 -1h1h-55h-52h-76h-106h-140
q-13 0 -17.5 5t-6.5 11q-2 7 1 16q3 7 7 12q9 11 27 11h56l134 395h-49q-12 2 -17 7t-6 11q-1 7 1 14q5 8 10.5 12.5t10.5 6.5q6 3 12 3h46h276q14 0 22 0.5t13 0.5h7q5 0 15.5 1t12.5 1h3q8 2 16.5 -1.5t11.5 -11.5t2 -26.5t2 -28.5q4 -11 6.5 -23t-5.5 -22z" />
    <glyph glyph-name="F" unicode="F" horiz-adv-x="494" 
d="M613 390q-16 -8 -24 -6t-12 8.5t-7.5 15t-10.5 14.5q-6 5 -11 9.5t-12 7.5q-10 5 -25.5 9t-40.5 4h-149l-53 -158h134q2 5 5 19t9 28.5t14.5 25.5t21.5 11q8 0 14 -4q5 -3 8 -9t-1 -17l-57 -166q-3 -8 -8 -12.5t-10 -6.5q-5 -3 -12 -3q-9 0 -14 4q-5 3 -7.5 9t1.5 17
l17 52h-132l-62 -184h51q11 -1 15.5 -6.5t5.5 -10.5q1 -6 -1 -14q-2 -6 -6 -11t-10 -8.5t-15 -5.5h-204q-11 0 -15 5t-5 11q-1 7 1 16q4 9 9.5 13.5t10.5 6.5q6 3 12 3h55l133 394h-48q-11 0 -16 5t-6 11q-1 7 1 15q4 9 9 13.5t10 6.5q6 3 12 3h322q12 0 20 0.5t13 0.5h9
q3 0 8.5 0.5t10.5 1.5q10 2 17 2q11 0 19 -7t9 -18q0 -3 -0.5 -7.5t0.5 -9.5l6 -30t3 -28q0 -4 -2.5 -10t-9.5 -10z" />
    <glyph glyph-name="G" unicode="G" horiz-adv-x="519" 
d="M513 195l-49 -146q-41 -26 -79.5 -36.5t-85.5 -18.5q-78 -15 -137 10.5t-84 87.5q-12 29 -12.5 62.5t8 68t25.5 69t39 65.5q26 36 61 67t74.5 53.5t81.5 34t82 8.5q18 -1 33 -3.5t29 -5t30 -3.5t35 0l3 -125q-8 -9 -21 -13t-23 7q-11 23 -26 41t-35 29t-44.5 13.5
t-55.5 -5.5q-19 -5 -39.5 -15t-39 -23.5t-34.5 -29.5t-27 -34q-45 -76 -50.5 -147.5t23.5 -126.5q14 -20 41.5 -25.5t57 -1t55.5 18t38 31.5q13 22 15 28q2 4 2 7q1 2 4 9l6 18t10 32h-33q-11 0 -15.5 4.5t-5.5 10.5q-1 7 1 15q2 6 6 11q9 11 24 11h162q13 0 17.5 -4.5
t6.5 -9.5q2 -6 -1 -15q-3 -6 -7 -11t-9.5 -8t-15.5 -5h-41z" />
    <glyph glyph-name="H" unicode="H" horiz-adv-x="591" 
d="M644 447l-134 -394h41q11 0 15.5 -4.5t5.5 -10.5q1 -7 -1 -15q-3 -6 -7 -11q-9 -10 -23 -13h-177q-11 0 -15.5 5t-5.5 11q-1 7 1 15q3 7 7 12q9 11 24 11h42l61 178h-243l-60 -177h43q9 -2 13 -7t5 -10q1 -6 -1 -14q-3 -6 -7 -11t-9.5 -8.5t-13.5 -3.5h-179
q-11 0 -15.5 5t-6.5 11q-2 7 1 15q3 6 7 11q9 11 25 11h45l134 394h-40q-18 6 -20 19q-1 6 1 13q3 9 8.5 13.5t10.5 6.5q6 3 13 3h9h26h54h90q11 0 15.5 -4.5t6.5 -9.5q2 -6 -1 -15q-5 -14 -15.5 -19.5t-16.5 -5.5h-48l-57 -168h241l57 168h-35q-11 2 -15 7t-5 10q-1 6 1 14
q2 6 6 10t10 8t15 5h176q11 0 15.5 -4.5t5.5 -10.5q1 -7 -1 -15q-2 -6 -6 -11t-9.5 -8.5t-14.5 -5.5h-49z" />
    <glyph glyph-name="I" unicode="I" horiz-adv-x="252" 
d="M310 449l-132 -400h37q12 0 16.5 -4.5t5.5 -9.5q1 -6 -1 -14q-2 -6 -6 -10t-9.5 -7t-14.5 -5h-178q-11 0 -15.5 5t-6.5 10q-2 6 1 14t8 12.5t10 6.5q6 3 12 3h48l132 399h-40q-11 0 -16 4.5t-6 10.5q-1 7 1 15q3 7 7 12t9.5 8t14.5 3h176q12 0 16.5 -4.5t6.5 -9.5
q2 -6 -1 -15q-3 -7 -7 -12t-10 -8.5t-14 -3.5h-44z" />
    <glyph glyph-name="J" unicode="J" horiz-adv-x="389" 
d="M114 76q2 0 2 -3q2 -2 7 -12t7 -10q9 2 17.5 7t13.5 10q3 4 6.5 11.5t7 15.5t6 14.5t2.5 7.5l112 335h-41q-11 0 -15.5 5t-6.5 11q-2 7 1 15q4 8 8.5 12t9.5 6q5 3 12 3h8h27h55h93q11 0 15.5 -4.5t5.5 -9.5q1 -6 -1 -15q-5 -14 -14.5 -18.5t-14.5 -4.5h-40l-91 -275
q-5 -16 -11 -35t-14 -37.5t-18.5 -35t-24.5 -27.5q-18 -14 -36.5 -28t-41.5 -19q-23 -6 -45 -9t-46 2q-12 3 -26.5 11.5t-22.5 19.5q-9 11 -5.5 25.5t13 27.5t23.5 21.5t26 6.5q11 -1 21 -6t15 -16l1 -2v0z" />
    <glyph glyph-name="K" unicode="K" horiz-adv-x="600" 
d="M642 450l-224 -142l109 -258h55q11 0 15.5 -4.5t5.5 -9.5q1 -6 -1 -15q-2 -5 -6 -9q-3 -4 -8.5 -7.5t-14.5 -5.5h-224q-12 0 -16.5 5t-6.5 10q-2 6 1 14q3 6 7 11t9.5 8t14.5 3h56l-86 199l-105 -67l-45 -132h40q11 0 15.5 -4.5t6.5 -9.5q2 -6 -1 -15q-3 -6 -7 -11
t-9.5 -8t-14.5 -3h-179q-11 0 -15.5 5t-5.5 10q-1 6 1 14q3 8 8 12.5t10 6.5q5 3 11 3h48l136 400h-40q-11 0 -15.5 4.5t-5.5 10.5q-1 7 1 15q3 6 7 11q9 11 23 11h179q12 0 16.5 -4.5t5.5 -9.5q1 -6 -1 -15q-3 -6 -7 -11q-9 -11 -23 -11h-48l-61 -181l284 180h-36
q-11 0 -15.5 4.5t-6.5 10.5q-2 7 1 15q3 6 7 11q9 11 24 11h198q11 0 15.5 -4.5t5.5 -9.5q1 -6 -1 -15q-2 -6 -6 -11t-9.5 -8t-14.5 -4h-57z" />
    <glyph glyph-name="L" unicode="L" horiz-adv-x="469" 
d="M499 117q-1 -4 -11.5 -20.5t-23.5 -35t-24 -34t-13 -17.5q-7 -7 -12 -9q-3 -1 -4 -1h1h-49h-46h-68h-95h-125q-12 0 -16.5 5t-6.5 11q-2 7 1 16q3 7 7 12q9 11 26 11h53l133 397h-44q-11 0 -16 4.5t-6 10.5q-1 7 1 15q3 6 7 11q9 11 24 10h192q12 2 16.5 -3t6.5 -10
q2 -6 -1 -15q-3 -6 -7 -11t-9.5 -8.5t-13.5 -4.5h-54l-130 -395h134q7 0 12 1l10 2t9 2q18 6 31 13t23.5 15t20.5 19t23 24q6 6 16 11t19 1q8 -4 10 -11.5t-1 -15.5z" />
    <glyph glyph-name="M" unicode="M" horiz-adv-x="715" 
d="M239 450q-11 0 -15.5 4.5t-5.5 10.5q-1 7 1 15q3 7 7 12q9 11 23 11h172l7 -278l181 277h170q11 0 15.5 -4.5t5.5 -9.5q1 -6 -1 -15q-2 -6 -6 -10t-9.5 -7.5t-14.5 -3.5h-53q-3 1 -10.5 -1.5t-9.5 -3.5l-72 -394h55q11 -1 15 -6.5t5 -10.5q1 -6 -1 -14q-3 -6 -7 -11
t-9.5 -8t-14.5 -4h-206q-19 3 -21 16q-1 6 1 14q3 6 7 11q9 11 23 11h57l57 316l-201 -311q-6 -6 -9 -8t-4 -2q-5 -2 -13 -2.5t-14 4.5l-2 4q-1 2 -2 4.5t-1 5.5l-13 315l-163 -324h64q11 -1 15 -6.5t5 -10.5q1 -6 -1 -14q-3 -6 -7 -11t-9.5 -8t-14.5 -3h-188q-11 0 -15.5 5
t-5.5 10q-1 6 1 14q3 9 8 13.5t10 6.5q6 3 12 3h62l198 398h-58z" />
    <glyph glyph-name="N" unicode="N" horiz-adv-x="560" 
d="M553 451h-47q-19 3 -21 16q-1 6 1 14q3 7 7 12t9.5 8t14.5 3h163q11 0 15 -4.5t6 -9.5q2 -6 -1 -15q-2 -9 -7.5 -14t-10.5 -7q-6 -3 -12 -3h-53l-145 -428q-4 -8 -8 -12.5t-8 -6.5q-4 -3 -8 -2q-7 -1 -18 0.5t-17 6.5q-4 3 -10 15t-11.5 24.5t-9.5 23.5t-5 13l-43 107
q-20 51 -39.5 99t-30.5 76l-107 -314h49q11 0 15 -4.5t5 -10.5q1 -7 -1 -15q-3 -6 -7 -11t-9 -8t-13 -3h-164q-12 0 -16.5 4.5t-6.5 10.5q-2 7 1 15q4 8 9 12t10 6q6 3 12 3h54l135 400h-45q-12 0 -16.5 5t-6.5 10q-2 6 1 14q3 7 7 12q9 11 24 11h125l135 -346z" />
    <glyph glyph-name="O" unicode="O" horiz-adv-x="543" 
d="M450 63q-30 -30 -69 -49.5t-81.5 -28.5t-86 -6.5t-82.5 17.5q-27 11 -49.5 29.5t-39 42.5t-26.5 51.5t-14 55.5q-3 81 34.5 155t102.5 126q31 25 70 41t80.5 21.5t82.5 -1t77 -27.5q29 -17 48.5 -40t33.5 -49q19 -45 21 -92t-9.5 -91t-35.5 -83.5t-57 -71.5zM262 447
q-37 -22 -65 -53.5t-46 -68.5t-27 -78.5t-10 -84.5q-1 -34 16 -65t49 -47q45 -17 90.5 -5t78.5 44q27 26 43.5 59t30.5 68q16 43 23 93.5t-11 91.5q-10 23 -30 37.5t-44.5 20.5t-50.5 3t-47 -15z" />
    <glyph glyph-name="P" unicode="P" horiz-adv-x="463" 
d="M480 274q-13 -9 -24 -15.5t-19 -10.5l-16 -8q-17 -6 -29.5 -12t-17.5 -8q-1 0 -7 -1.5t-20 -6.5q-6 -1 -11.5 -2.5t-10.5 -2.5t-9 -2q-15 -5 -39 -9.5t-40 -4.5h-5t-9 -1l-46 -137h34q11 0 15.5 -4.5t5.5 -10.5q1 -7 -1 -15q-3 -6 -7 -11t-9.5 -8.5t-14.5 -3.5h-174
q-11 0 -15.5 4.5t-6.5 10.5q-2 7 1 15q3 7 7 12q9 11 24 11h45l134 398h-36q-12 0 -16.5 4.5t-6.5 10.5q-2 7 1 15q6 16 17.5 19t13.5 4q2 0 11.5 0.5t33.5 0.5h65q42 0 108 -1q29 0 49 -2t32.5 -4.5t19 -4.5t7.5 -3q10 -4 21.5 -12.5t19 -22t9 -32.5t-7.5 -45
q-8 -25 -19 -43t-22 -30.5t-20.5 -20t-14.5 -10.5zM455 413q-5 16 -18 23.5t-30 9.5q-15 3 -25.5 4t-20 1.5t-21.5 0.5h-29l-70 -209q8 2 14 3t10 2t8 1q18 3 39 10t42 16.5t40 22t32 26.5q7 7 13.5 18t11 23.5t6 25t-1.5 22.5z" />
    <glyph glyph-name="Q" unicode="Q" horiz-adv-x="541" 
d="M236 -29q-28 0 -55.5 3.5t-53.5 14.5q-27 10 -49 29t-38.5 43t-26.5 51.5t-14 55.5q-3 83 33.5 157.5t102.5 126.5q31 25 70 41t80.5 21.5t83 -1t77.5 -27.5q28 -17 47.5 -40t34.5 -50q19 -46 21 -93t-10 -91t-35.5 -84t-56.5 -72q-24 -24 -53.5 -40.5t-61.5 -27.5l-5 22
q3 -17 0 -21.5t-10 -8.5q-2 -1 -5 -3q-2 -2 -5.5 -3.5t-6.5 -3.5q-8 -6 -2 -18q12 -13 27 -17t31.5 -3t33 5t30.5 9q12 5 26 10t40 13q-7 -27 -21.5 -46.5t-32.5 -32.5t-37 -21.5t-36 -14.5q-29 -6 -61 -5t-55 15q-9 6 -14 17q-5 10 -7 26t3 41q5 12 7.5 17t3.5 6zM258 443
q-37 -22 -64.5 -53.5t-46 -69t-27.5 -79.5t-10 -86q-1 -34 16.5 -65t49.5 -47q43 -22 82.5 -13t72.5 37t58 71t39 89.5t15.5 91.5t-12.5 77q-10 23 -30.5 38t-45 21.5t-50.5 3.5t-47 -16z" />
    <glyph glyph-name="R" unicode="R" horiz-adv-x="546" 
d="M486 277q-29 -19 -43 -27q-10 -5 -17 -8q-18 -6 -27 -9.5t-14 -5.5q-1 0 -10 -3q5 -38 17 -74t28 -73q2 -4 6.5 -12.5t10 -17t10.5 -16l7 -10.5t7.5 -9t11.5 -12l11 -11l6 -6l3 -3q2 -2 4.5 -4t6.5 -5l-15 -39q-11 1 -18.5 2t-11.5 2t-7 1q-6 2 -22.5 8.5t-24.5 11.5
q-44 25 -70 67t-43 88q-1 5 -5 16q-3 9 -8.5 25t-16.5 42q-7 -1 -11.5 -2t-7.5 -1h-5h-3h-5q-2 0 -6 -1l-48 -141h35q12 0 16.5 -4.5t5.5 -10.5q1 -7 -1 -16l-2 -4t-5.5 -8t-9.5 -7.5t-14 -3.5h-178q-11 0 -16 4.5t-6 10.5q-1 7 1 15q3 7 7 12t10 8.5t14 3.5h46l137 409h-38
q-11 0 -16 4.5t-6 10.5q-1 7 1 15q6 16 17.5 19.5t13.5 3.5q3 0 13 0.5t34 0.5h66q43 0 110 -1q59 -1 83 -6.5t27 -7.5q10 -4 21.5 -12.5t19 -22t9.5 -33.5t-7 -47q-9 -25 -20.5 -43.5t-22.5 -31.5t-20.5 -20.5t-14.5 -10.5zM461 419q-6 17 -19 24.5t-30 10.5q-16 3 -26.5 4
t-20.5 1h-22h-30l-71 -214l33 6q18 3 40 10t43 17t40.5 22.5t32.5 27.5q7 8 14 19t11.5 24t6 25.5t-1.5 22.5z" />
    <glyph glyph-name="S" unicode="S" horiz-adv-x="400" 
d="M476 424q-1 -14 -3.5 -30t-11.5 -37l-31 2q-7 22 -16 41t-21 33t-27.5 22t-36.5 8q-23 -1 -46 -11t-40 -30q-12 -17 -16.5 -35.5t0.5 -30.5q15 -24 39.5 -37t51 -25t51 -27.5t40.5 -43.5q15 -27 11 -61t-23 -68q-13 -24 -33.5 -42t-44 -31t-48 -21t-46.5 -12
q-21 -4 -39 -3t-34.5 4t-33.5 7.5t-36 7.5q-11 2 -24 3t-36 -1l16 140q8 10 21.5 13t18.5 -7q8 -26 21 -48.5t32 -37.5t43.5 -21t56.5 1q24 5 49 22t38 40q5 11 8 21.5t1 18.5q-12 14 -29.5 25.5t-37.5 22t-39.5 21t-35.5 21.5q-19 14 -34 30.5t-21 38t-2.5 48.5t21.5 61
q11 22 29 39t39.5 29t44 19.5t42.5 10.5q35 5 64 -1.5t62 -14.5q9 -2 19.5 -4t29.5 -4q-2 -22 -2 -37t-1 -29z" />
    <glyph glyph-name="T" unicode="T" horiz-adv-x="462" 
d="M319 450q1 -1 -4 -19t-13.5 -46t-20 -64t-23.5 -73q-28 -87 -65 -197h60q9 1 14 -3q5 -3 8 -9t-1 -18q-2 -6 -6 -11q-7 -11 -22 -11q-78 -1 -122.5 -0.5t-66.5 0.5h-33q-1 0 -5.5 0.5t-8.5 3.5t-6.5 9t-0.5 16q4 9 9.5 14t10.5 7q6 3 12 2h68l134 400q-22 0 -40 -3
t-31 -7q-15 -4 -27 -10q-16 -8 -28 -13.5t-22.5 -11.5t-21 -13.5t-24.5 -18.5l-9 -7l-6 -4l-1 -1q-11 -5 -20.5 4.5t-5.5 20.5q1 3 10 18q8 13 24.5 38t45.5 71q12 6 15 7t4 0q12 0 19 -5t15 -10q2 -2 8 -2.5t11 -0.5h176h109q9 1 14 1.5t9.5 2t9 4t12.5 6.5q5 2 11 3t9 1
q2 0 7 -1.5t13 -8.5q-1 -48 -1.5 -74t-1.5 -39q-1 -15 -1 -18q-3 -8 -15 -15t-20 -2q-1 1 -3 2.5t-4 5.5l-4 6q-6 12 -11.5 19t-12 12t-14 10t-18.5 13q-2 2 -26.5 10.5t-71.5 8.5z" />
    <glyph glyph-name="U" unicode="U" horiz-adv-x="561" 
d="M623 451l-91 -271q-10 -30 -18 -44.5t-10 -16.5q-27 -49 -66.5 -76t-75.5 -39q-42 -14 -88 -16q-61 0 -95 17t-48.5 45t-12 63.5t14.5 72.5l89 264h-37q-12 0 -16.5 5t-5.5 11q-1 7 1 15q4 9 9 13.5t10 6.5q6 3 12 3h177q11 0 15 -4.5t5 -10.5q1 -7 -1 -15q-3 -6 -7 -11
t-9 -8.5t-13 -3.5h-48q-12 -36 -29 -80t-32.5 -88.5t-25.5 -86t-8 -73t20.5 -49.5t59.5 -16q23 -1 42 4t33 11q16 7 28 16q32 26 46.5 50.5t22.5 46.5l89 265h-32q-12 0 -16.5 4.5t-6.5 10.5q-2 7 1 15q3 6 7 11t10 8.5t14 4.5h147q10 -1 14 -6.5t5 -10.5q1 -6 -1 -14
q-3 -6 -7 -11t-9 -8.5t-13 -3.5h-50z" />
    <glyph glyph-name="V" unicode="V" horiz-adv-x="608" 
d="M601 448l-280 -448q-5 -4 -9 -6t-6 -4q-3 -2 -5 -3q-5 -2 -10 -3t-9 -1q-5 0 -11.5 3t-10.5 8q-2 4 -4.5 10t-2.5 19l-1 424h-65q-11 2 -15.5 7t-6.5 10q-2 6 1 14q4 9 9.5 13.5t10.5 6.5q6 3 12 3h222q13 0 17.5 -4.5t5.5 -10.5q1 -7 -1 -15q-3 -9 -8 -14t-10 -7
q-6 -3 -13 -3h-62l3 -284l177 284h-36q-11 0 -15.5 4.5t-6.5 10.5q-2 7 1 15q2 6 6 11q9 11 24 12h165q11 -2 15 -6.5t5 -9.5q1 -6 -1 -14q-2 -6 -6 -11q-9 -11 -23 -11h-56z" />
    <glyph glyph-name="W" unicode="W" horiz-adv-x="756" 
d="M-1 481l3 6q3 8 11 14t16 6h73h152q10 0 13.5 -6.5t0.5 -14.5v-1q-3 -9 -11 -14.5t-17 -5.5h-65l10 -311l209 332q4 8 10 13.5t15 5.5q11 0 15 -6v-1v-1q1 0 1 -1v-9l-6 -334l217 311h-74h-2q-9 0 -12 6.5t0 14.5q1 0 1 1v1q1 0 1 1q4 8 11 13.5t16 5.5h195q10 0 14 -6.5
t0 -15.5v-1q0 -1 -1 -2q-8 -17 -26 -17h-61l-311 -456q-2 -4 -7.5 -9.5t-10.5 -7.5q-4 -1 -11 -1q-8 0 -17.5 3.5t-12.5 8.5v1q0 1 -1 2q-3 5 -3 8l5 288l-188 -295q-4 -2 -7.5 -4.5t-8.5 -4.5q-5 -3 -10.5 -5t-8.5 -2q-10 0 -17 8t-7 16q-1 102 -2 191q0 38 -0.5 76.5
t-1 73.5t-0.5 63v45h-73q-9 0 -13 6t-1 15l2 5z" />
    <glyph glyph-name="X" unicode="X" horiz-adv-x="554" 
d="M556 460l-182 -197l51 -211h54q11 -1 15.5 -6t5.5 -10q1 -6 -1 -13q-2 -6 -6 -10t-9.5 -7.5t-15.5 -5.5h-169q-12 0 -16.5 5t-6.5 11q-2 7 1 15q3 6 7 11q9 11 25 11h26l-32 134l-171 -188l-105 1q-11 2 -15 7.5t-5 10.5q-1 6 1 14q6 13 19 18q6 3 12 2h66l182 198
l-51 210h-53q-11 2 -15.5 6.5t-5.5 9.5q-1 6 1 14q2 6 6 11q9 11 24 12h171q11 -2 15 -7.5t5 -10.5q1 -6 -1 -13q-2 -6 -6 -10t-9.5 -7.5t-14.5 -4.5h-28l34 -130l172 182q20 0 43 2.5t42 1.5t30.5 -7.5t6.5 -24.5q-3 -6 -7 -11t-9.5 -8.5t-13.5 -4.5h-67z" />
    <glyph glyph-name="Y" unicode="Y" horiz-adv-x="508" 
d="M551 451l-180 -194l-69 -206h38q12 0 16.5 -4.5t5.5 -9.5q1 -6 -1 -14q-2 -6 -6 -10q-3 -4 -8.5 -8t-14.5 -6h-183q-10 2 -14.5 7t-5.5 10q-1 6 1 13q2 6 6 11q9 11 24 11h47l73 215l-45 184h-51q-11 0 -15 5t-5 11q-1 7 1 15q4 8 9 12t10 6q5 3 11 2h165q11 0 15.5 -4.5
t5.5 -9.5q1 -6 -1 -14q-3 -6 -7 -11t-9.5 -8t-14.5 -3h-26l32 -132l120 132h-28q-14 0 -19 8t-3 18t11 18t22 8h163q11 -1 15.5 -6t5.5 -10q1 -6 -1 -14q-3 -6 -7 -11q-9 -11 -23 -11h-60z" />
    <glyph glyph-name="Z" unicode="Z" horiz-adv-x="465" 
d="M136 53q31 -2 61.5 -1.5t58.5 0.5q27 1 51.5 6.5t35.5 10.5q18 7 40 23.5t36 30.5l11 10q9 9 9 8l2 1q14 7 25 -1.5t5 -25.5q-2 -6 -13.5 -22.5t-25 -34.5l-25.5 -34t-17 -20q-8 -8 -17.5 -7t-18.5 1q-3 0 -13 1q-8 1 -24 1h-42h-264q-7 9 -7.5 17t2 15.5t7.5 15t8 15.5
l429 388q-10 0 -24 0.5t-28.5 1t-28 0t-22.5 -1.5q-8 -1 -24 -3.5t-26 -6.5q-5 -2 -16.5 -8t-24 -13t-24 -14t-16.5 -11q-17 -14 -25 -14.5t-13 1.5q-9 6 -10 13t2.5 14.5t10 14.5t10.5 12q11 12 19 24t18 25q8 11 19 18t25 3q2 -1 9 -1.5t15.5 -1t15.5 -0.5h10h252l11 -1
q11 -11 5 -24.5t-15 -21.5z" />
    <glyph glyph-name="bracketleft" unicode="[" horiz-adv-x="181" 
d="M252 539l-208 -635h99q6 0 10 -3q4 -2 7 -7.5t2 -16.5q-3 -8 -7 -13t-9.5 -8.5t-14.5 -3.5h-186l243 741q51 0 90.5 1.5t65.5 0t37 -8.5t6 -24q-3 -6 -7 -11t-9.5 -8.5t-13.5 -3.5h-105z" />
    <glyph glyph-name="backslash" unicode="\" horiz-adv-x="400" 
d="M391 -150q-11 0 -21.5 6t-15.5 15l-392 689q-7 12 -1 22.5t20 10.5h17q11 0 21.5 -6t15.5 -15l392 -689q8 -12 2 -22.5t-20 -10.5h-18z" />
    <glyph glyph-name="bracketright" unicode="]" horiz-adv-x="270" 
d="M-24 -148q-11 0 -15.5 5t-5.5 11q-1 7 1 16q9 15 18 18q5 2 10 2h106l208 635h-98q-11 0 -14.5 4.5t-5.5 10.5q-2 7 0 15q3 7 7 12q9 11 24 11l186 1l-243 -741h-178z" />
    <glyph glyph-name="asciicircum" unicode="^" horiz-adv-x="209" 
d="M161 323q-9 0 -15 6l-57 57l-59 -57q-6 -6 -14 -6q-10 0 -13 6.5t-3 11.5v16q0 13 8.5 26t20.5 24.5t23.5 21t17.5 15.5q8 8 19 8q9 0 20.5 -8.5t22.5 -19.5t19 -20.5t10 -11.5q15 -15 15 -35v-16q0 -5 -2.5 -11.5t-12.5 -6.5z" />
    <glyph glyph-name="underscore" unicode="_" horiz-adv-x="324" 
d="M-2 -46h326v-32h-326v32z" />
    <glyph glyph-name="grave" unicode="`" horiz-adv-x="169" 
d="M167 453q-7 -7 -15 -8t-16 1.5t-16 6t-14 6.5q-34 15 -66 36q-7 5 -5 14q0 2 3 7q2 5 6.5 14.5t12.5 26.5q3 5 6 6q2 1 3 2q2 0 6 0.5t9 -3.5q13 -9 25.5 -17.5t23.5 -20.5q8 -8 20 -21t19 -24q6 -9 4 -15t-6 -11z" />
    <glyph glyph-name="a" unicode="a" horiz-adv-x="382" 
d="M194 40q-26 -23 -58 -36.5t-70 -2.5q-38 20 -51 57.5t-11 75.5q2 31 14.5 59.5t33 52t46 42t52.5 29.5q14 6 32 7t37 -2t36 -11t28 -21l1 1q6 7 11 13.5t11.5 10.5t14.5 4.5t19 -4.5l8 -16q-23 -59 -39.5 -117t-34.5 -115q0 -3 4 -2q10 1 16.5 5.5t14 9t18 7t27.5 -1.5
q-7 -22 -20 -38t-29 -26.5t-34 -16.5t-35 -8q-15 3 -27 15t-14 27l-1 2v0zM161 262q-40 -32 -58.5 -79.5t-7.5 -95.5q4 -11 13.5 -17t20.5 -7q20 4 38 14.5t32 29.5q8 17 15.5 35.5t13 38t7 39.5t-3.5 39q-4 9 -13 13.5t-20 4.5q-10 0 -20 -4t-17 -11z" />
    <glyph glyph-name="b" unicode="b" horiz-adv-x="350" 
d="M139 306q26 17 54 22.5t55 5.5q21 0 37.5 -9.5t28 -25t18 -34t8.5 -35.5q3 -22 -2 -46t-15.5 -47.5t-26 -45t-34.5 -38.5q-32 -29 -67.5 -42t-72.5 -15q-71 8 -103 63q-8 15 -11 28.5t-3 23.5q0 11 2 21l105 323l-22 -5.5t-23 0.5q-8 8 -7.5 15.5t2.5 15.5q35 16 71 26
t71 22l-2 -27l-63 -196v0zM191 262q-20 -2 -41.5 -13t-39.5 -29q-4 -14 -10.5 -30t-11 -33t-6.5 -33.5t2 -31.5q5 -22 23.5 -34t47.5 -8q26 3 48 21.5t36 45t18 55.5t-5 53q-15 35 -61 37z" />
    <glyph glyph-name="c" unicode="c" horiz-adv-x="330" 
d="M205 3q-31 -14 -67 -14t-68 15q-38 24 -54 59.5t-14.5 73t18.5 74t45.5 63.5t65.5 41t78 7q24 -4 50 -18.5t35 -38.5q4 -10 5.5 -29t-9.5 -32t-25.5 -22t-34.5 -1q-14 8 -23 22t-5 31q1 4 3.5 9t4 10.5t1 9.5t-5.5 7q-12 10 -28 7t-28 -8q-31 -17 -44.5 -48t-15.5 -66
q-1 -41 26 -70q22 -14 46.5 -19t47.5 5q21 8 37.5 23.5t32.5 30.5q11 0 20.5 -4t11.5 -15q-14 -37 -45 -63t-61 -40z" />
    <glyph glyph-name="d" unicode="d" horiz-adv-x="424" 
d="M331 450q-9 -3 -18 -6.5t-17.5 -3t-15.5 6t-13 18.5q13 18 28 26t31 12.5t32.5 8t33.5 11.5q11 0 22.5 -4.5t17.5 -19.5q-16 -55 -35 -109t-37.5 -107.5t-36 -107t-32.5 -108.5q-1 -2 0.5 -1t2.5 1h-3q12 1 23 8.5t22 13.5q5 2 10.5 4.5t18.5 6.5q5 -18 2 -30t-11 -22
t-19 -17.5t-22 -16.5q-16 -10 -37.5 -15.5t-42.5 2.5q-13 8 -19.5 18.5t-10.5 24.5q-25 -22 -57.5 -38t-70.5 -7q-22 8 -38.5 22.5t-25.5 35.5q-14 35 -12.5 71.5t15.5 70.5t38.5 62.5t55.5 47t66.5 25t71.5 -5.5q11 -3 19 -10t16 -15q11 37 22.5 74t25.5 73zM198 286
q-13 -3 -26 -12t-24 -21q-28 -38 -45.5 -79.5t-5.5 -85.5q3 -8 10 -15.5t16 -10.5q30 0 53.5 18.5t40.5 46.5q5 16 13 34.5t13.5 38t4.5 38t-13 34.5q-16 14 -37 14z" />
    <glyph glyph-name="e" unicode="e" horiz-adv-x="314" 
d="M299 98q0 -2 -2 -6q-2 -7 -8.5 -15.5t-14.5 -17t-16 -15.5t-12 -10q-17 -14 -37 -24t-42 -15q-17 -2 -36 -1.5t-37.5 5t-35.5 14.5t-29 27q-27 30 -29.5 71t12 80.5t42 72.5t60.5 47q14 6 29.5 8.5t28.5 3.5q25 2 51 -5t46 -24q18 -15 26 -42t-8 -51q-18 -26 -42 -40
t-51 -20t-56 -6.5t-56 -0.5q1 -7 4 -14t5 -12q9 -16 23 -29.5t30 -15.5q22 -5 43.5 1t38.5 20q5 5 14.5 13.5t20 14.5t20.5 7.5t16 -9.5q3 -7 2 -12zM166 274q-25 0 -45.5 -20t-31.5 -45q-2 -8 -4.5 -16t-2.5 -16q14 0 33.5 2t38 7t33.5 14t21 25q6 18 -7 33.5t-35 15.5z
" />
    <glyph glyph-name="f" unicode="f" horiz-adv-x="272" 
d="M137 326q2 27 14 61t25 57q17 31 42 54.5t67 31.5q22 -2 43.5 -8.5t29.5 -30.5q-3 -17 -7 -33.5t-10 -30.5q-7 -16 -14.5 -20.5t-14 -1t-12 12.5t-8.5 20q-1 5 -3.5 15.5t-6.5 18t-10 8.5t-14 -14q-5 -9 -8 -18.5t-6 -19.5q-8 -23 -14.5 -45.5t-14.5 -45.5l-3 -11
q6 0 13 -1t12.5 -3.5t9 -7.5t3.5 -13q0 -7 -3 -13q-5 -13 -24 -14h-27q-5 -20 -12 -43.5t-11 -40.5q-5 -20 -11.5 -40.5t-11.5 -40.5q-11 -35 -21 -70t-31 -66q-26 -37 -61.5 -50t-75.5 -13q-11 0 -20 6.5t-17 17.5q5 16 7.5 32t7 29.5t14.5 24.5t31 17q5 -12 8.5 -23.5
t7.5 -23.5q3 -9 6.5 -16.5t9.5 -12.5q2 -2 4 2t3.5 9.5t2.5 11t2 6.5q5 14 10 23t11 30l64 231h-19q-10 0 -15.5 4.5t-7.5 9.5q-3 6 -3 13q0 8 3 13q2 5 7.5 8.5t15.5 3.5h43v0z" />
    <glyph glyph-name="g" unicode="g" horiz-adv-x="449" 
d="M80 24q-18 15 -9 36q16 19 36.5 30.5t40.5 23.5q-17 19 -24.5 45.5t6.5 58.5q11 26 35 48t53 36q35 17 75 20t68 -14q15 19 26.5 35t34.5 29q9 5 20.5 8.5t22 2.5t18 -6t8.5 -17q-4 -22 -17.5 -31.5t-29.5 -14.5t-30.5 -11t-19.5 -22q2 -9 5.5 -17t4.5 -18q1 -30 -15 -64
t-52 -57t-75.5 -28.5t-74.5 -0.5l-5 -4q-2 -2 -7.5 -8t-4.5 -8t8.5 -5t9.5 -4q20 -8 41.5 -15t41 -17t36 -23.5t26.5 -34.5q1 -18 -1 -31.5t-13 -28.5q-24 -25 -52.5 -38t-58.5 -18t-61 -4.5t-59 2.5q-13 3 -28 6t-27.5 9.5t-22.5 16.5t-13 26q0 19 7.5 35t19.5 29.5
t26.5 24t29.5 18.5zM286 279q-18 -5 -35.5 -13.5t-25.5 -22.5q-13 -22 -21 -43.5t-6 -39.5q2 -12 14.5 -19.5t35.5 -1.5q11 2 24.5 8.5t21.5 16.5q9 11 19 31t13.5 39t-4.5 33t-36 12zM249 -52q-4 3 -9 5l-10 4q-29 11 -56.5 23t-55.5 24l-19 -19q-22 -32 -15.5 -57
t35.5 -27q14 -2 29.5 -0.5t30.5 2.5q18 4 39.5 10t33.5 23q5 6 -3 12z" />
    <glyph glyph-name="h" unicode="h" horiz-adv-x="366" 
d="M175 304q17 6 36.5 12.5t39 10t39 2t36.5 -11.5q17 -9 23.5 -25t6 -33.5t-6 -35.5t-12.5 -32q-8 -17 -17 -32.5t-17 -32.5q-1 -3 -5.5 -11t-9 -17t-7 -17t0.5 -11q11 -8 19 -3t17 10q4 2 10 4t18 2q6 -17 1 -31t-15.5 -24.5t-25.5 -18.5t-29 -13q-13 -2 -27.5 0
t-26.5 9.5t-19 20t-4 31.5q0 24 8 46t18.5 42.5t21 41.5t15.5 43q5 16 2.5 23.5t-8.5 9.5q-12 5 -26.5 1t-28.5 -11.5t-27 -16.5t-24 -15l-74 -216q-11 -8 -20.5 -9t-17.5 -1q-8 1 -17 2t-26 1l120 376l24 71h-3q-14 -4 -26.5 -6.5t-23.5 12.5q2 11 5.5 17t9 9t12 5t14.5 5
q24 7 50 15t61 16l-1 -20l-63 -194v0z" />
    <glyph glyph-name="i" unicode="i" horiz-adv-x="250" 
d="M240 472q-1 -2 -3 -5q-3 -5 -12 -8l-49 -16q-13 0 -15 18q6 20 9 31t5 16q2 6 3 7q3 4 11.5 8t18 7l19 6t13.5 4q5 2 9 1q3 -1 5.5 -4.5t1.5 -12.5l-16 -52v0zM99 266q-5 -2 -9 -3.5t-9 -3.5q-6 -2 -12.5 -2.5t-11.5 3t-8.5 12t-3.5 24.5q18 7 34.5 14.5t32.5 14t33 11
t37 5.5l13 -21q-17 -69 -39.5 -132t-37.5 -129q2 -3 5 -3q6 1 12.5 6t13.5 10t15 8t17 0q5 -1 7 -11t-4 -21q-8 -15 -17 -24.5t-25 -17.5q-7 -4 -18.5 -7.5t-24 -4.5t-24 1t-18.5 10q-16 16 -20.5 38.5t3.5 45.5q17 44 30.5 88.5t28.5 88.5z" />
    <glyph glyph-name="j" unicode="j" horiz-adv-x="216" 
d="M247 467q-1 -2 -3 -5q-3 -5 -12 -8l-52 -16q-13 0 -15 18q6 20 9.5 31t5.5 16q3 6 3 8q3 4 11.5 7.5t19 7t20.5 6.5t14 4q5 2 9 1q3 -1 5.5 -4.5t1.5 -12.5l-17 -53v0zM100 259q-5 -2 -9 -3.5t-9 -3.5q-6 -2 -13 -2.5t-12.5 3t-9 12t-2.5 24.5q19 7 35.5 15t33 14.5
t34.5 11t39 5.5l14 -21q-17 -70 -41.5 -134.5t-39.5 -131.5q-8 -34 -19.5 -66.5t-22.5 -64.5q-9 -26 -20.5 -51.5t-34.5 -42.5q-22 -17 -50 -27t-57 -5q-20 1 -36 24q5 16 7.5 32.5t7 30.5t14.5 25t30 17q5 -13 8.5 -24.5t7.5 -23.5q5 -17 13 -25l-2 2q3 5 5 9.5t3 6.5
q5 14 10 23t11 31l44 159q13 47 28.5 91.5t32.5 89.5z" />
    <glyph glyph-name="k" unicode="k" horiz-adv-x="396" 
d="M321 -5q-20 -3 -43 -0.5t-41 22.5q-14 19 -18.5 45t-12.5 49q-7 20 -19.5 32t-41.5 7q-5 2 -10 -0.5t-7 -7.5l-47 -141q-20 -4 -40 -4t-44 9q40 117 77 226.5t77 217.5h-2q-5 -2 -11 -5t-11 -5q-6 -2 -13 -3.5t-13.5 1t-11 9.5t-4.5 21q0 2 13 9t30 14t32.5 13t19.5 7
q22 5 37.5 1t21.5 -19q5 -15 -1 -39t-14 -45q-20 -53 -38.5 -104.5t-35.5 -105.5q22 -2 40 1.5t29 23.5q14 17 23 36t22 36q14 19 35 30t52 0q18 -10 26 -25t6.5 -29t-13 -25.5t-32.5 -14.5q-13 -2 -21 -3t-15 -4t-13.5 -9t-16.5 -18q-5 -5 -8.5 -10t-7.5 -10l-4 -5
q20 -9 29 -24t15 -31.5t11 -33.5t15 -30q5 0 12 9t15 15.5t17 5.5t19 -21q-8 -24 -25 -42t-39 -26z" />
    <glyph glyph-name="l" unicode="l" horiz-adv-x="239" 
d="M234 459q-8 -22 -17.5 -42t-14.5 -43q-20 -61 -40 -121t-37 -121q-1 -4 -5.5 -14t-8.5 -21.5t-6.5 -21t0.5 -11.5q6 -5 13 -0.5t14.5 11t16 11.5t17.5 1q6 -3 8 -8.5t2 -12.5t-2 -13t-4 -10q-9 -17 -24.5 -25.5t-30.5 -16.5q-13 -8 -31 -8t-32 8q-19 12 -24 30.5
t-2.5 39.5t9.5 42t12 37q30 99 63 198q1 3 7 20t13 36q6 16 14 26l8 10q-5 3 -16 -2.5t-23 -9t-22 0t-12 25.5q0 2 11.5 9t25.5 15t27.5 15t16.5 8q8 3 19.5 7.5t23 5.5t20.5 -3.5t13 -18.5q2 -8 1 -16.5t-3 -16.5z" />
    <glyph glyph-name="m" unicode="m" horiz-adv-x="592" 
d="M365 281l-2 -5l-14 13q14 5 25 9t25 10q9 4 23.5 8.5t30.5 6.5t31 2q16 0 27 -5q23 -11 35 -33t9 -45q-3 -24 -12 -47t-19.5 -45t-19.5 -44t-10 -46q9 -7 19 0t17 12q5 4 10.5 7.5t14.5 7.5q19 -9 19 -21t-11 -25q-23 -29 -56 -41t-59 -4t-38 37t7 81q12 32 27 65t15 68
q-35 8 -61.5 3.5t-52.5 -24.5q-11 -27 -20 -55l-18 -56t-19.5 -55.5t-24.5 -53.5q-1 -3 -8.5 -4.5t-16.5 -2t-17 -0.5q-7 0 -10 1q-16 5 -18.5 19.5t2 31.5t12 33.5t10.5 25.5q13 35 25 69.5t26 69.5q-31 6 -63 -11t-62 -42q-20 -47 -34.5 -96t-38.5 -94q-1 -3 -8.5 -4.5
t-16.5 -2t-17 -0.5q-7 0 -10 1q-16 5 -18.5 19.5t2 31.5t12 33.5t10.5 25.5q11 31 22.5 61.5t22.5 62.5l6 16q-6 -2 -12 -3.5t-11 -3.5q-6 -2 -13 -2.5t-12.5 3t-8.5 12t0 23.5q37 16 68.5 30t72.5 14q6 -9 9.5 -14t5 -10t0.5 -11.5t-4 -17.5q17 10 29.5 19.5t26 17
t29.5 12.5t40 6q5 0 13.5 0.5t17.5 -0.5t17 -3t11 -7l11 -15q1 -5 1 -7v-3v-2q1 -5 -1 -7z" />
    <glyph glyph-name="n" unicode="n" horiz-adv-x="387" 
d="M167 270q15 9 28.5 20t30.5 19q8 4 18.5 8t22 6t23.5 1.5t23 -5.5q23 -10 34.5 -32t9.5 -45q-3 -25 -12.5 -47.5t-20 -44.5t-18.5 -44t-9 -46q9 -7 18.5 0t16.5 12q5 3 10 6.5t14 8.5q19 -10 19 -22q0 -11 -10 -24q-15 -19 -35 -31t-40 -15.5t-38 1.5t-29 19.5t-12.5 39
t10.5 59.5q12 32 26.5 64.5t14.5 67.5q-32 6 -62 -10.5t-58 -39.5q-20 -48 -34 -96.5t-38 -93.5q-1 -3 -8.5 -4.5t-16 -2.5t-16.5 -1q-7 0 -9 1q-16 5 -18.5 19.5t2 31.5t11.5 33.5t10 25.5q11 32 22 62.5t22 61.5l6 16q-5 -2 -11 -4t-11 -4q-6 -2 -13 -3t-13 2t-9 11t0 24
q36 17 67 30.5t71 13.5l14 -19q2 -10 0.5 -17.5t-3.5 -12.5z" />
    <glyph glyph-name="o" unicode="o" horiz-adv-x="352" 
d="M291 68q-30 -35 -69.5 -57.5t-87.5 -20.5q-17 1 -35 6t-34 14.5t-29 22.5t-22 29q-20 40 -14.5 84.5t26.5 78.5q34 54 89.5 81.5t118.5 12.5q29 -8 52.5 -28.5t33.5 -49.5q16 -45 5.5 -91t-34.5 -82zM146 255q-26 -23 -40.5 -57t-17.5 -69q-1 -11 -1 -26q0 -14 4 -27
t12.5 -22.5t23.5 -11.5q37 -4 58 17q17 20 30.5 42.5t22 46.5t9 48.5t-8.5 48.5q-5 13 -16.5 19.5t-25 7.5t-27 -3.5t-23.5 -13.5z" />
    <glyph glyph-name="p" unicode="p" horiz-adv-x="354" 
d="M70 245q-11 -3 -21 -0.5t-20 16.5q34 24 71 37t80 23l-11 -35q20 13 42 22t44 11t42.5 -5t38.5 -27q14 -15 21 -33.5t8 -39t-2.5 -40.5t-10.5 -38q-11 -30 -34.5 -58t-49.5 -49q-17 -16 -33.5 -23.5t-36.5 -15.5q-37 -14 -67.5 -5.5t-53.5 24.5l-40 -122h28q9 -2 12.5 -7
t4.5 -10q1 -6 -1 -14q-5 -15 -15 -18.5t-12 -3.5h-19q-14 0 -42.5 -0.5t-81.5 -0.5q-12 0 -16.5 4.5t-6.5 10.5q-2 7 1 15q3 9 8.5 14t10.5 7q6 3 13 3h37l120 360zM213 243l-9.5 -1t-21.5 -5.5t-24 -13.5t-18 -26q-12 -33 -20 -50t-13 -25q-6 -9 -10 -8l10 -15
q-3 -10 0.5 -21t12 -19.5t20.5 -14t24 -5.5q7 0 21 4t29.5 14.5t30.5 28t24 44.5q19 56 0.5 84.5t-56.5 28.5z" />
    <glyph glyph-name="q" unicode="q" horiz-adv-x="384" 
d="M269 -110h27q9 -2 12.5 -7t4.5 -10q1 -6 -1 -13q-5 -15 -14.5 -18.5t-12.5 -3.5h-18q-13 0 -40.5 -0.5t-79.5 -0.5q-11 0 -16 4.5t-6 10.5q-1 7 1 15q3 9 8.5 13.5t10.5 6.5q6 3 12 3h32l40 115l-4 -2q-8 -5 -15.5 -9t-15.5 -7q-50 -14 -88 2t-57 51q-10 18 -11 41
t5 47.5t17 48.5t25 43q21 30 54.5 54t70 34t72 1t61.5 -46l1 1l10.5 14t9 11.5t11 10t17.5 9.5l7 -27l-78 -234zM205 257q-28 -10 -50.5 -36.5t-31.5 -58t-2 -62.5t38 -51q20 -4 42.5 -3.5t44.5 12.5q10 31 19.5 58.5t15.5 50.5q6 25 5.5 40t-8.5 25q-16 41 -73 25z" />
    <glyph glyph-name="r" unicode="r" horiz-adv-x="307" 
d="M174 286q23 19 51 30.5t62 -0.5q18 -15 20 -35t-8 -36t-29 -23.5t-43 2.5q-6 4 -7 5l-5 4q-5 4 -11 8t-12 -1q-33 -30 -48.5 -58t-24.5 -57t-16.5 -60.5t-23.5 -69.5q-12 1 -21 1h-16t-17.5 1t-23.5 9l78 243l-7 -3q-8 -3 -18 -5t-23 3q-7 8 -6.5 15.5t4 14t10 10.5
t11.5 5q16 2 30.5 10t28.5 13q11 4 23 6.5t22 1t16 -9t4 -24.5z" />
    <glyph glyph-name="s" unicode="s" horiz-adv-x="309" 
d="M287 217q-23 -20 -40.5 -11.5t-31.5 28.5q-4 5 -7 10.5t-7 10.5q-6 9 -15.5 13t-19.5 3.5t-18.5 -5.5t-12.5 -14q-6 -16 2 -27t21.5 -19t30 -13.5t26.5 -8.5q11 -4 21.5 -7.5t18.5 -8.5q15 -8 27.5 -26.5t12.5 -38.5q0 -16 -6 -31t-16 -27.5t-23 -22.5t-26 -16
q-12 -5 -29 -9t-35 -6t-35.5 -1t-31.5 7q-13 6 -27.5 12t-27 13.5t-22.5 18t-16 25.5q-7 20 1.5 40t31.5 26q27 2 40 -10.5t20.5 -29t15 -32t25.5 -19.5q16 -4 32 -1.5t30 11.5q18 19 12 38q-10 13 -29 23t-39.5 19.5t-40.5 20.5t-32 26t-13 36.5t16 51.5q28 36 69.5 48.5
t84.5 1.5q23 -3 42.5 -18t31.5 -35q3 -11 1.5 -24.5t-12.5 -21.5z" />
    <glyph glyph-name="t" unicode="t" horiz-adv-x="231" 
d="M143 274l-50 -156q-9 -29 -11 -37t-3 -10l4 -10t8 -5t9.5 2.5t8.5 6.5q8 7 20 7q8 -3 11 -7t4 -8t-1 -9q-1 -4 -8.5 -12.5t-19 -17.5t-27 -15.5t-33.5 -6.5q-17 0 -33 9t-21 27q-6 20 0.5 46t12.5 46l48 150h-25q-10 0 -14.5 4.5t-5.5 10.5q-1 7 1 15q2 7 6 11q3 4 8.5 7
t13.5 3h32q7 22 13.5 48.5t24.5 42.5q5 5 10 8.5t9 6.5q8 6 15.5 12.5t15.5 13.5q4 2 9.5 4t11.5 -1q13 -5 8 -25l-35 -110h35q12 0 16.5 -4.5t5.5 -9.5q1 -6 -2 -14q-2 -6 -6 -11t-9.5 -8.5t-13.5 -3.5h-43z" />
    <glyph glyph-name="u" unicode="u" horiz-adv-x="384" 
d="M272 250q-4 -1 -8 -1t-8 -2q-17 -6 -29 -2t-14.5 13t8 20.5t39.5 21.5q7 3 19.5 7t25.5 7.5t25.5 4.5t19.5 -3q14 -8 14 -22q0 -13 -1 -25q-20 -54 -39.5 -107t-32.5 -107q0 -7 8 -9q4 -1 8 1t7 4l7 5q12 8 22.5 7.5t22.5 -17.5q-17 -32 -44.5 -43.5t-56.5 -13.5
q-17 2 -31.5 11.5t-20.5 29.5q0 10 -1 15q-18 -13 -38 -26.5t-41.5 -21.5t-44 -8.5t-46.5 11.5q-18 9 -25 24t-7 32q0 18 4.5 36t8.5 33q11 32 24 65t22 66q-6 -2 -16 -6t-19 -5t-16 2.5t-8 16.5q-1 12 7 18.5t18 10.5q16 6 32 10t32 11q10 5 21 7t20.5 -0.5t16 -9.5
t6.5 -21q0 -16 -4.5 -32.5t-11 -32.5t-13.5 -32t-12 -31q-6 -17 -12 -34.5t-11 -34.5q-4 -17 0.5 -25.5t14 -11t22 0t22.5 6.5q6 2 11 5t10 5q16 8 31 29.5t27 47.5t21 52.5t14 44.5l1 3h-1z" />
    <glyph glyph-name="v" unicode="v" horiz-adv-x="355" 
d="M311 167q-18 -29 -41 -52.5t-46 -46.5q-13 -12 -25.5 -24.5t-26 -24t-28.5 -20.5t-34 -13q-17 0 -23 10t-11 23l-11 223q-2 1 -9.5 -3.5t-9.5 -6.5l-23 -20l-26 25q14 34 42 57t60 26q17 2 30 -7.5t18 -24.5q5 -54 5 -108t6 -108q17 15 34 31.5t30 35t19.5 40t1.5 46.5
q-8 14 -10 32t5 35q9 17 24.5 24.5t31 5.5t29 -13t19 -30.5t-1 -47.5t-29.5 -64z" />
    <glyph glyph-name="w" unicode="w" horiz-adv-x="538" 
d="M352 89q18 15 32.5 28.5t23.5 28.5t12 33.5t-2 44.5q-8 14 -10 32.5t5 34.5q9 17 25 24.5t32 5.5t29.5 -13t18.5 -30.5t-1 -47.5t-30 -64q-17 -27 -40.5 -58t-50.5 -51q-22 -26 -39 -40.5t-29 -21.5t-19 -8t-10 -1q-19 10 -27 25t-9 32.5t2 36t4 34.5q0 2 -0.5 8t-1.5 13
l-131 -143l-22 -6l-25 6q-11 34 -12.5 68t-1.5 68q0 24 -1.5 50t-11.5 66h-1q-5 -2 -8.5 -4.5t-7.5 -4.5l-24 -21l-26 25q14 34 42.5 57t61.5 26q17 2 29 -6.5t18 -24.5q0 -3 -2 -27t-2 -57q0 -27 3 -55t11 -51q17 21 37.5 45t34.5 42q2 3 9 9.5t14 13.5t12 13t5 7
q-1 6 -4.5 8t-8 1.5t-9.5 -2.5t-9 -4q-5 -2 -13 -5t-17 -3t-12 6.5t-2.5 14.5t4 16.5t7.5 12.5q4 3 12.5 9t18 12t18.5 11t14 7q28 12 44.5 3.5t25.5 -27.5t11.5 -43t2.5 -42q0 -29 -2 -58.5t3 -58.5z" />
    <glyph glyph-name="x" unicode="x" horiz-adv-x="379" 
d="M320 238q-10 0 -16.5 3t-11.5 7l-4 3q-3 3 -4 3q-3 0 -6.5 -4.5t-6.5 -10t-6 -10.5t-4 -7l-37 -57l21 -89q2 -8 3 -16t8 -8t15 6t22 23l21 -36q-15 -20 -34.5 -36.5t-45.5 -16.5q-15 0 -24.5 6t-15.5 15t-9.5 19.5t-5.5 19.5l-11 50q-9 -14 -20.5 -33t-26 -36t-32 -29
t-37.5 -12t-33.5 10t-13.5 33q0 17 11 29t29 12q15 0 27.5 -5.5t14.5 -5.5q1 0 5 6t9 14t9 15t5 9l40 64l-12 51q-3 11 -5 17.5t-8 6.5q-8 0 -15.5 -6t-18.5 -26l-19 49l78 59q30 -14 40 -35.5t16 -50.5l2 3q9 14 19 28.5t22 26t27 19t35 7.5q18 0 32 -9.5t14 -32.5
q0 -18 -11 -30t-31 -12z" />
    <glyph glyph-name="y" unicode="y" horiz-adv-x="354" 
d="M278 61q-12 -18 -25 -35t-29.5 -35.5t-37 -40t-47.5 -48.5q-15 -14 -38.5 -37t-50 -39.5t-52 -17t-44.5 30.5q-5 16 -2 29t11.5 22t21 14t24.5 5q22 -14 39 -14t31 9t25 24.5t21 32.5q7 10 13 20t12 18q0 3 -2 5q-1 1 -1 2l-87 230q-4 2 -6.5 0.5t-4.5 -3.5l-4 -3l-3 -2
l-17 -22l-31 24q3 28 17.5 49.5t34.5 31t42 5t39 -28.5q24 -56 42 -112t43 -113q14 18 25.5 35.5t17.5 36.5t4 39t-14 44q-11 14 -20 32.5t-7 35.5q4 21 17 28.5t29 6t31.5 -11t24.5 -22.5q11 -15 15.5 -32t5 -33.5t-2 -31t-6.5 -26.5q-8 -29 -23 -54t-31 -48z" />
    <glyph glyph-name="z" unicode="z" horiz-adv-x="318" 
d="M259 288q-2 6 -2 8q0 14 9 18t16 4q14 0 20 -8.5t6 -19.5q0 -14 -8 -30t-19 -31t-22 -27t-18 -17l-98 -70l-18 -14t-19 -14h4q18 -3 34.5 -8.5t33.5 -10.5q12 -3 22 -3q16 0 26.5 12t19.5 31l32 -27l-20 -32t-22 -29t-28 -21.5t-37 -8.5q-25 0 -41.5 8.5t-30.5 17.5
q-9 6 -20 13.5t-22 7.5q-2 0 -5.5 1t-5.5 1q5 -8 5 -18q0 -26 -26 -26q-11 0 -18 8.5t-7 19.5q0 33 18 60t44 49.5t54.5 40.5t50.5 33q21 14 39 27q-17 1 -32 7t-30 11q-5 2 -9 2h-5q-14 0 -24.5 -9.5t-25.5 -32.5l-33 23q19 35 46.5 61.5t61.5 26.5q27 0 49.5 -9.5
t45.5 -20.5q8 -4 9 -4z" />
    <glyph glyph-name="braceleft" unicode="{" horiz-adv-x="250" 
d="M172 224q26 -15 28.5 -41.5t-11.5 -69.5l-43 -133q-14 -43 -5.5 -63.5t50.5 -32.5l-12 -38q-34 0 -61 5t-43 19.5t-19 41t11 69.5l49 151q6 20 7 34t-7 24.5t-26.5 19t-50.5 17.5q38 9 62 18t39 20.5t23.5 26t15.5 34.5l48 151q14 41 32.5 66t43 38.5t55 18.5t66.5 5
l-13 -40q-24 -6 -41.5 -14.5t-30 -21t-21 -29t-15.5 -37.5l-43 -132q-14 -45 -33.5 -69.5t-54.5 -37.5z" />
    <glyph glyph-name="bar" unicode="|" horiz-adv-x="133" 
d="M23 -153q-9 0 -15.5 9t-6.5 21l-1 697q0 13 6.5 22t15.5 9h13q10 0 16 -9t6 -21l2 -698q0 -12 -6.5 -21t-15.5 -9h-14z" />
    <glyph glyph-name="braceright" unicode="}" horiz-adv-x="250" 
d="M196 227q-26 15 -28.5 41.5t11.5 69.5l43 133q14 43 5.5 63.5t-50.5 32.5l12 38q34 0 61 -5t43 -19.5t19 -41t-11 -69.5l-49 -151q-6 -20 -7 -33.5t7 -24t26.5 -19t50.5 -17.5q-37 -9 -61.5 -18t-39.5 -20.5t-23.5 -26.5t-15.5 -35l-49 -152q-13 -41 -31.5 -65.5
t-43 -38.5t-55 -18.5t-67.5 -4.5l13 40q49 12 72.5 35t36.5 66l43 133q14 45 33.5 69.5t54.5 37.5z" />
    <glyph glyph-name="asciitilde" unicode="~" horiz-adv-x="377" 
d="M470 379q-20 -17 -47.5 -32t-56.5 -14h-4q-21 0 -38.5 7t-33.5 15t-31.5 14.5t-30.5 6.5q-16 0 -28.5 -6.5t-22.5 -14t-18 -14t-15 -6.5t-10.5 3.5l-5.5 5.5l-3 4q-6 8 -5.5 14.5t5 12t11 10.5t13.5 10q20 15 42.5 24.5t50.5 9.5q20 0 37 -6.5t33 -14.5t31.5 -14.5
t30.5 -6.5h5h5q7 0 15.5 3.5t16 8t12.5 8.5l5 4q6 5 11.5 10t14.5 5q10 0 15.5 -5t7 -12.5t-1.5 -15.5t-10 -14z" />
    <glyph glyph-name="uni00A0" unicode="&#xa0;" horiz-adv-x="212" 
 />
    <glyph glyph-name="exclamdown" unicode="&#xa1;" horiz-adv-x="130" 
d="M249 544q0 -2 -4 -10q-2 -4 -3 -7q-1 0 -11 -4.5t-44 -16.5q-6 -2 -11 0q-3 1 -4 3q-2 2 -4 6.5t1 11.5l14 47q5 8 6 9q2 2 3 2q2 0 8 3q5 2 15.5 5.5t27.5 8.5q6 1 10 0q3 -1 4 -2q2 -1 4 -4q4 -6 5 -11l-16 -48l-1 7v0zM199 377q-22 -68 -38.5 -120t-29 -90.5
t-21.5 -65t-15 -43.5q-14 -40 -17 -47l-8 -4q-5 -2 -16 -6.5t-31 -11.5q-4 -2 -11 0q-3 1 -5 3t-3.5 6.5t1.5 11.5l128 404q3 7 6 10q2 2 3 2q1 1 7 3q5 2 15.5 5t27.5 8q4 2 10 0q3 -1 4 -2q2 -1 4 -3q4 -3 5 -11l-16 -49v0z" />
    <glyph glyph-name="cent" unicode="&#xa2;" horiz-adv-x="361" 
d="M49 -57l-63 2q-11 10 -9.5 20.5t3.5 15.5q29 49 55 98.5t52 99.5q-25 25 -33.5 59t-0.5 71q6 26 20.5 49t34 41t43 31t47.5 19q11 1 20.5 3t20.5 1q13 29 29 56t30 57q11 5 20.5 3t21.5 -9l-54 -120l3 -1q16 -8 26 -14.5t21 -22.5q-10 -18 -18.5 -35.5t-23.5 -44.5
q-10 17 -12.5 23.5t-4.5 11.5q-3 8 -6.5 16t-8.5 13l-79 -169q23 2 38 13.5t34 22.5q12 0 15.5 -6t5.5 -16q-17 -31 -43.5 -48.5t-53.5 -26.5l-26 -2q-24 -51 -47.5 -102t-52.5 -108l-3 1zM206 396q-14 -2 -26.5 -10t-23 -19.5t-18 -25t-10.5 -26.5q-4 -15 -3.5 -31t5.5 -30
q20 35 38.5 71t37.5 71z" />
    <glyph glyph-name="sterling" unicode="&#xa3;" horiz-adv-x="545" 
d="M184 67q11 -3 23 -4.5t24 -3.5q43 -8 84.5 -18.5t83.5 -18.5q10 -2 20 -2.5t19 4.5t5.5 14t-5.5 17q-14 44 33 50q14 0 24 -9.5t12 -20.5q4 -15 0.5 -27.5t-11 -23t-17.5 -19.5t-18 -15q-42 -24 -85 -27t-86.5 5t-85.5 24t-83 29q-1 0 -2 -1t-3 -2q-11 -5 -23 -10.5
t-25 -10t-25.5 -6.5t-25.5 0q-20 3 -21 15.5t5 20.5q10 14 25.5 23.5t33 15t36 9t34.5 5.5q48 48 70 102h-43q-9 0 -14.5 4.5t-7.5 9.5q-3 6 -3 13q0 8 3 13q2 5 7.5 9t14.5 4h60q18 35 30 72.5t30 72.5q9 17 21.5 36.5t28 38t32.5 35t33 25.5q11 6 27.5 10t33.5 4t31 -7
t20 -24q1 -15 -4.5 -29.5t-21.5 -21.5q-15 -4 -25.5 0t-19.5 10t-16.5 11.5t-15.5 3.5q-25 -24 -34 -58.5t-17 -66.5q-8 -29 -18 -56.5t-20 -55.5h46q8 0 12.5 -4t6.5 -9q3 -6 4 -14q-2 -11 -6 -16.5t-8 -7.5q-4 -3 -9 -2h-70q-21 -34 -49 -61t-58 -53z" />
    <glyph glyph-name="currency" unicode="&#xa4;" horiz-adv-x="446" 
d="M477 366q9 -24 9.5 -50t-11.5 -61t-29.5 -60.5t-43.5 -48.5l27 -42l-58 -43l-26 43q-32 -20 -63 -28.5t-62 -8.5q-29 0 -55 8.5t-46 28.5l-56 -43l-32 48l55 43q-9 23 -9.5 49.5t11.5 60.5q12 35 30 60.5t43 48.5l-27 43l58 42l26 -42q32 19 63 27.5t62 8.5q29 0 55 -8.5
t46 -28.5l56 43l32 -48l-55 -42v0zM329 387q-27 0 -54.5 -11t-51 -29t-41.5 -42t-27 -50q-9 -25 -7.5 -48t12.5 -39.5t30 -26.5t44 -10q27 0 54.5 10.5t51.5 28.5t42 42t27 50t7 48.5t-13 39.5t-29.5 27t-44.5 10z" />
    <glyph glyph-name="yen" unicode="&#xa5;" horiz-adv-x="530" 
d="M487 463h-30q-11 0 -16 5t-6 10q-1 6 1 14q3 7 7 12q9 11 25 11h166q11 -1 15.5 -6t6.5 -10q2 -6 -1 -14q-3 -6 -7 -11q-9 -11 -23 -11h-62l-126 -136h84q11 0 15.5 -4.5t5.5 -9.5q1 -6 -1 -15q-3 -6 -7 -11t-9.5 -8.5t-13.5 -3.5h-122l-9 -10l-5 -15h105q11 0 15.5 -4.5
t6.5 -9.5q2 -6 -1 -15q-3 -6 -7 -11t-9.5 -8.5t-13.5 -3.5h-114l-48 -144h39q12 0 16.5 -4.5t5.5 -9.5q1 -6 -1 -14q-2 -6 -6 -10q-3 -4 -8.5 -8t-14.5 -6h-187q-13 2 -17.5 10.5t-2 17.5t10.5 16.5t20 7.5h49l48 144h-89q-11 2 -15.5 6.5t-5.5 9.5q-1 6 1 13q2 6 6 10t10 8
t14 5h97l8 24l-104 1q-11 2 -15.5 6.5t-5.5 9.5q-1 6 1 13q2 6 6 10t9.5 8t14.5 5h81l-33 135h-52q-11 0 -15 5t-5 11q-1 7 1 15q4 8 8.5 12t9.5 6q5 3 12 3h168q11 0 15.5 -4.5t5.5 -9.5q1 -6 -1 -15q-2 -6 -6 -11q-9 -11 -25 -11h-27l33 -135z" />
    <glyph glyph-name="brokenbar" unicode="&#xa6;" horiz-adv-x="133" 
d="M23 -153q-9 0 -15.5 9t-6.5 21l-1 697q0 13 6.5 22t15.5 9h13q10 0 16 -9t6 -21l2 -698q0 -12 -6.5 -21t-15.5 -9h-14z" />
    <glyph glyph-name="section" unicode="&#xa7;" horiz-adv-x="304" 
d="M377 449q0 -16 -3 -27t-8 -26l-27 2q-10 32 -24 51.5t-41 19.5q-16 0 -31 -8.5t-24.5 -21t-10.5 -26.5t12 -25q11 -9 24.5 -15.5t25.5 -12.5q15 -7 29.5 -16.5t25 -23t14 -31.5t-4.5 -44q-10 -29 -27 -45t-40 -26q15 -16 20 -36.5t-4 -48.5q-8 -25 -25 -44t-38.5 -31.5
t-45 -18.5t-44.5 -6q-14 0 -27 2.5t-27 6.5q-12 3 -25.5 5t-36.5 0l11 101q9 11 23 12l10 -6q10 -32 28 -53.5t50 -21.5q23 0 48 14t33 38q1 2 2.5 7t0.5 7q-6 11 -20.5 19.5t-32 17t-35.5 18.5t-30.5 24.5t-17 34t4.5 47.5q10 29 26.5 45.5t41.5 25.5q-14 16 -19.5 37
t3.5 49q8 23 22.5 40t33 29t39.5 18t41 6q14 0 25.5 -2.5t22.5 -5.5q11 -2 22.5 -5t31.5 -5q-2 -17 -1.5 -27t-0.5 -18zM254 273q-9 7 -19.5 12t-21.5 10q-5 0 -10.5 0.5t-10.5 0.5q-23 0 -33 -28q-4 -13 1.5 -23t15 -17.5t21.5 -13t21 -9.5q12 2 24.5 8.5t20 16.5t6.5 21.5
t-15 21.5z" />
    <glyph glyph-name="dieresis" unicode="&#xa8;" horiz-adv-x="314" 
d="M286 482q0 -2 -2 -4q-3 -3 -11 -6l-49 -13q-13 0 -15 15l9 24t5 12l3 6q2 3 10.5 6.5t18 6t19 4.5t13.5 3q4 2 8 1q3 -1 6 -3.5t2 -9.5l-17 -42v0zM193 482q-1 -2 -3 -4q-3 -3 -11 -6l-49 -13q-13 0 -15 15l9 24t5 12l3 6q3 3 11 6.5t18 6t19 4.5t13 3q4 2 8 1
q3 -1 6 -3.5t2 -9.5l-16 -42v0z" />
    <glyph glyph-name="copyright" unicode="&#xa9;" horiz-adv-x="506" 
d="M504 159q-27 -37 -63.5 -68t-76.5 -52t-81.5 -31.5t-79.5 -7.5t-69 21.5t-51 54.5q-13 25 -16.5 55.5t2 63t19 65.5t34.5 62q20 27 46.5 52.5t57 46.5t63 35.5t62.5 20.5q36 8 71.5 7.5t65.5 -11t52 -32.5t29 -57q12 -53 -7 -112t-58 -113zM238 370q-31 -24 -53.5 -55.5
t-34.5 -63.5t-12 -63t12 -55q19 -36 52 -51t70.5 -14t73 14.5t59.5 34.5q26 24 46 55.5t32 64.5t15 64.5t-5 54.5q-10 30 -37.5 46.5t-64 18.5t-77 -10.5t-76.5 -40.5zM446 329q-1 -8 -2 -15.5t-4 -18.5q-7 -8 -17.5 -9t-15.5 5q-10 23 -24 37t-38 9t-46.5 -25.5
t-34.5 -41.5q-15 -27 -15.5 -51t10.5 -39.5t32.5 -19.5t50.5 9q10 5 20 11.5t21 14.5q7 4 16.5 0.5t7.5 -18.5q-14 -22 -42 -39t-59.5 -24t-61 0t-46.5 34q-21 33 -11 77t39 82q24 29 59 50t70 23q17 2 31 -2.5t30 -7.5q5 -2 10 -2.5t19 -0.5q0 -15 0.5 -23t0.5 -15z" />
    <glyph glyph-name="ordfeminine" unicode="&#xaa;" horiz-adv-x="201" 
d="M235 250q5 3 8.5 7t8.5 7q11 3 16.5 -4t2.5 -15q-5 -11 -14 -19.5t-20 -13.5q-15 -8 -23 -7t-19 6q-7 5 -11 15q-13 -8 -27 -15t-30 -7q-15 2 -28.5 11.5t-15.5 29.5q2 14 8.5 28.5t21.5 24.5q23 17 48 25t51 10l2.5 7.5t2.5 9t-0.5 7.5t-7.5 2q-5 0 -11 -2
q-7 -3 -11.5 -7.5t-10 -9t-11.5 -8t-16 -3.5q-8 2 -16 5.5t-6 15.5q2 14 15.5 23.5t25.5 15.5q18 6 39 9t39 -5q15 -6 19 -18t1 -26q-5 -19 -10.5 -37t-11.5 -36l-5 -14l-4 -12v0zM152 279q-11 -10 -14 -21q-3 -8 1 -12q5 -2 11.5 -0.5t14 5t14 7.5t10.5 7l11 32
q-24 -6 -48 -18z" />
    <glyph glyph-name="guillemotleft" unicode="&#xab;" horiz-adv-x="264" 
d="M205 82q-9 0 -21 0.5t-18 8.5l-57 73l-1 1q-7 6 -7 11q0 7 7 11l1 1l57 73q6 8 18 9t21 1h17q11 0 15 -5t4 -8q0 -7 -6 -10l-64 -72l63 -71q7 -3 7 -10q0 -3 -4 -8t-15 -5h-17zM108 82q-9 0 -21 0.5t-18 8.5l-57 73l-1 1q-7 6 -7 11q0 7 7 11l1 1l57 73q6 8 18 9t21 1h17
q11 0 15 -5t4 -8q0 -7 -6 -10l-64 -72l63 -71q7 -3 7 -10q0 -3 -4 -8t-15 -5h-17z" />
    <glyph glyph-name="logicalnot" unicode="&#xac;" horiz-adv-x="435" 
d="M347 59q-14 0 -20.5 6.5t-8.5 16t-2 19.5v18q0 6 -7 6l-275 1q-13 0 -21.5 7.5t-8.5 18.5v16q0 11 8.5 18.5t21.5 7.5l333 1q12 0 20.5 -8t8.5 -19v-82q0 -11 -8.5 -18.5t-20.5 -8.5h-20z" />
    <glyph glyph-name="registered" unicode="&#xae;" horiz-adv-x="492" 
d="M502 160q-27 -37 -63.5 -68t-76.5 -52t-82 -31.5t-80 -7.5t-69 21.5t-51 54.5q-13 25 -16.5 55.5t2 63t19.5 65t34 61.5q20 28 46.5 53.5t57.5 46t63.5 35.5t62.5 21q35 8 70.5 7t65.5 -11.5t52 -32t30 -56.5q11 -53 -8 -112t-57 -113zM235 371q-31 -24 -53.5 -55.5
t-34 -63.5t-12 -63t12.5 -55q18 -36 51.5 -51t70.5 -14t72.5 14.5t59.5 34.5q26 23 46 54.5t32 65t15 65t-5 54.5q-10 30 -37.5 46.5t-63.5 18.5t-77 -10.5t-77 -40.5zM410 252q-15 -10 -23 -14q-5 -3 -9 -4l-13.5 -4.5l-7.5 -2.5l-1 -1q0 -2 0.5 -3t0.5 -2v-2q6 -16 7 -24
q1 -4 2 -7q4 -10 14.5 -23.5t19.5 -20.5q0 -1 2 -2t8 -7l-11 -27q-8 1 -12 1t-7 1q-4 1 -5 1q-18 5 -34 16.5t-26 27.5q-8 13 -15 27t-9 21l-2 7q-2 0 -3 -0.5t-2 -0.5h-2h-3l-20 -60h9q9 0 12.5 -3t4.5 -8t-1 -12q-2 -3 -5 -7q-6 -8 -16 -8h-89q-15 0 -17 11q-1 5 1 11
q2 4 5 8q6 8 16 8h19l65 193h-11q-9 0 -12.5 3.5t-4.5 8.5t1 11q4 10 12 13q4 2 9 2q11 1 35.5 1.5t51 -0.5t50 -2.5t32.5 -5.5q21 -9 26 -25.5t0 -35t-17 -35t-25 -25.5zM388 326q-2 8 -7.5 10t-12.5 4q-7 1 -11.5 1.5t-9.5 0.5h-10h-13l-32 -94q2 1 5 1q1 0 2 1
q17 3 39.5 12.5t36.5 23.5q6 7 11 19.5t2 20.5z" />
    <glyph glyph-name="macron" unicode="&#xaf;" horiz-adv-x="406" 
d="M29 470q-12 0 -20.5 6.5t-8.5 15.5v14q0 9 8.5 15t20.5 6l332 1q12 0 20.5 -6.5t8.5 -15.5v-14q0 -9 -8.5 -15t-20.5 -6z" />
    <glyph glyph-name="degree" unicode="&#xb0;" horiz-adv-x="256" 
d="M93 337q-42 0 -66 27t-24 64q0 38 24 64.5t66 26.5t66 -26.5t24 -64.5q0 -37 -24 -64t-66 -27zM93 471q-20 0 -31 -13t-11 -30t11 -29.5t31 -12.5t31 12.5t11 29.5t-11 30t-31 13z" />
    <glyph glyph-name="plusminus" unicode="&#xb1;" horiz-adv-x="325" 
d="M28 -3q-12 0 -18.5 9.5t-6.5 19.5v18q0 9 6.5 18.5t18.5 10.5h74q1 12 1 24v24v8q-20 0 -39 -0.5t-39 0.5q-12 0 -19 4.5t-10 12t-3 16.5t2 18q2 14 11.5 19t23.5 5h64h8v75q0 20 12.5 29t27 8t26 -11t9.5 -29q-1 -18 -0.5 -36t0.5 -36q19 0 37.5 -0.5t37.5 0.5
q19 0 28 -12t8.5 -26t-10.5 -26t-30 -11q-17 1 -32.5 0.5t-31.5 -0.5h-7v-56h96q12 0 18 -9.5t6 -19.5v-18q0 -9 -6 -18.5t-18 -9.5z" />
    <glyph glyph-name="uni00B2" unicode="&#xb2;" horiz-adv-x="205" 
d="M149 320q-9 -5 -22 -5q-24 0 -46.5 4.5t-33.5 4.5q-4 0 -9 -1q-9 -1 -30 -9q-2 7 -2 11t-1 7q-1 4 -1 5q0 18 17.5 34t38.5 33.5t38.5 39t17.5 51.5q0 18 -13 25t-27 8q-6 1 -14.5 -5.5t-9.5 -7.5q-7 -5 -12 -10t-9 -8q-15 4 -20 9q-3 3 -3 5q0 4 5 15t15 23t26.5 21.5
t38.5 9.5q25 0 44.5 -13.5t30.5 -34.5q7 -12 7 -27q0 -14 -4.5 -27.5t-12.5 -25.5t-17 -21q-2 -2 -17 -16t-42 -38q6 -2 10 -2q5 0 8 -1q4 -1 7 -1q6 0 15 2q8 2 20 6t30 11q0 -20 -1.5 -40.5t-21.5 -31.5z" />
    <glyph glyph-name="uni00B3" unicode="&#xb3;" horiz-adv-x="205" 
d="M74 314q-7 0 -18.5 3t-22 8.5t-18 13.5t-7.5 18q0 11 7.5 18.5t15.5 9.5q11 2 19 -3t15 -11.5t12.5 -12.5t11.5 -6q4 0 14 10.5t10 31.5q0 20 -9 30t-30 10q-9 -1 -15 2q-7 6 -2 15.5t11 13.5q11 7 23.5 18.5t11.5 27.5q-1 14 -10 16.5t-11 2.5q-8 0 -15.5 -4t-12.5 -9
l-5 -4q-3 -2 -6 -4.5t-7 -4.5q-6 -2 -12 1.5t-6 12.5q0 14 7 25t18 18t23.5 10.5t24.5 3.5q27 0 47 -15t20 -43q0 -17 -7 -26.5t-18 -18.5l-3 -3q5 -6 9 -10t6 -7q3 -4 4 -6q5 -7 12 -22t7 -31q0 -8 -4.5 -21.5t-15.5 -26t-29 -22t-45 -9.5z" />
    <glyph glyph-name="acute" unicode="&#xb4;" horiz-adv-x="314" 
d="M301 495q-66 -31 -136 -49q-9 -3 -16.5 -0.5t-10.5 8t-1 13.5t12 15q16 11 35 22t36 22q19 11 38 19.5t39 17.5q5 3 9.5 2.5t6.5 -1.5q1 -1 4.5 -4t1.5 -9q-5 -29 -7.5 -38t-3.5 -10q-2 -2 -5 -4q-2 -2 -4 -3l-4 -2z" />
    <glyph glyph-name="mu" unicode="&#xb5;" horiz-adv-x="401" 
d="M250 244q-7 -3 -14.5 -7t-14.5 -4.5t-13.5 3t-12.5 13.5q-3 17 5.5 22.5t19.5 11.5q24 9 47 19.5t48 16.5q8 -5 12.5 -10.5t6.5 -17.5q-4 -56 -4 -116v-121h2q5 2 9 3.5t9 2.5q12 4 23.5 -2t8.5 -34q-31 -14 -60.5 -23.5t-63.5 -22.5q-6 10 -8 16.5t-2.5 12t0.5 11.5
t1 16q-26 -19 -51.5 -35.5t-60.5 -14.5v-7v-89h32q8 -2 12.5 -6t6.5 -9q3 -5 3 -12q0 -17 -9.5 -21.5t-13.5 -4.5h-141q-10 -1 -16 3.5t-8 9.5q-3 6 -3 13q0 10 4.5 16t9.5 8q6 3 13 3h30v210v8q0 7 -0.5 23.5t-1 44.5t-0.5 72q-11 -6 -20 -9.5t-23 0.5q-6 11 -9.5 20
t8.5 20l97 42q17 0 22 -10.5t4 -18.5q-2 -47 -2.5 -92.5t-0.5 -91.5q0 -31 13 -42t31.5 -9.5t39 11.5t35.5 22q-1 64 -0.5 101.5t0.5 54.5z" />
    <glyph glyph-name="mu" unicode="&#x3bc;" horiz-adv-x="401" 
d="M250 244q-7 -3 -14.5 -7t-14.5 -4.5t-13.5 3t-12.5 13.5q-3 17 5.5 22.5t19.5 11.5q24 9 47 19.5t48 16.5q8 -5 12.5 -10.5t6.5 -17.5q-4 -56 -4 -116v-121h2q5 2 9 3.5t9 2.5q12 4 23.5 -2t8.5 -34q-31 -14 -60.5 -23.5t-63.5 -22.5q-6 10 -8 16.5t-2.5 12t0.5 11.5
t1 16q-26 -19 -51.5 -35.5t-60.5 -14.5v-7v-89h32q8 -2 12.5 -6t6.5 -9q3 -5 3 -12q0 -17 -9.5 -21.5t-13.5 -4.5h-141q-10 -1 -16 3.5t-8 9.5q-3 6 -3 13q0 10 4.5 16t9.5 8q6 3 13 3h30v210v8q0 7 -0.5 23.5t-1 44.5t-0.5 72q-11 -6 -20 -9.5t-23 0.5q-6 11 -9.5 20
t8.5 20l97 42q17 0 22 -10.5t4 -18.5q-2 -47 -2.5 -92.5t-0.5 -91.5q0 -31 13 -42t31.5 -9.5t39 11.5t35.5 22q-1 64 -0.5 101.5t0.5 54.5z" />
    <glyph glyph-name="paragraph" unicode="&#xb6;" horiz-adv-x="396" 
d="M517 474q-16 -1 -27 -1.5t-18.5 -2t-12 -5t-6.5 -10.5l-151 -457h-66l156 472h-22l-156 -472h-66l84 256q-144 6 -103 131q21 63 68.5 94t127.5 31h204l-12 -36v0z" />
    <glyph glyph-name="periodcentered" unicode="&#xb7;" horiz-adv-x="113" 
d="M1 182q0 6 1 9t2 5q1 1 8 4.5t30 13.5q5 2 8 0l4 -2q2 -1 3 -3l2 -4t0 -5v-37q-1 -8 -5 -12q-1 0 -7 -2.5t-29 -10.5q-5 -2 -8 0q-2 1 -3 1q-1 1 -3.5 2.5t-4.5 6.5v39l2 -5v0z" />
    <glyph glyph-name="periodcentered" unicode="&#x22c5;" horiz-adv-x="113" 
d="M1 182q0 6 1 9t2 5q1 1 8 4.5t30 13.5q5 2 8 0l4 -2q2 -1 3 -3l2 -4t0 -5v-37q-1 -8 -5 -12q-1 0 -7 -2.5t-29 -10.5q-5 -2 -8 0q-2 1 -3 1q-1 1 -3.5 2.5t-4.5 6.5v39l2 -5v0z" />
    <glyph glyph-name="cedilla" unicode="&#xb8;" horiz-adv-x="502" 
d="M205 -87q5 1 9 1.5t9 0.5q19 0 25 -9.5t1.5 -21.5t-18 -21.5t-34.5 -9.5q-9 0 -18 2t-17 5l-10 -12q11 -5 22.5 -6t25.5 -1q13 0 27 2.5t26.5 8.5t22.5 16t14 24q7 19 -3.5 28t-30.5 9q-8 0 -15.5 -1t-15.5 -2l33 44l3 5l8 -7l-3 -4l-19 -25h9q32 0 42 -17t1.5 -37.5
t-34.5 -37.5t-65 -17q-20 0 -33.5 3t-30.5 12l22 27q21 -8 39 -8q14 0 26 5.5t17 20.5q6 15 -17 15q-6 0 -12 -1t-13 -1l-11 6q13 16 18.5 22.5t7 8.5t1 1.5t1 1t7 8t18.5 22.5l8 -6l-43 -54v0z" />
    <glyph glyph-name="uni00B9" unicode="&#xb9;" horiz-adv-x="162" 
d="M27 543q-26 -10 -25 24q16 5 31 12t32 10l4 -23v-199h6q10 0 14 -8q2 -4 2 -9q1 -5 -1 -9t-4.5 -7t-10.5 -3h-58q-10 0 -14 9q-2 4 -2 9t2 9q4 9 13 9h11v176v0z" />
    <glyph glyph-name="ordmasculine" unicode="&#xba;" horiz-adv-x="201" 
d="M232 220q-13 -9 -29 -15.5t-32 -8t-31.5 2.5t-28.5 17q-17 18 -19 38t6 43t23.5 44t39.5 35q18 10 38 15.5t39 0.5q20 -6 34.5 -22t16.5 -39q2 -26 -12 -58t-45 -53zM216 349q-8 4 -23 0.5t-25 -16.5q-23 -30 -17 -65q1 -5 4.5 -14.5t8.5 -12.5q4 -2 9 -2h10
q30 8 41 32.5t6 52.5q-3 17 -14 25z" />
    <glyph glyph-name="guillemotright" unicode="&#xbb;" horiz-adv-x="264" 
d="M234 165l-57 -74q-6 -8 -18 -8.5t-21 -0.5h-17q-11 0 -15.5 5t-4.5 8q0 7 7 10l64 71l-64 72q-7 4 -7 10q0 3 4.5 8t15.5 5h17q9 0 21 -1t18 -9l57 -73l1 -1q6 -4 6 -11q0 -6 -6 -11h-1zM137 165l-57 -74q-6 -8 -18 -8.5t-21 -0.5h-17q-11 0 -15.5 5t-4.5 8q0 7 7 10
l64 71l-64 72q-7 4 -7 10q0 3 4.5 8t15.5 5h17q9 0 21 -1t18 -9l57 -73l1 -1q6 -4 6 -11q0 -6 -6 -11h-1z" />
    <glyph glyph-name="onequarter" unicode="&#xbc;" horiz-adv-x="506" 
d="M396 129v-42h9q8 -1 11 -4.5t5 -6.5q2 -4 2 -8q0 -12 -7.5 -15.5t-10.5 -3.5h-71q-8 0 -11.5 3.5t-5.5 7.5q-3 4 -3 10q3 8 6.5 11t6.5 5q4 2 7 1h11v41h-83q-11 0 -13 10q-1 4 0 9t4 8t16 21q11 15 35 47t68 90q3 6 7 7q3 1 5 1q4 1 8 -1q7 -3 4 -14v-136h31
q11 -5 14 -12q2 -4 1 -7q0 -8 -4.5 -15t-13.5 -7h-28zM111 6q-5 -11 -16 -16.5t-21 -5.5h-18q-15 0 -19.5 10t0.5 21l249 604q5 11 16.5 17t20.5 6h18q15 0 19.5 -10.5t-0.5 -21.5l-249 -604v0zM32 543q-14 -5 -22.5 0t-7.5 25q20 6 38 12.5t38 10.5l4 -25v-209h8
q11 0 16 -9q3 -4 3 -9q1 -6 -1 -10q-4 -10 -18 -10h-70q-13 0 -17 10q-2 4 -2 9t2 9q4 10 16 10h13v186v0zM323 170h22v32z" />
    <glyph glyph-name="onehalf" unicode="&#xbd;" horiz-adv-x="506" 
d="M411 47q-6 -3 -12.5 -4t-11.5 -1q-26 0 -50.5 5t-35.5 5q-4 0 -10 -1q-11 -2 -32 -10q-2 8 -3 12.5t-1 7.5v4q0 19 19 35.5t41.5 35.5t41 42t18.5 54q0 19 -13.5 26t-29.5 9q-6 0 -15.5 -6.5t-11.5 -7.5q-7 -6 -12 -11t-9 -8q-18 4 -23 9q-3 3 -3 5q0 4 5.5 16t16.5 24.5
t28.5 22.5t41.5 10q27 0 48 -14t33 -37q7 -13 7 -28q0 -14 -4.5 -28.5t-13 -27.5t-18.5 -22q-2 -2 -18 -16.5t-46 -39.5q7 -2 11.5 -2.5t8.5 -1.5t8 -1q5 0 15 3q8 2 21.5 6t33.5 11v-21t-2 -21.5t-7 -19t-16 -14.5zM111 6q-5 -11 -16 -16.5t-21 -5.5h-18q-15 0 -19.5 10
t0.5 21l249 604q5 11 16.5 17t20.5 6h18q15 0 19.5 -10.5t-0.5 -21.5l-249 -604v0zM32 543q-14 -5 -22.5 0t-7.5 25q20 6 38 12.5t38 10.5l4 -25v-209h8q11 0 16 -9q3 -4 3 -9q1 -6 -1 -10q-4 -10 -18 -10h-70q-13 0 -17 10q-2 4 -2 9t2 9q4 10 16 10h13v186v0z" />
    <glyph glyph-name="threequarters" unicode="&#xbe;" horiz-adv-x="540" 
d="M450 129v-42h9q8 -1 11 -4.5t5 -6.5q2 -4 2 -8q0 -12 -7.5 -15.5t-10.5 -3.5h-72q-8 0 -11.5 3.5t-5.5 7.5q-3 4 -3 10q3 8 6.5 11t6.5 5q4 2 7 1h12v41h-85q-10 0 -12 10q-1 4 0 9t4 8t16 21q11 15 35 47t68 90q3 6 7 7q3 1 5 1q4 1 8 -1q8 -4 5 -14v-136h30
q7 -3 9.5 -6t4.5 -6q2 -4 1 -7q0 -8 -4 -15t-13 -7h-28zM163 6q-5 -11 -16.5 -16.5t-20.5 -5.5h-18q-15 0 -19.5 10t0.5 21l250 604q5 11 16.5 17t20.5 6h18q15 0 19.5 -10.5t-0.5 -21.5l-250 -604v0zM80 302q-8 0 -20.5 3.5t-24 9.5t-19.5 14.5t-8 18.5q0 12 8 19.5t17 9.5
q12 2 21.5 -3t16.5 -12t13.5 -13t12.5 -6q4 0 15 10.5t11 33.5q0 20 -10 30.5t-33 11.5q-11 -2 -16 2q-8 6 -2.5 16t11.5 14q13 8 26.5 20t12.5 29q0 7 -3.5 11t-7.5 6t-7.5 2.5t-4.5 0.5q-8 0 -16.5 -4.5t-14.5 -9.5l-5 -4q-3 -2 -6.5 -5t-8.5 -5q-6 -2 -12.5 2t-6.5 14
q0 15 7.5 26t19.5 18.5t26 11t27 3.5q30 0 51.5 -16t21.5 -45q0 -17 -7 -27t-20 -20l-4 -3l10.5 -10.5t6.5 -7.5q3 -4 4 -6q5 -8 13 -24t8 -32q0 -9 -5 -23t-17 -27.5t-32 -23.5t-49 -10zM377 170h22v32z" />
    <glyph glyph-name="questiondown" unicode="&#xbf;" horiz-adv-x="344" 
d="M313 460q0 -2 -4 -10q-2 -4 -3 -7q-1 0 -11 -4.5t-45 -16.5q-6 -2 -11 0q-3 1 -4 3q-2 2 -4 6.5t1 10.5l14 47l3 6t3 4t3 2q2 1 8 3q5 2 15.5 5t27.5 8q5 2 11 0q3 -1 4 -2q2 -1 4 -3q4 -3 5 -11l-16 -48l-1 7v0zM248 247q-3 -10 -8.5 -15t-13.5 -10q-4 -2 -22 -11.5
t-41 -25.5q-22 -15 -40 -35t-25 -43q-5 -17 -0.5 -26t12 -13.5t15.5 -5.5t10 -1q26 0 49 12.5t43 26.5q7 5 14.5 9t15.5 7t12 0t5.5 -8t0.5 -11.5t-3 -11.5q-9 -24 -31 -42q-9 -7 -22 -16.5t-30.5 -17.5t-40 -14t-50.5 -6q-46 0 -71 17.5t-31.5 43t4.5 55.5t38 54
q17 16 29.5 26.5t35.5 24.5q36 23 48.5 31t14.5 10q5 7 7.5 16t6.5 17l15 46q3 7 6 10q2 2 3 2q2 1 8 3q5 2 15 5t28 8q5 2 11 0q3 -1 4 -2q2 -1 4 -3q4 -3 5 -11l-16 -48z" />
    <glyph glyph-name="Agrave" unicode="&#xc0;" 
d="M502 535q-7 -8 -16 -9.5t-18.5 1t-18 7.5t-16.5 8q-40 17 -74 42q-8 4 -6 15l4 8q2 5 7 16.5t14 30.5l3.5 3.5l3.5 3.5t4 3q1 0 6 1t10 -4q14 -11 28.5 -20.5t26.5 -23.5q9 -11 23 -26t22 -26q7 -11 4.5 -18t-7.5 -12zM324 0q-8 2 -12 7.5t-5 10.5q-1 6 1 14q4 8 8 12.5
t9 6.5q5 3 10 2h71l-1 128h-161l-95 -128h61q10 0 13.5 -4.5t4.5 -9.5q1 -6 -1 -15q-3 -9 -7 -13.5t-9 -6.5q-5 -3 -11 -3h-26q-17 0 -51.5 0.5t-96.5 -0.5q-11 0 -15 4.5t-5 10.5q-1 7 1 15q3 9 8 13.5t10 6.5q5 3 11 2h49l326 437q8 6 15 10q4 2 5 3q7 3 12 5t10 2
q10 0 21 -6.5t16 -16.5q2 -5 5 -16.5t3 -16.5v-52v-48t0.5 -71t0.5 -99v-131h58q11 0 15 -4.5t5 -9.5q1 -6 -1 -15q-2 -6 -6 -11t-9.5 -8.5t-13.5 -4.5h-223zM288 240h116l-1 155z" />
    <glyph glyph-name="Aacute" unicode="&#xc1;" 
d="M589 583q-35 -17 -72.5 -31.5t-75.5 -25.5q-10 -3 -18 0t-11.5 9.5t-1.5 15t13 17.5q17 14 38.5 26.5t39.5 24.5q20 13 41 22.5t43 20.5q5 4 9.5 3t6.5 -2t5.5 -4.5t1.5 -11.5q-6 -33 -8.5 -43t-2.5 -12q-2 -2 -5 -4q-2 -2 -4.5 -3.5t-4.5 -2.5zM325 0q-9 2 -12.5 7.5
t-4.5 10.5q-1 6 1 14q4 8 8 12.5t9 6.5q5 3 10 2h71l-1 128h-162l-95 -128h61q10 0 13.5 -4.5t4.5 -9.5q1 -6 0 -15q-3 -9 -7.5 -13.5t-9.5 -6.5q-5 -3 -11 -3h-26q-17 0 -51.5 0.5t-96.5 -0.5q-11 0 -15 4.5t-5 10.5q-1 7 1 15q3 9 8 13.5t10 6.5q5 3 11 2h49l327 437
q8 6 15 10q4 2 5 3q7 3 12 5t10 2q10 0 21 -6.5t16 -16.5q2 -5 5 -16.5t3 -16.5v-52v-48t0.5 -71t0.5 -99v-131h58q11 0 15 -4.5t5 -9.5q1 -6 -1 -15q-2 -6 -6 -11t-9.5 -8.5t-13.5 -4.5h-223zM288 240h117l-1 155z" />
    <glyph glyph-name="Acircumflex" unicode="&#xc2;" 
d="M551 538q-2 -5 -6.5 -11t-13.5 -6q-8 0 -17.5 11t-17.5 24.5t-14 24.5t-6 12l-87 -65q-7 -7 -15 -7q-9 0 -12 5t-2.5 12t3.5 14.5t4 11.5q5 15 19.5 30t31.5 28.5t33 23.5t22 15q10 8 21 8q14 0 21 -11q6 -10 15 -21.5t16.5 -24.5t11.5 -27t-1 -28l-6 -19v0zM324 0
q-8 2 -12 7.5t-5 10.5q-1 6 1 14q4 8 8 12.5t9 6.5q5 3 10 2h71l-1 128h-161l-95 -128h61q10 0 13.5 -4.5t4.5 -9.5q1 -6 -1 -15q-3 -9 -7 -13.5t-9 -6.5q-5 -3 -11 -3h-26q-17 0 -51.5 0.5t-96.5 -0.5q-11 0 -15 4.5t-5 10.5q-1 7 1 15q3 9 8 13.5t10 6.5q5 3 11 2h49
l326 437q11 9 15 11t5 3q7 2 12 4t10 2q10 0 21 -6.5t16 -15.5q2 -5 5 -17t3 -17v-52v-48t0.5 -71t0.5 -99v-131h58q11 0 15 -4.5t5 -9.5q1 -6 -1 -15q-2 -6 -6 -11t-9.5 -8.5t-13.5 -4.5h-223zM288 240h116l-1 155z" />
    <glyph glyph-name="Atilde" unicode="&#xc3;" 
d="M669 588q-10 -10 -23 -20t-26.5 -18t-28.5 -13t-30 -5h-4q-21 1 -39 9t-34.5 17.5t-32.5 17.5t-32 8t-29 -7.5t-23 -17t-18.5 -17t-15.5 -7.5t-11 4t-6 7l-3 5q-6 10 -5.5 17.5t5 14t11.5 12.5l14 12q21 18 43.5 29.5t51.5 11.5q20 0 38 -8t34.5 -17.5t32.5 -17.5t32 -8
q2 0 5 1q3 -1 4 -1q8 0 17 4.5t16.5 10t12.5 10.5l5 5q6 5 11.5 11.5t14.5 6.5q10 0 16 -6.5t7.5 -15.5t-1 -18.5t-9.5 -16.5zM326 0q-9 2 -12.5 7t-4.5 10q-1 6 1 14q4 9 8 13.5t9 6.5q5 3 10 2h71l-1 128h-162l-95 -128h61q10 0 13.5 -4.5t4.5 -9.5q1 -6 0 -15
q-3 -9 -7.5 -13.5t-9.5 -6.5q-5 -3 -11 -3h-26q-17 0 -52 0.5t-97 -0.5q-11 0 -15 4.5t-5 10.5q-1 7 1 15q3 8 8 12.5t10 6.5q5 3 11 3h50l327 437q8 6 15 10l6 3q12 6 22 6t21 -6.5t16 -15.5q2 -5 5 -17t3 -17v-51v-48t0.5 -71t0.5 -99v-131h58q11 0 15.5 -4.5t5.5 -9.5
q1 -6 -1 -15q-3 -6 -7 -11t-9 -8.5t-13 -4.5h-225zM289 240h118l-2 154z" />
    <glyph glyph-name="Adieresis" unicode="&#xc4;" 
d="M578 570q-1 -2 -3 -5q-3 -5 -12 -8l-53 -16q-14 0 -16 18q6 20 9.5 31t5.5 16l3 7q3 4 12 8t20 7t21 6t14 4q5 2 9 1t6.5 -4.5t1.5 -12.5l-18 -52v0zM443 570q-1 -2 -3 -5q-3 -5 -12 -8l-53 -16q-14 0 -16 18q6 20 9.5 31t5.5 16l3 7q3 4 12 8t19.5 7t20.5 6t14 4
q5 2 9 1t6.5 -4.5t1.5 -12.5l-17 -52v0zM325 0q-9 2 -12.5 7t-4.5 10q-1 6 0 14q4 9 8.5 13.5t9.5 6.5q5 3 10 2h70l-1 127h-161l-95 -127h61q10 0 13.5 -4.5t4.5 -9.5q1 -6 0 -15q-3 -9 -7.5 -13.5t-9.5 -6.5q-5 -3 -11 -3h-26q-17 0 -51.5 0.5t-96.5 -0.5q-11 0 -15 4.5
t-5 10.5q-1 7 1 15q3 8 8 12.5t10 6.5q5 3 11 3h49l326 437q8 6 15 10q4 2 5 3q7 2 12 4t10 2q11 0 22 -6.5t16 -15.5q2 -5 4.5 -17t2.5 -17q1 -7 1 -52v-348h58q11 0 15.5 -4.5t5.5 -9.5q1 -6 -1 -15q-2 -6 -6 -11t-9.5 -8.5t-13.5 -4.5h-223zM288 239h117l-1 155z" />
    <glyph glyph-name="Aring" unicode="&#xc5;" 
d="M451 487q-25 0 -39 11.5t-17.5 28.5t2 37.5t19 37.5t34 28.5t45.5 11.5q26 0 39.5 -11.5t17 -28.5t-2 -37.5t-19 -37.5t-33.5 -28.5t-46 -11.5zM324 0q-15 4 -17 17q-1 6 1 14q4 9 8 13.5t9 6.5q5 3 10 2h71l-1 128h-161l-95 -128h61q10 0 13.5 -4.5t4.5 -9.5
q1 -6 -1 -15q-3 -9 -7 -13.5t-9 -6.5q-5 -3 -11 -3h-26q-17 0 -51.5 0.5t-96.5 -0.5q-11 0 -15 4.5t-5 10.5q-1 7 1 15q3 8 8 12.5t10 6.5q5 3 11 3h49l326 437q8 6 15 10q4 2 5 3q14 6 22 6q10 0 21 -6.5t16 -15.5q2 -5 5 -17t3 -17v-52v-48t0.5 -71t0.5 -99v-130h58
q11 0 15 -4.5t5 -9.5q1 -6 -1 -15q-2 -6 -6 -11t-9.5 -8.5t-13.5 -4.5h-223zM487 596q-15 0 -27.5 -10t-17.5 -22t-2 -22t18 -10t27.5 10t18 22t2 22t-18.5 10zM288 239h116l-1 155z" />
    <glyph glyph-name="AE" unicode="&#xc6;" horiz-adv-x="898" 
d="M981 404q-3 -9 -11 -15t-18 -6q-7 0 -12 4t-8 9.5t-6 12t-8 11.5t-12.5 11t-15.5 9q-10 4 -24.5 8.5t-25.5 4.5h-61h-111l-73 -214h139q2 7 5.5 20t9 26t14 22.5t21.5 9.5q9 0 14 -4q5 -3 8 -9t0 -17l-57 -168q-4 -8 -9.5 -12.5t-10.5 -6.5q-6 -3 -12 -3q-8 0 -14 4
q-5 3 -8 9t1 17l18 52h-139l-44 -128h178q17 0 26 3q5 2 10 3q21 6 35.5 13t26.5 15.5t23.5 19t26.5 24.5q14 14 31 14q12 0 16 -9.5t1 -19.5q-1 -3 -6.5 -11.5t-14 -19.5t-17.5 -23.5t-17.5 -23t-14.5 -18t-8 -9.5q-9 -7 -12 -8t-5 -2h-141h-322h-3q-12 0 -16.5 4.5
t-6.5 10.5q-2 7 1 15q3 6 7 11q9 11 25 11h3h79l44 128h-164l-142 -128h49q12 0 16.5 -4.5t5.5 -10.5q1 -7 -1 -15q-3 -6 -7 -11q-9 -11 -23 -11h-181q-12 0 -17 4.5t-7 10.5q-2 7 1 15q3 6 7 11q9 11 25 11h60l495 443q17 9 28 13t31 5h61h122q37 -1 51.5 -1.5t18.5 -0.5
q6 1 17 1h13t4 0.5t5 0.5q7 0 14 -3.5t10 -10.5q2 -4 2 -11v-16q0 -8 0.5 -15.5t1.5 -12.5q3 -9 5.5 -19.5t-0.5 -19.5zM500 239l52 155l-170 -155h118z" />
    <glyph glyph-name="Ccedilla" unicode="&#xc7;" horiz-adv-x="502" 
d="M198 -41q36 -1 48 -22t2.5 -46t-38.5 -45.5t-75 -20.5q-22 0 -38 3.5t-41 16.5l32 40q14 -6 25.5 -8.5t18.5 -2.5q33 0 41 25q1 3 0 6t-13 3q-6 0 -12.5 -0.5t-15.5 -1.5l-19 11l43 55q-42 5 -76.5 23t-54.5 50t-25 72t3 82.5t28.5 85t51.5 81.5q24 31 54.5 57t64 46
t69.5 32t71 15t63.5 -5.5t60.5 -16.5q10 -2 21 -3.5t29 -1.5q2 -37 2.5 -67.5t-10.5 -66.5q-11 -12 -25 -14.5t-21 6.5q-10 23 -23 44.5t-30 36.5t-39.5 21.5t-51.5 0.5q-26 -5 -52.5 -20t-49.5 -35.5t-42.5 -45t-32.5 -48.5q-37 -69 -33.5 -130.5t45.5 -97.5
q26 -23 72.5 -24t94.5 22q21 10 43 25t42 31q11 5 23.5 0t10.5 -23q-17 -27 -43.5 -49.5t-58 -39.5t-65 -27.5t-64.5 -14.5l-10 -14v0z" />
    <glyph glyph-name="Egrave" unicode="&#xc8;" horiz-adv-x="535" 
d="M481 535q-7 -8 -16 -9.5t-18.5 1t-18.5 7.5t-17 8q-40 17 -74 42q-8 5 -6 15l4 8q5 11 22 47q1 2 2.5 3.5l3.5 3.5t4 3q1 0 6 1t10 -4q14 -11 29 -20.5t27 -23.5q8 -11 22 -26t22 -26q7 -11 5 -18t-7 -12zM620 398q-4 -6 -10.5 -9.5t-13 -4t-12 3t-8.5 12.5
q-5 13 -16.5 25t-23.5 17q-9 4 -23.5 8t-25.5 4h-27q-17 0 -49.5 0.5t-89.5 -0.5l-52 -157h134q2 6 5 19.5t9 27.5t15 24.5t22 10.5q8 0 13 -4q5 -3 8 -8.5t0 -16.5l-56 -167q-2 -8 -7.5 -12.5t-10.5 -6.5q-6 -3 -12 -2q-8 0 -14 4q-5 3 -8 8.5t1 16.5l17 52h-134l-62 -186
h172q8 0 14 1t11 2l10 2q20 6 34 12.5t25.5 15t22.5 19t26 24.5q6 6 16.5 11t19.5 2q14 -5 12.5 -17t-7.5 -21q-1 -3 -12 -18t-24 -32t-23.5 -31.5t-12.5 -16.5q-7 -7 -12 -9q-3 -1 -4 -1h1h-55h-52h-76h-106h-140q-13 0 -17.5 5t-6.5 11q-2 7 1 16q3 7 7 12t10.5 8.5
t16.5 3.5h56l134 399h-49q-12 2 -17 7t-6 11q-1 7 1 15q5 8 10.5 12.5t10.5 6.5q6 3 12 2h46h276q14 0 22 0.5t13 0.5h7q5 1 15.5 1.5t12.5 0.5l3 1q8 2 16.5 -2t11.5 -12t2 -26.5t2 -28.5q4 -11 6.5 -23t-5.5 -23z" />
    <glyph glyph-name="Eacute" unicode="&#xc9;" horiz-adv-x="535" 
d="M515 583q-35 -17 -72 -31.5t-75 -25.5q-10 -3 -18 0t-12 9.5t-1.5 15t13.5 17.5q17 14 38 26.5t40 24.5q20 13 41 22.5t42 20.5q6 4 10.5 3t6.5 -2t5.5 -4.5t1.5 -11.5q-6 -33 -8.5 -43t-3.5 -12q-2 -2 -5 -4q-2 -2 -4.5 -3.5t-4.5 -2.5zM620 398q-8 -12 -23 -13.5
t-21 15.5q-5 13 -16.5 25t-23.5 17q-9 4 -23.5 8t-25.5 4h-27q-17 0 -49.5 0.5t-89.5 -0.5l-52 -157h134q2 6 5 19.5t9 27.5t15 24.5t22 10.5q8 0 13 -4q5 -3 8 -8.5t0 -16.5l-56 -167q-2 -8 -7.5 -12.5t-10.5 -6.5q-6 -3 -12 -2q-8 0 -14 4q-5 3 -8 8.5t1 16.5l17 52h-134
l-62 -186h172q8 0 14 1t11 2l10 2q20 6 34 12.5t25.5 15t22.5 19t26 24.5q6 6 16.5 11t19.5 2q14 -5 12.5 -17t-7.5 -21q-1 -3 -12 -18t-24 -32t-23.5 -31.5t-12.5 -16.5q-7 -7 -12 -9q-3 -1 -4 -1h1h-55h-52h-76h-106h-140q-13 0 -17.5 5t-6.5 11q-2 7 1 16q3 7 7 12
t10.5 8.5t16.5 3.5h56l134 399h-49q-12 2 -17 7t-6 11q-1 7 1 15q5 8 10.5 12.5t10.5 6.5q6 3 12 2h46h276q14 0 22 0.5t13 0.5h7q5 1 15.5 1.5t12.5 0.5l3 1q8 2 16.5 -2t11.5 -12t2 -26.5t2 -28.5q4 -11 6.5 -23t-5.5 -23z" />
    <glyph glyph-name="Ecircumflex" unicode="&#xca;" horiz-adv-x="535" 
d="M518 538q-2 -5 -6.5 -11t-12.5 -6t-17.5 11t-17.5 24.5t-14 24.5t-7 12l-87 -65q-7 -7 -15 -7q-9 0 -12 5t-2.5 12t3.5 14.5t4 11.5q5 15 19.5 30t32 28.5t33 23.5t21.5 15q11 8 22 8q5 0 11 -2.5t10 -8.5q6 -10 15 -21.5t16.5 -24.5t11.5 -27t-1 -28l-7 -19v0zM620 398
q-4 -6 -10.5 -9.5t-13 -4t-12 3t-8.5 12.5q-5 13 -16.5 25t-23.5 17q-9 4 -23.5 8t-25.5 4h-27q-17 0 -49.5 0.5t-89.5 -0.5l-52 -157h134q2 6 5 19.5t9 27.5t15 24.5t22 10.5q8 0 13 -4q5 -3 8 -8.5t0 -16.5l-56 -167q-2 -8 -7.5 -12.5t-10.5 -6.5q-6 -3 -12 -2q-8 0 -14 4
q-5 3 -8 8.5t1 16.5l17 52h-134l-62 -186h172q8 0 14 1t11 2l10 2q20 6 34 12.5t25.5 15t22.5 19t26 24.5q6 6 16.5 11.5t19.5 1.5q14 -5 12.5 -17t-7.5 -21q-1 -3 -12 -18t-24 -32t-23.5 -31.5t-12.5 -16.5q-7 -7 -12 -9q-3 -1 -4 -1h1h-55h-52h-76h-106h-140
q-13 0 -17.5 5t-6.5 11q-2 7 1 16q3 7 7 12t10.5 8.5t16.5 3.5h56l134 399h-49q-12 2 -17 7t-6 11q-1 7 1 15q5 8 10.5 12.5t10.5 6.5q6 3 12 2h322q14 0 22 0.5t13 0.5h7q5 1 15.5 1.5t12.5 0.5l3 1q8 2 16.5 -2t11.5 -12t2 -26.5t2 -28.5q4 -11 6.5 -23t-5.5 -23z" />
    <glyph glyph-name="Edieresis" unicode="&#xcb;" horiz-adv-x="535" 
d="M543 570q-1 -2 -3 -5q-3 -5 -12 -8l-54 -16q-14 0 -16 18q7 20 10.5 31t5.5 16l3 7q3 4 12 8t19.5 7t20.5 6t14 4q5 2 9 1t6.5 -4.5t1.5 -12.5l-17 -52v0zM407 570q-1 -2 -3 -5q-3 -5 -12 -8l-53 -16q-14 0 -16 18q6 20 9.5 31t5.5 16l3 7q3 4 12 8t19.5 7t20.5 6t15 4
q5 2 9 1q3 -1 5.5 -4.5t1.5 -12.5l-17 -52v0zM620 397q-8 -11 -23 -12.5t-21 15.5q-5 12 -16.5 24t-23.5 17q-9 4 -23.5 8.5t-25.5 4.5h-166l-52 -158h134q2 6 5 19.5t9 28t15 25t22 10.5q8 0 13 -4q5 -3 8 -9t0 -17l-56 -166q-2 -8 -7.5 -12.5t-10.5 -6.5q-6 -3 -12 -3
q-8 0 -14 4q-5 3 -8 9t1 17l17 51h-134l-62 -186h172q8 0 14 1t11 2l10 2q20 6 34 13t25.5 15.5t22.5 19t26 24.5q6 6 16.5 11t19.5 2q14 -5 12.5 -17t-7.5 -21q-1 -3 -12 -18t-24 -32t-23.5 -31.5t-12.5 -16.5q-7 -7 -12 -9q-3 -1 -4 -1h1h-55h-52h-76h-106h-140
q-13 0 -17.5 5t-6.5 11q-2 7 1 16q3 7 7 12t10.5 8.5t16.5 3.5h56l134 398h-49q-12 2 -17 7t-6 11q-1 7 1 15q5 8 10.5 12.5t10.5 6.5q6 3 12 2h322q14 0 22 0.5t13 0.5h7q5 1 15.5 2t12.5 1h3q8 2 16.5 -2t11.5 -12q2 -4 2 -11v-15t0.5 -15.5t1.5 -12.5q4 -11 6.5 -23.5
t-5.5 -23.5z" />
    <glyph glyph-name="Igrave" unicode="&#xcc;" horiz-adv-x="252" 
d="M349 535q-7 -8 -16 -9.5t-18 1t-17.5 7.5t-16.5 8q-40 17 -72 41q-8 5 -6 16l4 8q2 5 7 16.5t14 30.5q2 3 6 7q2 2 4 3q1 0 6 1t10 -4q14 -11 28.5 -20.5t25.5 -23.5q8 -11 22 -26t21 -26t5 -18t-7 -12zM310 454l-132 -404h37q12 0 16.5 -4.5t5.5 -9.5q1 -6 -1 -14
q-2 -6 -6 -10t-9.5 -7.5t-14.5 -5.5h-178q-11 0 -15.5 4.5t-6.5 10.5q-2 7 1 15t8 12t10 6q6 3 12 3h48l132 404h-40q-11 0 -16 5t-6 11q-1 7 1 15q3 6 7 11t9.5 8t14.5 3h176q12 0 16.5 -4.5t6.5 -9.5q2 -6 -1 -15q-3 -7 -7 -12t-10 -8.5t-14 -3.5h-44z" />
    <glyph glyph-name="Iacute" unicode="&#xcd;" horiz-adv-x="252" 
d="M415 583q-35 -17 -71.5 -31.5t-73.5 -25.5q-10 -3 -18 0t-11.5 9.5t-1.5 15t13 17.5q17 14 38 26.5t39 24.5q20 13 40.5 22.5t41.5 20.5q5 4 10 3t7 -2l4.5 -4.5t2.5 -11.5q-7 -33 -9 -43t-3 -12q-2 -2 -5 -4q-2 -2 -4.5 -3.5t-4.5 -2.5zM312 454l-133 -404h37
q12 0 16.5 -4.5t5.5 -9.5q1 -6 -1 -14q-1 -6 -5 -10q-3 -4 -9 -7.5t-15 -5.5h-180q-11 0 -15.5 4.5t-6.5 10.5q-2 7 1 15t8.5 12t10.5 6q6 3 12 3h47l133 404h-40q-11 0 -16 5t-6 11q-1 7 1 15q3 6 7 11t9.5 8t14.5 3h178q12 0 16.5 -4.5t5.5 -9.5q1 -6 -1 -15q-3 -7 -7 -12
t-9.5 -8.5t-13.5 -3.5h-45z" />
    <glyph glyph-name="Icircumflex" unicode="&#xce;" horiz-adv-x="252" 
d="M380 538q-2 -5 -6.5 -11t-12.5 -6t-17 11t-17.5 24.5t-14 24.5t-6.5 12l-84 -65q-7 -7 -16 -7t-11.5 5t-2 12t3 14.5t3.5 11.5q5 15 19.5 30t31.5 28.5t32.5 23.5t21.5 15q10 8 21 8q13 0 20 -11q6 -10 15 -21.5t16 -24.5t11 -27t-1 -28l-6 -19v0zM310 455l-132 -405h37
q12 0 16.5 -4.5t5.5 -9.5q1 -6 -1 -14q-2 -6 -6 -10t-9.5 -7.5t-14.5 -5.5h-178q-11 0 -15.5 4.5t-6.5 10.5q-2 7 1 15t8 12t10 6q6 3 12 3h48l132 405h-40q-11 0 -16 4.5t-6 10.5q-1 7 1 15q3 7 7 12t9.5 8t14.5 3h177q12 0 16.5 -4.5t5.5 -10.5q1 -7 -1 -15q-3 -6 -7 -11
t-9.5 -8.5t-14.5 -3.5h-44z" />
    <glyph glyph-name="Idieresis" unicode="&#xcf;" horiz-adv-x="252" 
d="M405 570q-1 -2 -3 -5q-3 -5 -12 -8l-52 -16q-14 0 -16 18q6 20 9.5 31t5.5 16l3 7q3 4 11.5 8t19 7t20.5 6t14 4q5 2 9 1t6.5 -4.5t1.5 -12.5l-17 -52v0zM271 570q0 -2 -2 -5q-3 -5 -12 -8l-53 -16q-13 0 -15 18q6 20 9.5 31t5.5 16l3 7q3 4 11.5 8t19 7t20.5 6t14 4
q5 2 9 1t6.5 -4.5t1.5 -12.5l-18 -52v0zM311 454l-132 -405h37q12 0 16.5 -4t5.5 -9q1 -6 -1 -14q-2 -6 -6 -10t-9.5 -7.5t-14.5 -5.5h-179q-11 0 -15.5 4.5t-6.5 10.5q-2 7 1 15t8.5 12t10.5 6q6 3 12 3h47l133 404h-40q-11 0 -16 4.5t-7 10.5q-2 7 1 15q3 7 7 12
q9 11 24 11h178q12 0 16.5 -4.5t6.5 -10.5q2 -7 -1 -15q-3 -6 -7 -11t-10 -8.5t-14 -3.5h-45z" />
    <glyph glyph-name="Eth" unicode="&#xd0;" horiz-adv-x="570" 
d="M452 51q-52 -29 -100.5 -40t-106.5 -11h-215q-12 0 -17 4.5t-6 10.5q-1 7 1 15q4 9 9.5 13.5t10.5 6.5q6 3 12 3h50l66 193h-43q-17 5 -19 18q-1 6 1 13q2 5 6 9q3 4 8.5 7.5t13.5 4.5h50l55 163h-36q-13 0 -18 5t-7 10q-2 6 1 14q4 9 10 13.5t11 6.5q6 3 13 3h209
q11 -1 33 -0.5t48 -2.5q37 -4 62.5 -16.5t48.5 -41.5q33 -41 38.5 -90.5t-11.5 -99.5q-18 -53 -48 -92.5t-59 -65.5q-34 -31 -71 -53zM509 428q-7 9 -21 17q-12 7 -33 12t-55 5h-73l-56 -164h58q11 -1 15.5 -5.5t5.5 -9.5q1 -6 -1 -13q-1 -6 -5 -10q-3 -4 -9 -8t-15 -6h-66
l-65 -193h66q17 0 36 4t36.5 10t31.5 12l21 9q6 3 24 15t39 33t41.5 50.5t33.5 66.5q13 38 16 65.5t0 48t-10 35t-15 26.5z" />
    <glyph glyph-name="Ntilde" unicode="&#xd1;" horiz-adv-x="560" 
d="M635 588q-10 -10 -23 -20t-26.5 -18t-28 -13t-29.5 -5h-5q-21 1 -39 9t-34.5 17.5t-32.5 17.5t-32 8t-29 -7.5t-23 -17t-18.5 -17t-15.5 -7.5t-11 4t-6 7l-3 5q-6 10 -5.5 17.5t5 14t11.5 12.5l14 12q21 18 43.5 29.5t51.5 11.5q20 0 38 -8t34.5 -17.5t32.5 -17.5t32 -8
q2 0 5 1q3 -1 5 -1q8 0 16.5 4.5t16 10t12.5 10.5t6 5q5 5 10.5 11.5t15.5 6.5t16 -6.5t7.5 -15.5t-1.5 -18.5t-10 -16.5zM553 455h-47q-11 2 -15.5 7t-5.5 10q-1 6 1 14q3 7 7 12t9.5 8t14.5 3h163q11 0 15 -4.5t6 -10.5q2 -7 -1 -15q-2 -9 -7.5 -14t-10.5 -7q-6 -3 -12 -3
h-53l-145 -432q-4 -8 -8 -12.5t-8 -6.5q-4 -3 -8 -2q-7 -1 -18 0.5t-17 6.5q-4 3 -10 15t-11.5 25t-9.5 24t-5 13l-43 108q-20 51 -39.5 99.5t-30.5 76.5l-107 -317h49q11 0 15 -4.5t5 -9.5q1 -6 -1 -15q-3 -6 -7 -11t-9 -8.5t-13 -3.5h-164q-12 0 -16.5 4.5t-6.5 10.5
q-2 7 1 15q4 8 9 12.5t10 6.5q6 3 12 3h54l135 404h-45q-12 0 -16.5 5t-6.5 10q-2 6 1 14q3 7 7 12q9 11 24 11h125l135 -350z" />
    <glyph glyph-name="Ograve" unicode="&#xd2;" horiz-adv-x="523" 
d="M392 535q-7 -8 -16 -9.5t-18.5 1t-18 7.5t-16.5 8q-38 16 -74 41q-8 5 -6 16l4 8q2 5 7 16.5t14 30.5q2 3 6 7q2 2 4 3q2 0 7 1t10 -4q14 -11 28.5 -20.5t26.5 -23.5q9 -11 23 -26t21 -26t5 -18t-7 -12zM450 63q-30 -30 -69 -49.5t-81.5 -28.5t-86 -6t-82.5 18
q-27 10 -49.5 29t-39 43t-26.5 51.5t-14 55.5q-3 83 34 157.5t103 127.5q31 25 70 41t80.5 21.5t82.5 -1.5t77 -28q29 -17 48.5 -40t33.5 -50q19 -45 21 -92t-9.5 -91.5t-35.5 -85t-57 -72.5zM262 451q-75 -45 -110.5 -122.5t-37.5 -165.5q-1 -34 16 -65t49 -47
q45 -17 90.5 -5t78.5 44q27 26 43.5 59t30.5 69q8 21 14 45.5t8.5 49t0.5 48t-11 43.5q-10 23 -30 38t-44.5 21.5t-50.5 3.5t-47 -16z" />
    <glyph glyph-name="Oacute" unicode="&#xd3;" horiz-adv-x="523" 
d="M508 583q-35 -17 -72 -31.5t-75 -25.5q-10 -3 -18 0t-11.5 9.5t-1.5 15t13 17.5q17 14 38 26.5t40 24.5q20 13 41 22.5t42 20.5q5 4 9.5 3t6.5 -2t5.5 -4.5t2.5 -11.5q-7 -33 -9.5 -43t-2.5 -12q-2 -2 -5 -4q-2 -2 -4.5 -3.5t-4.5 -2.5zM450 63q-30 -30 -69 -49.5
t-81.5 -28.5t-86 -6t-82.5 18q-27 10 -49.5 29t-39 43t-26.5 51.5t-14 55.5q-3 83 34 157.5t103 127.5q31 25 70 41t80.5 21.5t82.5 -1.5t77 -28q29 -17 48.5 -40t33.5 -50q19 -45 21 -92t-9.5 -91.5t-35.5 -85t-57 -72.5zM262 451q-75 -45 -110.5 -122.5t-37.5 -165.5
q-1 -34 16 -65t49 -47q45 -17 90.5 -5t78.5 44q27 26 43.5 59t30.5 69q8 21 14 45.5t8.5 49t0.5 48t-11 43.5q-10 23 -30 38t-44.5 21.5t-50.5 3.5t-47 -16z" />
    <glyph glyph-name="Ocircumflex" unicode="&#xd4;" horiz-adv-x="523" 
d="M464 538q-2 -5 -6.5 -11t-13.5 -6q-8 0 -17.5 11t-17.5 24.5t-14 24.5t-6 12l-86 -66q-8 -6 -16 -6q-9 0 -12 5t-2.5 12t3.5 14.5t4 11.5q5 14 19.5 29t32 28.5t33 24t21.5 15.5q11 8 22 8q13 0 20 -11q6 -10 15 -21.5t16.5 -24.5t11.5 -27t-1 -28l-6 -19v0zM450 63
q-30 -30 -69 -49.5t-81.5 -28.5t-86 -6t-82.5 18q-27 10 -49.5 29t-39 43t-26.5 51.5t-14 55.5q-3 83 34 157.5t103 127.5q31 25 70 41t80.5 21.5t82.5 -1.5t77 -28q29 -17 48.5 -40t33.5 -49q19 -46 21 -93t-9.5 -91.5t-35.5 -85t-57 -72.5zM262 451q-75 -45 -110.5 -122.5
t-37.5 -165.5q-1 -34 16 -65t49 -47q45 -17 90.5 -5t78.5 44q27 26 43.5 59t30.5 69q8 21 14 45.5t8.5 49t0.5 48t-11 44.5q-10 23 -30 38t-44.5 21t-50.5 3t-47 -16z" />
    <glyph glyph-name="Otilde" unicode="&#xd5;" horiz-adv-x="543" 
d="M543 588q-21 -20 -49.5 -38.5t-57.5 -17.5h-4q-21 1 -39 9t-34.5 17.5t-32 17.5t-31.5 8t-29 -7.5t-23 -17t-18.5 -17t-15.5 -7.5t-11 4t-6 7l-2 4q-6 10 -6 18t4.5 14.5t11.5 12.5l14 12q21 18 43.5 29.5t51.5 11.5q20 0 37.5 -8t34 -17.5t32 -17.5t31.5 -8q3 0 6 1
q2 -1 4 -1q8 0 16.5 4.5t16 10t12.5 10.5t6 5q5 5 10.5 11.5t14.5 6.5q10 0 16 -6.5t7.5 -15.5t-1 -18.5t-9.5 -16.5zM450 63q-30 -30 -69 -49.5t-81.5 -28.5t-86 -6t-82.5 18q-27 10 -49.5 29t-39 43t-26.5 51.5t-14 55.5q-3 83 34 157t103 127q31 25 70 41t80.5 21.5
t82.5 -1t77 -27.5q29 -17 48.5 -40.5t33.5 -49.5q19 -46 21 -93t-9.5 -91t-35.5 -84.5t-57 -72.5zM262 451q-37 -22 -65 -54t-46 -69.5t-27 -79.5t-10 -85q-1 -34 16 -65t49 -47q45 -17 90.5 -5t78.5 44q27 26 43.5 59t30.5 69q8 21 14 45.5t8.5 49t0.5 48t-11 43.5
q-10 23 -30 38t-44.5 21.5t-50.5 3.5t-47 -16z" />
    <glyph glyph-name="Odieresis" unicode="&#xd6;" horiz-adv-x="523" 
d="M530 570q-1 -2 -3 -5q-4 -6 -12 -9l-53 -15q-14 0 -16 18q7 20 10.5 30.5t5.5 15.5q3 6 3 8q3 4 12 8t19.5 7t20.5 6t14 4q5 2 9 1q3 -1 6 -4.5t2 -12.5l-18 -52v0zM395 570q-1 -2 -3 -5l-4.5 -4.5t-7.5 -4.5l-53 -15q-13 0 -16 18q7 20 10.5 30.5t5.5 15.5q3 6 3 8
q3 4 12 8t19.5 7t20.5 6t14 4q5 2 9 1t6.5 -4.5t1.5 -12.5l-18 -52v0zM474 81q-60 -56 -128 -81t-135 -21q-66 5 -105.5 49.5t-44.5 107.5q-3 35 6.5 74.5t28.5 78.5t47 75.5t63 64.5q64 52 136 74.5t134 6.5q22 -6 42 -18.5t36 -30.5t26.5 -40t13.5 -46q4 -36 -2 -74.5
t-21 -77t-39.5 -75t-57.5 -67.5zM362 447q-35 -3 -72.5 -27.5t-63.5 -57.5q-22 -28 -35.5 -60t-19.5 -63.5t-4 -61t9 -53.5q6 -19 17.5 -35.5t27.5 -27.5t37.5 -15.5t46.5 0.5q18 3 36.5 11t36 19.5t33 26.5t26.5 31q23 35 35 70t15.5 69t-1.5 66t-17 59q-12 28 -40 40
t-67 9z" />
    <glyph glyph-name="multiply" unicode="&#xd7;" horiz-adv-x="325" 
d="M210 106q-20 -10 -38 9q-21 23 -45 45l-5 5q-26 -27 -53 -53q-9 -9 -17 -10.5t-15 1.5t-13 9.5t-11 13.5q-8 12 -5 21.5t12 18.5q12 13 23 23.5t22 21.5l5 5q-13 14 -26 26.5t-26 25.5q-13 14 -11 28.5t12.5 24t26 10.5t27.5 -13q11 -13 24 -25t25 -24q14 13 26.5 25.5
l25.5 25.5q13 14 27.5 12t24 -12.5t10.5 -26t-13 -28.5q-12 -11 -23 -22l-22 -22l-4 -4q13 -13 25 -25.5t25 -24.5q19 -19 13.5 -34.5t-27.5 -26.5z" />
    <glyph glyph-name="Oslash" unicode="&#xd8;" horiz-adv-x="545" 
d="M575 459q18 -22 26.5 -48.5t9.5 -54t-4 -55.5t-14 -54q-19 -56 -54.5 -105t-82.5 -85.5t-103 -57.5t-116 -21q-23 0 -43.5 4t-41.5 15q-12 -14 -26 -27.5t-34 -13.5h-18q-17 0 -19.5 12.5t6.5 22.5l42 46q-36 45 -38 100.5t15 107.5t51 102t81 88q53 42 111 65t112 23
q24 0 47 -5t45 -18q11 12 23.5 23t30.5 11h18q17 0 19 -12.5t-7 -22.5zM388 454q-22 0 -44.5 -7t-42.5 -19t-37.5 -27.5t-30.5 -32.5q-19 -25 -33 -54.5t-21.5 -61t-7 -64t10.5 -62.5l1 -2l279 306q-25 24 -74 24zM218 69q14 -11 31 -18t39 -7t45.5 7.5t45 20.5t40 29
t30.5 34q34 52 47 112.5t-3 121.5l-275 -300v0z" />
    <glyph glyph-name="Ugrave" unicode="&#xd9;" horiz-adv-x="561" 
d="M527 535q-7 -8 -16 -9.5t-18.5 1t-18 7.5t-16.5 8q-38 16 -74 41q-8 5 -6 16l4 8q2 5 7 16.5t14 30.5q2 3 6 7q2 2 4 3q2 0 7 1t10 -4q14 -11 28.5 -20.5t26.5 -23.5q9 -11 23 -26t21 -26q8 -11 5.5 -18t-7.5 -12zM623 456l-91 -274q-10 -30 -18 -44.5t-10 -17.5
q-27 -50 -66.5 -76t-75.5 -39q-42 -15 -88 -17q-61 0 -95 17t-48.5 45.5t-12 64.5t14.5 73l89 267h-37q-12 0 -16.5 5t-5.5 11q-1 7 1 15q4 9 9 13.5t10 6.5q6 3 12 3h177q11 0 15 -4.5t5 -10.5q1 -7 -1 -15q-3 -6 -7 -11t-9 -8.5t-13 -3.5h-48q-12 -36 -29 -80.5
t-32.5 -89.5t-25.5 -87t-8 -74t20.5 -50t59.5 -16q23 -1 42 4t33 11q16 7 28 16q32 26 46.5 50.5t22.5 47.5l89 268h-32q-12 0 -16.5 4.5t-6.5 10.5q-2 7 1 15q3 6 7 11t10 8.5t14 4.5h147q10 -1 14 -6.5t5 -10.5q1 -6 -1 -14q-3 -6 -7 -11t-9 -8.5t-13 -3.5h-50z" />
    <glyph glyph-name="Uacute" unicode="&#xda;" horiz-adv-x="561" 
d="M578 583q-35 -17 -72 -31.5t-75 -25.5q-10 -3 -18 0t-12 9.5t-1.5 15t13.5 17.5q17 14 38 26.5t40 24.5q20 13 41 22.5t42 20.5q6 4 10.5 3t6.5 -2t5.5 -4.5t1.5 -11.5q-6 -33 -8.5 -43t-3.5 -12q-2 -2 -5 -4q-2 -2 -4.5 -3.5t-4.5 -2.5zM623 456l-91 -274
q-10 -30 -18 -44.5t-10 -17.5q-27 -50 -66.5 -76t-75.5 -39q-42 -15 -88 -17q-61 0 -95 17t-48.5 45.5t-12 64.5t14.5 73l89 267h-37q-12 0 -16.5 5t-5.5 11q-1 7 1 15q4 9 9 13.5t10 6.5q6 3 12 3h177q11 0 15 -4.5t5 -10.5q1 -7 -1 -15q-3 -6 -7 -11t-9 -8.5t-13 -3.5h-48
q-12 -36 -29 -80.5t-32.5 -89.5t-25.5 -87t-8 -74t20.5 -50t59.5 -16q23 -1 42 4t33 11q16 7 28 16q32 26 46.5 50.5t22.5 47.5l89 268h-32q-12 0 -16.5 4.5t-6.5 10.5q-2 7 1 15q3 6 7 11t10 8.5t14 4.5h147q10 -1 14 -6.5t5 -10.5q1 -6 -1 -14q-3 -6 -7 -11t-9 -8.5
t-13 -3.5h-50z" />
    <glyph glyph-name="Ucircumflex" unicode="&#xdb;" horiz-adv-x="561" 
d="M564 538q-2 -5 -6.5 -11t-13.5 -6q-8 0 -17.5 11t-17.5 24.5t-14 24.5t-6 12l-87 -66q-8 -6 -16 -6q-9 0 -12 5t-2 12t3.5 14.5t3.5 11.5q5 15 20 30t32 28.5t33 23.5t22 15q10 8 21 8q14 0 21 -11q6 -10 15 -21.5t16.5 -24.5t11.5 -27t-1 -28l-6 -19v0zM623 456
l-91 -274q-10 -30 -18 -44.5t-10 -17.5q-27 -50 -66.5 -76t-75.5 -39q-42 -15 -88 -17q-61 0 -95 17t-48.5 45.5t-12 64.5t14.5 73l89 267h-37q-12 0 -16.5 5t-5.5 11q-1 7 1 15q4 9 9 13.5t10 6.5q6 3 12 3h177q11 0 15 -4.5t5 -10.5q1 -7 -1 -15q-3 -6 -7 -11t-9 -8.5
t-13 -3.5h-48q-12 -36 -29 -80.5t-32.5 -89.5t-25.5 -87t-8 -74t20.5 -50t59.5 -16q23 -1 42 4t33 11q16 7 28 16q32 26 46.5 51t22.5 47l89 268h-32q-12 0 -16.5 4.5t-6.5 10.5q-2 7 1 15q3 6 7 11t10 9t14 5h147q10 -1 14 -6t5 -11q1 -7 -1 -15q-3 -6 -7 -11t-9 -8.5
t-13 -3.5h-50z" />
    <glyph glyph-name="Udieresis" unicode="&#xdc;" horiz-adv-x="561" 
d="M584 570q-1 -2 -3 -5q-4 -6 -12 -9l-53 -15q-14 0 -16 18q6 20 9.5 31t5.5 16l3 7q3 4 12 8t19.5 7t20.5 6t15 4q5 2 9 1q3 -1 5.5 -4.5t1.5 -12.5l-17 -52v0zM449 570q-1 -2 -3 -5q-4 -6 -12 -9l-53 -15q-14 0 -16 18q6 20 9.5 31t5.5 16l3 7q3 4 12 8t19.5 7t20.5 6
t14 4q5 2 9 1t6.5 -4.5t1.5 -12.5l-17 -52v0zM623 455l-91 -273q-10 -30 -18 -44.5t-10 -17.5q-27 -50 -66.5 -76t-75.5 -39q-42 -15 -88 -17q-61 0 -95 17t-48.5 45.5t-12 64.5t14.5 73l89 266h-37q-12 0 -16.5 5t-5.5 11q-1 7 1 15q4 9 9 13.5t10 6.5q6 3 12 3h177
q11 0 15 -4.5t5 -10.5q1 -7 -1 -15q-3 -6 -7 -11t-9 -8.5t-13 -3.5h-48q-12 -36 -29 -80t-32.5 -89t-25.5 -87t-8 -74t20.5 -50t59.5 -16q23 -1 42 4t33 11q16 7 28 16q32 26 46.5 50.5t22.5 47.5l89 267h-32q-12 0 -16.5 4.5t-6.5 10.5q-2 7 1 15q3 6 7 11t10 9t14 5h147
q10 -1 14 -6t5 -11q1 -7 -1 -15q-3 -6 -7 -11t-9 -8.5t-13 -3.5h-50z" />
    <glyph glyph-name="Yacute" unicode="&#xdd;" horiz-adv-x="508" 
d="M557 583q-35 -17 -72 -31.5t-75 -25.5q-10 -3 -18 0t-11.5 9.5t-1 15t13.5 17.5q17 14 37.5 26.5t39.5 24.5q20 13 41 22.5t42 20.5q5 4 9.5 3t6.5 -2t5.5 -4.5t1.5 -11.5q-6 -33 -8.5 -43t-2.5 -12q-2 -2 -5 -4q-2 -2 -4.5 -3.5t-4.5 -2.5zM552 456l-180 -196l-69 -209
h38q11 0 15.5 -4.5t6.5 -9.5q2 -6 -1 -14q-2 -6 -6 -10q-3 -4 -8.5 -8t-14.5 -6h-184q-10 2 -14 7t-5 10q-1 6 1 14q2 7 6 11t10 7t14 3h47l73 218l-45 186h-51q-11 0 -15 5t-5 11q-1 7 1 15q4 8 8.5 12t9.5 6q5 3 11 3h166q11 0 15 -4.5t5 -9.5q1 -6 -1 -15q-2 -6 -6 -11
t-9.5 -8t-14.5 -3h-26l32 -133l120 133h-28q-14 0 -19 8t-3 18t10.5 18t21.5 8h163q11 -1 15.5 -6t5.5 -10q1 -6 -1 -14q-2 -6 -6 -11q-9 -11 -23 -11h-60z" />
    <glyph glyph-name="Thorn" unicode="&#xde;" horiz-adv-x="417" 
d="M184 49h39q12 0 16.5 -4t5.5 -9q1 -6 -1 -14q-2 -6 -6 -10t-9.5 -7.5t-14.5 -5.5h-183q-12 0 -16.5 4.5t-6.5 10.5q-2 7 1 15t8.5 12t10.5 6q6 3 12 3h49l136 408h-41q-12 0 -16.5 4.5t-6.5 10.5q-2 7 1 15q3 7 7 12q9 11 25 11h182q12 0 17 -4.5t6 -9.5q1 -6 -2 -15
q-3 -7 -7 -12t-9.5 -8.5t-14.5 -3.5h-46l-10 -29q40 0 67.5 -7.5t45.5 -20t28 -28.5t14 -33q10 -40 -4 -91l-5.5 -13.5t-18 -33.5t-33 -43t-50.5 -43t-70 -33t-93 -13zM207 120q40 -1 73 18.5t56.5 48.5t35.5 62.5t8 62.5t-24.5 48.5t-62.5 18.5z" />
    <glyph glyph-name="germandbls" unicode="&#xdf;" horiz-adv-x="461" 
d="M421 317q45 -17 58 -57t-7 -99q-12 -36 -32.5 -67t-47 -54t-58 -36t-65.5 -13q-35 0 -54 11t-25.5 27.5t-2 36t16 36t28.5 27.5t36 11q11 0 20.5 -6t18.5 -22q-24 -28 -28 -43q-5 -14 -1.5 -17.5t8.5 -3.5q20 0 42 25t41 82q22 65 10 90.5t-43 25.5q-7 0 -17.5 -1.5
t-33.5 -6.5l8 56q53 11 86.5 39.5t46.5 66.5q13 37 1 55.5t-35 18.5q-32 0 -57.5 -26t-45.5 -84q-21 -62 -36.5 -112t-30.5 -95t-31 -88.5t-37 -93.5h-141l18 55h15q16 0 24.5 3.5t13.5 10.5t8.5 17.5t7.5 24.5l83 249q32 97 86.5 145t144.5 48q64 0 95.5 -33.5t13.5 -88.5
q-26 -73 -102 -114z" />
    <glyph glyph-name="agrave" unicode="&#xe0;" horiz-adv-x="382" 
d="M269 436q-7 -8 -15.5 -9t-17.5 1.5t-17.5 7t-16.5 7.5q-37 18 -72 42q-7 6 -6 15l4 8q2 5 7 16.5t14 30.5q2 3 6 7q2 2 4 3q1 0 6 0.5t10 -3.5q14 -11 28 -20.5t26 -23.5q8 -10 21.5 -25t21.5 -27q7 -11 4.5 -18t-7.5 -12zM194 41q-26 -24 -58 -37t-70 -2
q-37 20 -50.5 58.5t-11.5 78.5q2 32 14.5 61t33 53t46 43t52.5 30q14 6 32 7.5t37 -1.5t36 -11t28 -22l1 1q6 7 11 13.5t11.5 11t14.5 5t19 -4.5l8 -17q-23 -61 -39.5 -120t-34.5 -119q0 -3 4 -2q10 1 16.5 5.5t14 9.5t18 7.5t27.5 -1.5q-7 -23 -20 -39.5t-29 -27t-34 -16.5
t-35 -9q-15 3 -27 15.5t-14 27.5l-1 2v0zM161 270q-40 -34 -58.5 -82t-7.5 -98q4 -11 13.5 -17.5t20.5 -7.5q43 8 70 45q8 18 15.5 37t13 39t7 40.5t-3.5 40.5q-4 9 -13 13.5t-20 4.5q-10 0 -20 -3.5t-17 -11.5z" />
    <glyph glyph-name="aacute" unicode="&#xe1;" horiz-adv-x="382" 
d="M373 484q-35 -17 -71 -31t-73 -25q-10 -3 -18 0t-11.5 9t-1 14.5t13.5 17.5q17 14 37.5 26.5t38.5 24.5q20 13 40.5 22.5t41.5 20.5q5 4 9.5 3t6.5 -2t5.5 -5t1.5 -11q-6 -33 -8.5 -43t-3.5 -12q-2 -2 -5 -4q-2 -2 -4 -3l-4 -2h5zM196 41q-26 -24 -59 -37t-71 -2
q-37 20 -50.5 58.5t-11.5 78.5q2 32 15 61t33 53t46 43t53 30q14 6 32.5 7.5t37.5 -1.5t36 -11t28 -22l1 1q6 7 11 13.5t11.5 11t14.5 5t19 -4.5l8 -17q-23 -61 -39.5 -120t-34.5 -119q0 -3 4 -2q10 1 17 5.5t14.5 9.5t17.5 7.5t28 -1.5q-7 -23 -20 -39.5t-29.5 -27
t-34.5 -16.5t-35 -9q-16 3 -28 15.5t-14 27.5v2v0zM162 270q-40 -34 -59 -82t-8 -98q10 -23 35 -25q43 8 71 45q7 18 15 37t13 39t6.5 40.5t-3.5 40.5q-4 9 -13 13.5t-20 4.5q-10 0 -20 -3.5t-17 -11.5z" />
    <glyph glyph-name="acircumflex" unicode="&#xe2;" horiz-adv-x="382" 
d="M300 411q-2 -5 -6.5 -11t-12.5 -6t-17 11t-17.5 24t-14 24t-5.5 12l-85 -65q-8 -6 -15 -6q-9 0 -12 5t-2 12t3.5 14t3.5 11q5 15 19.5 30t31.5 28.5t32 23.5t21 15q11 7 21 7q13 0 20 -10q6 -10 15 -21.5t16 -24.5t11 -27t-1 -28l-6 -18v0zM194 41q-26 -24 -58 -37
t-70 -2q-37 20 -50.5 58.5t-11.5 77.5q2 32 14.5 61t33 53.5t46 43t52.5 30.5q14 6 32 7.5t37 -2t36 -11.5t28 -22l1 1q6 7 11 14t11.5 11t14.5 4.5t19 -4.5l8 -17q-23 -60 -39.5 -119.5t-34.5 -118.5q0 -3 4 -2q10 1 16.5 5.5t14 9.5t18 7.5t27.5 -1.5q-7 -23 -20 -39.5
t-29 -27t-34 -16.5t-35 -9q-15 3 -27 15.5t-14 27.5l-1 2v0zM161 269q-40 -33 -58.5 -81.5t-7.5 -98.5q4 -10 13.5 -16.5t20.5 -8.5q20 5 38 16t32 30q8 18 15.5 37t13 39t7 40t-3.5 40q-4 9 -13 13.5t-20 4.5q-10 0 -20 -3.5t-17 -11.5z" />
    <glyph glyph-name="atilde" unicode="&#xe3;" horiz-adv-x="334" 
d="M403 488q-9 -10 -20.5 -20t-24.5 -18t-26 -12.5t-27 -4.5h-3q-19 0 -35 8t-30.5 17.5t-27.5 17.5t-27 8t-25.5 -7.5t-21 -17l-17 -17t-14.5 -7.5t-10.5 4.5t-5.5 7.5l-2 5q-10 20 0 31t23 24q19 17 40 29t47 12q18 0 33.5 -8t29.5 -17.5t27.5 -17.5t27.5 -8q2 0 5 1
q2 -1 4 -1q14 0 28.5 14t23.5 24q8 10 17 10q10 0 15 -6.5t6.5 -15.5t-1.5 -19t-9 -16zM196 41q-26 -24 -58.5 -37t-70.5 -2q-38 20 -51.5 58.5t-11.5 77.5q2 32 15 61t33.5 53.5t46.5 43t53 30.5q14 6 32 7.5t37 -2t36 -11.5t28 -22l1 1q6 7 11.5 14t12 11t14.5 4.5
t19 -4.5l8 -17q-23 -60 -39.5 -119.5t-34.5 -118.5q0 -3 4 -2q10 1 17 5.5t14.5 9.5t17.5 7.5t28 -1.5q-7 -23 -20 -39.5t-29.5 -27t-35 -16.5t-35.5 -9q-15 3 -27 15.5t-14 27.5l-1 2v0zM162 269q-40 -33 -59 -81.5t-8 -97.5q10 -23 35 -26q21 5 39 16t32 30q8 18 15.5 37
t13 39t7 40t-3.5 40q-4 10 -13 14.5t-20 4.5q-10 0 -20.5 -4t-17.5 -12z" />
    <glyph glyph-name="adieresis" unicode="&#xe4;" horiz-adv-x="382" 
d="M318 469q-1 -2 -3 -5q-4 -6 -12 -9l-51 -15q-14 0 -16 18q6 20 9.5 30.5t5.5 15.5l3 7q3 4 11.5 8t19 7.5t20.5 6l14 3.5q5 2 9 1q8 -2 7 -16l-17 -52v0zM219 469q-1 -2 -3 -5q-4 -6 -12 -9l-51 -15q-14 0 -16 18q6 20 9.5 30.5t5.5 15.5l3 7q3 4 11.5 8t19 7.5t20.5 6
l14 3.5q5 2 9 1q8 -2 7 -16l-17 -52v0zM194 41q-26 -24 -58 -37t-70 -2q-37 20 -50.5 58.5t-11.5 77.5q2 32 14.5 61t33 53.5t46 43t52.5 30.5q14 6 32 7.5t37 -2t36 -11.5t28 -22l1 1q6 7 11 14t11.5 11t14.5 4.5t19 -4.5l8 -17q-23 -60 -39.5 -119.5t-34.5 -118.5
q0 -3 4 -2q10 1 16.5 5.5t14 9.5t18 7.5t27.5 -1.5q-7 -23 -20 -39.5t-29 -27t-34 -16.5t-35 -9q-15 3 -27 15.5t-14 27.5l-1 2v0zM161 269q-40 -33 -58.5 -81.5t-7.5 -98.5q4 -10 13.5 -16.5t20.5 -8.5q20 5 38 16t32 30q8 18 15.5 37t13 39t7 40t-3.5 40q-4 9 -13 13.5
t-20 4.5q-10 0 -20 -3.5t-17 -11.5z" />
    <glyph glyph-name="aring" unicode="&#xe5;" horiz-adv-x="334" 
d="M233 408q-37 0 -49 24t-4 53t33.5 53t62.5 24q25 0 38.5 -11.5t17 -28.5t-2 -37t-18.5 -37t-33 -28.5t-45 -11.5zM194 41q-26 -24 -58 -37t-70 -2q-37 20 -50.5 58.5t-11.5 78.5q2 32 14.5 61t33 53t46 42.5t52.5 30.5q14 6 32 7.5t37 -1.5t36 -11.5t28 -22.5l1 2
q6 7 11 13.5t11.5 11t14.5 5t19 -4.5l8 -18q-23 -60 -39.5 -119t-34.5 -119q0 -3 4 -2q10 1 16.5 5.5t14 9.5t18 7.5t27.5 -1.5q-7 -23 -20 -39.5t-29 -27t-34 -16.5t-35 -9q-15 3 -27 15.5t-14 27.5l-1 2v0zM269 517q-15 0 -27 -10t-17 -22t-2 -22t18 -10t26.5 10t17 22
t2.5 22t-18 10zM161 270q-40 -34 -58.5 -82.5t-7.5 -97.5q4 -11 13.5 -17.5t20.5 -7.5q43 8 70 45q8 18 15.5 37t13 39t7 40.5t-3.5 40.5q-4 9 -13 13.5t-20 4.5q-10 0 -20 -3.5t-17 -11.5z" />
    <glyph glyph-name="ae" unicode="&#xe6;" horiz-adv-x="510" 
d="M378 -2q-21 -6 -42 -6q-29 0 -58.5 8t-51.5 29q-26 25 -38 56.5t-12 65.5q0 30 9 60q7 22 22 41.5t34.5 33.5t42 22.5t46.5 8.5q45 0 79.5 -25t53.5 -60l11 -31q-53 -29 -103.5 -50t-98.5 -47q11 -23 29.5 -41t41.5 -18h1h4q3 -1 8 -1q14 0 26 8.5t23.5 19.5t22.5 22.5
t23 18.5q3 2 7 2q14 0 20 -19q-8 -37 -37 -63t-63 -35zM198 53q-23 -18 -46.5 -35.5t-55.5 -17.5q-26 3 -49.5 16.5t-34.5 39.5q-3 14 -3 28q0 16 5 30.5t17 25.5q33 29 73 43.5t85 16.5q1 6 1 11v10q0 18 -4.5 28t-19.5 19q-6 3 -14 3q-7 0 -13 -1t-13 -3t-11.5 -7.5
t-9.5 -10.5l-6 -8q-6 -8 -15 -15t-23 -7h-1q-13 2 -23 6t-10 21q0 19 16 31t31 20q18 7 38 11.5t40 4.5q17 0 33.5 -3t29.5 -11t22 -21t11 -33q3 -29 4 -57t1 -57v-13v-24v-24q0 -8 6.5 -11.5t12.5 -5.5l-3 -11q-10 3 -19 9.5t-9 18.5v24l1 24v13q0 29 -1.5 57t-3.5 56
q-2 18 -10 29t-20 17t-26 8.5t-29 2.5q-37 0 -73 -14q-11 -6 -26 -16.5t-15 -24.5q0 -11 7.5 -12.5t15.5 -3.5q10 0 16.5 5t12.5 13l6 8q6 7 12 12.5t15 9.5q8 2 14.5 3t14.5 1q13 0 20 -5q18 -11 23.5 -23.5t5.5 -32.5v-16t-1 -16q-46 -1 -86 -13.5t-75 -43.5
q-11 -9 -15 -21.5t-4 -26.5q0 -13 3 -25q9 -22 29.5 -33.5t43.5 -14.5q15 0 28.5 5.5t25.5 13.5t23.5 17.5t21.5 17.5l7 -8l-4 -4v0zM207 136q0 -6 -0.5 -14t-0.5 -25q-11 -8 -22.5 -19t-23.5 -21.5t-25.5 -18t-27.5 -7.5q-13 0 -23 5q-11 8 -19.5 20t-8.5 28v4q0 15 5 29
t19 25q26 16 56 27.5t71 15.5v-49v0zM349 253q-11 8 -27 8q-9 0 -18.5 -3t-17.5 -10q-14 -16 -21 -36t-7 -43q0 -7 1 -11q26 13 52.5 24t46.5 34q2 6 2 11q0 17 -11 26z" />
    <glyph glyph-name="ccedilla" unicode="&#xe7;" horiz-adv-x="331" 
d="M182 -25q23 0 43.5 -13.5t20.5 -42.5t-22 -47t-62 -18q-20 0 -34.5 2.5t-37.5 13.5l17 40q16 -6 27 -8.5t17 -2.5q15 0 20 5t5 13q0 5 -3 8t-14 3q-5 0 -10.5 -1t-13.5 -1l-18 9l25 49q-31 5 -59.5 21.5t-48.5 43.5q-26 34 -33.5 79t7.5 87q9 23 24.5 41.5t35 32t42 21.5
t44.5 10q71 6 136 -46q-1 -12 -5.5 -20.5t-9.5 -16t-11 -15t-12 -16.5q-12 6 -18 11.5t-10.5 10.5t-9 10.5t-12.5 11.5q-14 12 -35 15.5t-41 -1.5q-23 -6 -34.5 -29t-15.5 -49q-1 -29 7 -55t23.5 -45.5t38.5 -30t53 -9.5q9 2 19 8t20.5 13.5t20.5 15.5t19 13q11 -2 18 -10.5
t4 -18.5q-6 -21 -18.5 -35t-28 -24t-33 -15.5t-33.5 -8.5z" />
    <glyph glyph-name="egrave" unicode="&#xe8;" horiz-adv-x="314" 
d="M226 436q-7 -8 -15.5 -9t-17.5 1.5t-18 7t-16 7.5q-37 18 -72 42q-7 5 -5 15q0 2 3 8q2 5 7 16.5t14 30.5q2 3 6 7q2 2 4 3q2 0 6.5 0.5t9.5 -3.5q14 -11 28 -20.5t25 -23.5q8 -10 22 -25t21 -27q7 -11 4.5 -18t-6.5 -12zM299 101q0 -2 -2 -6q-2 -7 -8.5 -15.5
t-14.5 -17.5t-16 -16t-12 -11q-36 -28 -79 -40q-17 -2 -36 -1.5t-37.5 5t-35.5 14.5t-29 28q-27 32 -29.5 74t12 83t42 74.5t60.5 48.5q14 5 29.5 7.5t28.5 3.5q25 2 51 -4.5t46 -24.5q18 -16 26 -43.5t-8 -52.5q-18 -27 -42 -41t-51 -20t-56 -7t-56 -1q1 -7 4 -14t5 -13
q9 -16 23 -30t30 -16q22 -5 43.5 1t38.5 21q5 5 14.5 13.5t20 15t20.5 7.5t16 -10q3 -7 2 -12zM166 282q-25 0 -45.5 -20.5t-31.5 -46.5q-2 -8 -4.5 -16t-2.5 -16q14 0 33.5 2t38 7t33.5 14.5t21 25.5q6 19 -7 34.5t-35 15.5z" />
    <glyph glyph-name="eacute" unicode="&#xe9;" horiz-adv-x="314" 
d="M300 484q-35 -17 -70.5 -31t-72.5 -25q-9 -3 -17 0t-11.5 9t-1.5 14.5t13 17.5q17 14 37.5 26.5t37.5 24.5q20 13 40.5 22.5t40.5 20.5q5 4 9.5 3t6.5 -2t5.5 -5t1.5 -11q-6 -33 -8.5 -43t-2.5 -12q-2 -2 -5 -4q-6 -4 -9 -5h6zM300 101q0 -2 -0.5 -3t-0.5 -3
q-2 -7 -8.5 -15.5t-15 -17.5t-16 -16t-12.5 -11q-36 -28 -79 -40q-17 -2 -36 -1.5t-38 5t-36 14.5t-29 28q-27 32 -29.5 74t12 83t42.5 74.5t61 48.5q14 5 29 7.5t29 3.5q25 2 51 -4.5t46 -24.5q9 -8 16 -19.5t10 -24t1.5 -26.5t-9.5 -26q-18 -27 -42 -41t-51 -20t-56 -7
t-57 -1q1 -7 4.5 -14t5.5 -13q9 -16 23 -30t30 -16q22 -5 43.5 1t38.5 21q5 5 14.5 13.5t20 15t20.5 7.5t16 -10q3 -7 2 -12zM167 282q-25 0 -46 -20.5t-32 -46.5q-2 -8 -4.5 -16t-1.5 -16q14 0 33.5 2t38 7t33.5 14.5t21 25.5q6 19 -7.5 34.5t-34.5 15.5z" />
    <glyph glyph-name="ecircumflex" unicode="&#xea;" horiz-adv-x="314" 
d="M274 411q-2 -5 -6.5 -11t-12.5 -6q-7 0 -16.5 11t-17.5 24t-13.5 24t-5.5 12l-84 -65q-8 -6 -15 -6q-9 0 -11.5 5t-2 12t3 14t3.5 11q5 15 19.5 30t31 28.5t31.5 23.5t21 15q11 7 21 7q13 0 20 -10q6 -10 14.5 -21.5t15.5 -24.5t11 -27t-1 -28l-6 -18v0zM299 101
q0 -2 -2 -6q-2 -7 -8.5 -15.5t-14.5 -17.5t-16 -16t-12 -11q-36 -28 -79 -40q-17 -2 -36 -1.5t-37.5 5t-35.5 14.5t-29 28q-18 21 -25 47t-5 54t12 55.5t25.5 51.5t35.5 42.5t42 28.5q14 6 29.5 8.5t28.5 3.5q25 2 51 -5t46 -24q18 -16 26 -43.5t-8 -52.5q-18 -27 -42 -41.5
t-51 -20.5t-56 -7t-56 -1q1 -6 4 -13t5 -13q9 -16 23 -30t30 -16q22 -5 43.5 1t38.5 20q5 5 14.5 14t20 15.5t20.5 7.5t16 -10q3 -7 2 -12zM166 282q-25 0 -45.5 -20.5t-31.5 -46.5q-2 -8 -4.5 -16.5t-2.5 -16.5q14 0 33.5 2t38 7t33.5 14.5t21 25.5q6 19 -7 35t-35 16z" />
    <glyph glyph-name="edieresis" unicode="&#xeb;" horiz-adv-x="314" 
d="M286 469q-1 -2 -3 -5q-4 -6 -12 -9l-51 -15q-13 0 -16 18q6 20 9.5 30.5t5.5 15.5l3 7q3 4 11.5 8t18.5 7.5t20 6l14 3.5q5 2 9 1q3 -1 6 -4.5t2 -11.5l-17 -52v0zM188 469q-1 -2 -3 -5q-4 -6 -12 -9l-51 -15q-14 0 -16 18q6 20 9.5 30.5t5.5 15.5l3 7q3 4 11.5 8
t18.5 7.5t20 6l14 3.5q5 2 9 1q8 -2 7 -16l-16 -52v0zM299 101q0 -2 -0.5 -3t-0.5 -3q-2 -7 -8.5 -15.5t-15 -17.5t-16 -16t-12.5 -11q-36 -28 -79 -40q-17 -2 -36 -1.5t-37.5 5t-35.5 14.5t-29 28q-18 21 -25 47t-5 54t12 55.5t25.5 51.5t35.5 42.5t42 28.5q14 6 29.5 8.5
t28.5 3.5q25 2 51 -5t46 -25q18 -15 26 -42.5t-8 -52.5q-17 -27 -41 -41.5t-51.5 -20.5t-56.5 -7t-56 -1q1 -6 4 -13t5 -13q9 -16 23 -30t30 -16q22 -5 43.5 0.5t38.5 20.5q5 5 14.5 14t20 15.5t20.5 7.5t16 -10q3 -7 2 -12zM166 281q-24 0 -45 -20t-32 -46
q-2 -8 -4.5 -16.5t-2.5 -16.5q14 0 33.5 2t38.5 7t34 14.5t20 25.5q6 19 -7 34.5t-35 15.5z" />
    <glyph glyph-name="igrave" unicode="&#xec;" horiz-adv-x="169" 
d="M167 436q-7 -8 -15 -9t-16.5 1.5t-16.5 7t-15 7.5q-37 19 -68 42q-7 4 -5 15q0 2 3 8q2 5 7 16.5t13 30.5q2 3 6 7l3 3q2 0 6.5 0.5t8.5 -3.5q14 -11 27 -20.5t24 -23.5q8 -10 20.5 -25t19.5 -27q6 -11 4 -18t-6 -12zM65 267q-5 -2 -9 -3.5t-8 -3.5q-6 -2 -12.5 -2.5
t-11.5 3t-8.5 12t-2.5 24.5q35 14 64.5 28.5t68.5 16.5l13 -21q-17 -69 -39 -132.5t-36 -129.5q0 -3 4 -3q6 1 12 6t13 10t15 8t17 0q5 -1 6.5 -11t-3.5 -21q-8 -15 -17 -24.5t-24 -17.5q-7 -4 -18.5 -7.5t-23.5 -4.5t-23 1t-18 10q-15 17 -19.5 39t3.5 45q17 45 29.5 89.5
t27.5 88.5z" />
    <glyph glyph-name="iacute" unicode="&#xed;" horiz-adv-x="169" 
d="M283 484q-34 -17 -69.5 -31t-72.5 -25q-9 -3 -17 0t-11.5 9t-1 14.5t12.5 17.5q17 14 37.5 26.5t37.5 24.5q19 13 39.5 22.5t41.5 20.5q5 4 9.5 3t6.5 -2q1 -1 4.5 -5t1.5 -11q-6 -33 -8 -43t-3 -12q-2 -2 -5 -4q-2 -2 -4 -3l-4 -2h5zM69 267q-5 -2 -9.5 -3.5t-9.5 -3.5
q-6 -2 -12.5 -2.5t-12 3t-9 12t-2.5 24.5q19 7 35.5 14.5t33 14t33.5 11t38 5.5l14 -21q-17 -68 -40.5 -132t-39.5 -130q2 -3 5 -3q6 1 12.5 6t14 10t15.5 8t18 0q5 -1 7 -11t-4 -21q-14 -28 -43 -42q-7 -4 -19 -7.5t-25 -4.5t-24.5 1t-18.5 10q-17 17 -21.5 39t4.5 45
q17 45 30.5 89.5t29.5 88.5z" />
    <glyph glyph-name="icircumflex" unicode="&#xee;" horiz-adv-x="169" 
d="M220 411q-2 -5 -6 -11t-12 -6q-7 0 -16 11t-17 24t-13.5 24t-5.5 12l-82 -65q-6 -6 -14 -6q-9 0 -12 5t-2 12t3.5 14t3.5 11q5 15 18.5 30t30 28.5t31 23.5t20.5 15q11 7 20 7q13 0 20 -10q6 -10 14.5 -21.5t15.5 -24.5t10.5 -27t-1.5 -28l-6 -18v0zM67 266
q-5 -2 -9 -3.5t-9 -3.5q-6 -2 -12.5 -2.5t-11.5 3t-8.5 12t-3.5 24.5q37 14 67 28.5t70 16.5l14 -21q-17 -68 -40 -131.5t-38 -129.5q2 -3 5 -3q6 1 12.5 6t13.5 10t15 8t17 0q5 -1 7 -11t-3 -21q-8 -15 -17.5 -24.5t-25.5 -17.5q-7 -4 -18.5 -7.5t-24 -4.5t-24 1t-18.5 10
q-16 16 -20.5 38.5t3.5 45.5q17 44 30.5 88.5t28.5 88.5z" />
    <glyph glyph-name="idieresis" unicode="&#xef;" horiz-adv-x="169" 
d="M232 469q-1 -2 -3 -5q-2 -2 -4 -4.5t-7 -4.5l-51 -15q-13 0 -15 18q6 20 9.5 30.5t5.5 15.5l3 7q2 4 10.5 8t18.5 7.5t19.5 6t13.5 3.5q5 2 9 1q8 -2 7 -16l-16 -52v0zM135 469q0 -2 -2 -5q-4 -6 -12 -9l-50 -15q-13 0 -15 18q6 20 9 30.5t5 15.5q2 6 3 7q3 4 11.5 8
t18.5 7.5t19.5 6t13.5 3.5q5 2 9 1q8 -2 7 -16l-17 -52v0zM68 266q-5 -2 -9.5 -3.5t-8.5 -3.5q-6 -2 -12.5 -2.5t-12 3t-9 12t-3.5 24.5q19 7 35 14.5t32.5 14t33.5 11t38 5.5l13 -21q-17 -68 -40 -131.5t-38 -129.5q2 -3 5 -3q6 1 12.5 6t13.5 10t15 8t18 0q5 -1 6.5 -11
t-3.5 -21q-8 -15 -17.5 -24.5t-25.5 -17.5q-7 -4 -18.5 -7.5t-24.5 -4.5t-24.5 1t-18.5 10q-16 16 -20.5 38.5t4.5 45.5q17 44 30 88.5t29 88.5z" />
    <glyph glyph-name="eth" unicode="&#xf0;" horiz-adv-x="361" 
d="M311 111q-6 -28 -21 -50t-36 -37.5t-46.5 -24t-51.5 -8.5q-45 0 -83.5 27t-56.5 68q-17 39 -17 81q0 35 11 66.5t31.5 55.5t49 38.5t64.5 14.5q31 0 57 -10t49 -27q-5 21 -17 33.5t-27.5 20t-33.5 11t-35 6.5l-47 -49q-10 -7 -18 -7q-7 0 -13 4q-3 2 -5 3q-1 2 -3 5
q-4 6 -4 13q0 11 7 19l26 26q-13 5 -25 13t-22 20.5t-16.5 30.5t-9.5 43h26q22 -25 48.5 -32t57.5 -13q3 3 9.5 11t15.5 17t18 16t16 7t13 -4q3 -2 5 -4t4 -6q2 -3 3 -6t1 -8q0 -11 -11.5 -22.5l-17.5 -17.5q10 -5 19.5 -11t17.5 -16q41 -44 59 -99t18 -114q0 -42 -9 -84z
M237 234q-5 20 -21.5 39.5t-39.5 26.5q-3 0 -6 0.5t-5 0.5q-24 0 -40 -13t-26 -32.5t-14.5 -42t-4.5 -42.5q0 -30 8 -60q8 -23 18.5 -42t29.5 -28q9 -4 22 -4q9 0 19 2.5t18 6.5q27 22 38 54.5t11 68.5q0 17 -2 33.5t-5 31.5z" />
    <glyph glyph-name="ntilde" unicode="&#xf1;" horiz-adv-x="406" 
d="M371 489q-7 -10 -16.5 -20t-20.5 -18t-24 -13t-28 -5h-4q-21 0 -41.5 8t-39.5 17.5t-37 17.5t-34 8q-15 0 -25 -7.5t-16.5 -17t-12.5 -17t-14 -7.5q-6 0 -10.5 3.5t-6.5 6.5l-4 4q-5 5 -8.5 10.5t-3.5 13.5q0 5 5.5 13.5t12.5 17.5t14 16t11 9q16 10 27.5 14.5t30.5 4.5
q20 0 40 -8t39 -17.5t37 -17.5t34 -8q2 0 5 1q3 -1 5 -1q7 0 13.5 4t11.5 9t8.5 9.5t3.5 5.5q5 7 8.5 13.5t13.5 6.5q13 0 22 -13t9 -25q0 -10 -5 -18zM142 272q10 6 23.5 15.5t28 17.5t29 14t26.5 6q14 0 26.5 -3t25.5 -12q5 -4 11 -11q5 -6 11 -15t13 -23q3 -11 4 -17.5
t2 -10.5t1 -7v-174h27q8 0 13 -4t7 -9q3 -6 3 -13q0 -6 -3 -12q-2 -5 -6.5 -9.5t-12.5 -6.5h-125q-11 0 -16.5 4.5t-8.5 9.5q-4 6 -4 14q-1 7 3 13q3 5 9 9t17 4h18v136v10t-1 9t-2 9q-2 9 -3 12.5t-4 7.5q-5 5 -10.5 9.5t-13.5 3.5q-20 -1 -37 -6.5t-34 -13.5q-9 -3 -13 -7
l-1 -1q-1 -1 -3 -5v-164h32q8 -2 12.5 -6t6.5 -9q3 -5 3 -12q0 -9 -3 -14t-7 -8t-8 -3.5t-5 -0.5h-7h-20t-42.5 -0.5t-71.5 -0.5q-10 0 -16 4.5t-8 9.5q-3 6 -3 13q0 11 4.5 16.5t9.5 7.5q6 3 13 3h29v198l-2 1q-6 -1 -17 -3.5t-16 -1.5q-9 2 -13 5t-6 14t6 16q1 1 19 7.5
t39.5 14t39.5 13.5t19 6q6 -2 8 -7t3 -9v-6q0 -4 0.5 -10.5t0.5 -17.5z" />
    <glyph glyph-name="ograve" unicode="&#xf2;" horiz-adv-x="352" 
d="M268 436q-7 -8 -15.5 -9t-17.5 1.5t-17.5 7t-16.5 7.5q-37 18 -72 42q-7 4 -5 15q0 2 3 8q2 5 7 16.5t14 30.5q2 3 6 7q2 2 4 3q1 0 6 0.5t10 -3.5q14 -11 28 -20.5t25 -23.5l22.5 -25t21.5 -27q6 -11 4 -18t-7 -12zM291 70q-30 -36 -69.5 -59t-87.5 -21q-35 2 -69 21.5
t-51 52.5q-10 20 -13.5 42.5t-1 44.5t9.5 42.5t17 38.5q17 27 40 48.5t50 34.5t57 17t61 -4q29 -8 52.5 -29.5t33.5 -50.5q16 -45 5.5 -92.5t-34.5 -85.5zM146 263q-26 -24 -40.5 -58.5t-17.5 -71.5q-1 -12 -1 -27q0 -14 4 -27.5t12.5 -23.5t23.5 -12q37 -3 58 18
q17 21 30.5 44t22 47.5t9 49.5t-8.5 50q-5 13 -16.5 20t-25 8t-27 -3.5t-23.5 -13.5z" />
    <glyph glyph-name="oacute" unicode="&#xf3;" horiz-adv-x="352" 
d="M336 484q-69 -34 -143 -56q-10 -3 -18 0t-11.5 9t-1.5 14.5t13 17.5q17 14 37.5 26.5t38.5 24.5q20 13 40.5 22.5t40.5 20.5q6 4 10.5 3t6.5 -2q1 -1 4.5 -5t2.5 -11q-7 -33 -9 -43t-3 -12q-2 -2 -5 -4q-6 -4 -9 -5h6zM292 70q-30 -36 -69.5 -59t-87.5 -21q-17 1 -35 6.5
t-34 15t-29.5 23t-22.5 29.5q-10 20 -13.5 42.5t-1 44.5t9.5 42.5t18 38.5q17 27 39.5 48.5t49.5 34.5t57.5 17t62.5 -4q29 -8 52.5 -29.5t33.5 -50.5q15 -45 5 -92.5t-35 -85.5zM147 263q-26 -24 -41 -58.5t-18 -71.5q-1 -12 -0.5 -26.5t4 -28t12 -23.5t23.5 -12
q38 -3 59 18q17 21 30.5 44t22 47.5t9 49.5t-8.5 50q-5 13 -16.5 20t-25 8t-27 -3.5t-23.5 -13.5z" />
    <glyph glyph-name="ocircumflex" unicode="&#xf4;" horiz-adv-x="352" 
d="M298 411q-2 -5 -6 -11t-12 -6t-17 11t-17.5 24t-14 24t-5.5 12l-85 -65q-6 -6 -15 -6t-11.5 5t-2 12t3 14t3.5 11q5 15 19.5 30t31.5 28.5t32 23.5t21 15q11 7 21 7q13 0 20 -10q6 -10 14.5 -21.5t16 -24.5t11 -27t-1.5 -28l-6 -18v0zM291 70q-30 -36 -69.5 -59
t-87.5 -21q-35 2 -69 21.5t-51 52.5q-10 20 -13.5 42.5t-1 44.5t9.5 42.5t17 38.5q17 27 40 48.5t50 34.5t57 17t61 -4q29 -8 52.5 -29.5t33.5 -50.5q16 -45 5.5 -93t-34.5 -85zM146 262q-26 -24 -40.5 -58.5t-17.5 -70.5q-1 -12 -1 -27q0 -14 4 -27.5t12.5 -23.5t23.5 -12
q36 -4 58 18q17 21 30.5 44t22 47.5t9 49.5t-8.5 50q-5 13 -16.5 19.5t-25 7.5t-27 -3.5t-23.5 -13.5z" />
    <glyph glyph-name="otilde" unicode="&#xf5;" horiz-adv-x="352" 
d="M382 488q-9 -10 -20.5 -20t-24 -18t-25.5 -13t-27 -4h-3q-19 0 -35 8t-30.5 17.5t-27.5 17.5t-27 8t-25 -7.5t-20.5 -17t-17.5 -17t-15 -7.5t-10.5 4.5t-5.5 7.5l-2 4q-10 20 0 31.5t24 24.5q18 17 39 29t47 12q18 0 33.5 -8t29.5 -17.5t27.5 -17.5t27.5 -8q2 0 5 1
q2 -1 4 -1q14 0 28.5 14t23.5 24q8 10 17 10t14.5 -6.5t6.5 -15.5t-2 -19t-9 -16zM294 70q-30 -36 -70 -59t-89 -21q-17 1 -35 6.5t-34 15t-29.5 23t-22.5 29.5q-10 20 -13.5 42.5t-1 44.5t9.5 42.5t18 38.5q17 27 39.5 48.5t50 34.5t58 17t62.5 -4q29 -8 52.5 -29.5
t34.5 -50.5q15 -45 5 -93t-35 -85zM148 263q-26 -25 -41 -59.5t-18 -70.5q-1 -12 -1 -27q0 -14 4 -27.5t12.5 -23.5t23.5 -12q37 -4 59 18q17 21 31 44t22 47.5t9 49.5t-9 50q-5 13 -16 20t-24.5 8t-27.5 -3.5t-24 -13.5z" />
    <glyph glyph-name="odieresis" unicode="&#xf6;" horiz-adv-x="352" 
d="M317 469q-1 -2 -3 -5q-4 -6 -12 -9l-51 -15q-14 0 -16 18q6 20 9.5 30.5t5.5 15.5l3 7q3 4 11.5 8t19 7.5t20.5 6l14 3.5q5 2 9 1q8 -2 7 -16l-17 -52v0zM218 469q0 -2 -2 -5q-4 -6 -12 -9l-52 -15q-13 0 -15 18q6 20 9 30.5t5 15.5q2 6 3 7q3 4 11.5 8t19 7.5t20.5 6
l14 3.5q5 2 9 1q8 -2 7 -16l-17 -52v0zM291 70q-30 -36 -69.5 -59t-87.5 -21q-35 2 -69 21.5t-51 52.5q-10 20 -13.5 42.5t-1 44.5t9.5 42.5t17 38.5q17 27 40 48.5t50 34.5t57.5 16.5t61.5 -4.5q29 -7 52 -29t34 -51q15 -45 4.5 -92.5t-34.5 -84.5zM147 262
q-26 -24 -41 -58.5t-18 -70.5q-1 -12 -1 -27q0 -14 4 -27.5t12.5 -23.5t23.5 -12q37 -4 58 18q17 21 30.5 44t22 47.5t9 49.5t-8.5 50q-5 13 -16 19.5t-24.5 7.5t-27 -3.5t-23.5 -13.5z" />
    <glyph glyph-name="divide" unicode="&#xf7;" horiz-adv-x="452" 
d="M193 237q-20 0 -32 13.5t-12 30.5t12 30.5t32 13.5q21 0 33 -13.5t12 -30.5t-12 -30.5t-33 -13.5zM29 128q-12 0 -20.5 8.5t-8.5 20.5v18q0 12 8.5 20.5t20.5 8.5h332q12 0 20.5 -8.5t8.5 -20.5v-17q0 -12 -8.5 -20.5t-20.5 -8.5zM193 7q-20 0 -32 13t-12 30t12 30.5
t32 13.5q21 0 33 -13.5t12 -30.5t-12 -30t-33 -13z" />
    <glyph glyph-name="oslash" unicode="&#xf8;" horiz-adv-x="341" 
d="M109 -1q-9 -10 -20.5 -17.5t-25.5 -7.5h-18q-9 0 -13.5 4t-5 9t1.5 11t5 10l28 30q-20 29 -19.5 58t11.5 61q13 39 39.5 75t68.5 59q34 20 72.5 29t76.5 -10q11 12 23.5 22.5t30.5 10.5h18q10 0 14.5 -4t5 -9t-1.5 -11t-6 -10l-37 -40q15 -23 16 -50q1 -22 -4 -48
t-17 -51t-30.5 -48.5t-44.5 -41.5q-19 -13 -40.5 -23t-43.5 -15t-43.5 -3.5t-40.5 10.5zM259 254q-11 8 -25 7.5t-27.5 -5t-25 -13t-18.5 -17.5q-40 -51 -33 -113zM160 54q8 -4 17 -4h18q35 8 55.5 30t31.5 55q5 19 5.5 40t-4.5 40l19 -6l-142 -155v0z" />
    <glyph glyph-name="ugrave" unicode="&#xf9;" horiz-adv-x="384" 
d="M270 436q-7 -8 -15.5 -9t-17.5 1.5t-18 7t-16 7.5q-38 17 -73 42q-7 4 -5 15q0 2 3 8q2 5 7 16.5t14 30.5q2 3 6 7q2 2 4 3q2 0 6.5 0.5t9.5 -3.5q14 -11 28.5 -20.5t25.5 -23.5l22.5 -25t21.5 -27q6 -11 4 -18t-7 -12zM272 258q-4 -1 -8 -1.5t-8 -1.5q-17 -6 -29 -2.5
t-14.5 13t8 21.5t39.5 22q7 3 19.5 7t25.5 7.5t25.5 4.5t19.5 -3q14 -8 14 -22q0 -13 -1 -26q-20 -55 -39.5 -110t-32.5 -110q0 -3 2.5 -6t5.5 -3q4 -2 8 0.5t7 4.5l7 5q12 8 22.5 7.5t22.5 -17.5q-17 -33 -44.5 -45t-56.5 -14q-17 2 -31.5 12t-20.5 30q0 11 -1 16
q-18 -13 -38 -27t-41.5 -22.5t-44 -9t-46.5 11.5q-18 10 -25 25.5t-7 32.5q0 18 4.5 36.5t8.5 34.5q11 33 24 66.5t22 68.5q-6 -3 -16 -6.5t-19 -4.5t-16 2.5t-8 16.5q-1 12 7 19t18 11q16 6 32 10t32 12q10 4 21 6t20.5 -0.5t16 -9.5t6.5 -21q0 -17 -4.5 -34t-11 -33.5
t-13.5 -32.5t-12 -32q-6 -17 -12 -35t-11 -36q-4 -18 0.5 -26.5t14 -11.5t22 -0.5t22.5 7.5l11 5.5t10 5.5q16 8 31 30t27 48.5t21 54t14 45.5l1 4h-1z" />
    <glyph glyph-name="uacute" unicode="&#xfa;" horiz-adv-x="384" 
d="M373 484q-69 -35 -144 -56q-9 -3 -17 0t-11.5 9t-1.5 14.5t13 17.5q17 14 37.5 26.5t38.5 24.5q20 13 40.5 22.5t41.5 20.5q5 4 9.5 3t6.5 -2t5.5 -5t1.5 -11q-6 -33 -8.5 -43t-3.5 -12q-2 -2 -5 -4q-2 -2 -4 -3l-4 -2h5zM273 258q-3 -1 -7.5 -1.5t-8.5 -1.5
q-17 -6 -29 -2.5t-14.5 13t8.5 21.5t40 22q7 3 19 7t25.5 7.5t25.5 4.5t19 -3q14 -8 14.5 -21.5t-1.5 -26.5q-20 -55 -39.5 -110t-32.5 -110q1 -3 3.5 -6t4.5 -3q4 -2 8 0.5t8 4.5l7 5q11 8 22 7.5t23 -17.5q-18 -33 -45.5 -45t-55.5 -14q-17 2 -32 12t-21 30q0 11 -1 16
q-18 -13 -38 -27t-41.5 -22.5t-44 -9t-46.5 11.5q-19 10 -26 25.5t-7 32.5q0 18 4.5 36.5t8.5 34.5q11 33 24 66.5t22 68.5q-6 -3 -15.5 -6.5t-19 -4.5t-16.5 2.5t-8 16.5q-1 12 7.5 19t17.5 11q16 6 32 10t32 12q10 4 21 6t20.5 -0.5t16 -9.5t6.5 -21q0 -17 -4 -34
t-10.5 -33.5t-14 -32.5t-12.5 -32q-6 -17 -11.5 -35t-10.5 -36t-0.5 -26.5t14 -11.5t22 -0.5t23.5 7.5q5 3 10.5 5.5t10.5 5.5q16 8 31 30t27 48.5t21 54t14 45.5l1 4h-1z" />
    <glyph glyph-name="ucircumflex" unicode="&#xfb;" horiz-adv-x="384" 
d="M326 411q-2 -5 -6.5 -11t-12.5 -6t-17 11t-17.5 24t-14 24t-5.5 12l-85 -65q-6 -6 -15 -6t-11.5 5t-2 12t3 14t3.5 11q5 15 19.5 30t31.5 28.5t32 23.5t21 15q11 7 21 7q13 0 20 -10q6 -10 15 -21.5t16 -24.5t11 -27t-1 -28l-6 -18v0zM272 257q-4 -1 -8 -1t-8 -2
q-17 -6 -29 -2t-14.5 13.5t8 21.5t39.5 22q7 2 19.5 6.5t25.5 8t25.5 4.5t19.5 -3q14 -8 14 -22q0 -13 -1 -27q-20 -55 -39.5 -109.5t-32.5 -109.5q0 -3 2.5 -6t5.5 -3q4 -2 8 0.5t7 4.5l7 5q12 8 22.5 7.5t22.5 -17.5q-17 -33 -44.5 -45t-56.5 -14q-17 2 -31.5 12t-20.5 30
q0 11 -1 15q-18 -13 -38 -26.5t-41.5 -22t-44 -9t-46.5 11.5q-18 10 -25 25.5t-7 32.5q0 18 4.5 36.5t8.5 33.5q11 34 24 67.5t22 67.5q-6 -2 -16 -6t-19 -5t-16 2.5t-8 16.5t7 19.5t18 10.5q16 7 32 11t32 11q10 5 21 7t20.5 -0.5t16 -10t6.5 -21.5q0 -16 -4.5 -33
t-11 -33.5t-13.5 -33t-12 -31.5q-6 -17 -12 -35t-11 -36q-4 -18 0.5 -26.5t14 -11.5t22 -0.5t22.5 7.5q6 2 11 5t10 5q16 8 31 30t27 49t21 54t14 46l1 3h-1z" />
    <glyph glyph-name="udieresis" unicode="&#xfc;" horiz-adv-x="384" 
d="M342 469q-1 -2 -3 -5q-4 -6 -12 -9l-52 -15q-13 0 -15 18q6 20 9.5 30.5t5.5 15.5l3 7q3 4 11.5 8t18.5 7.5t20 6l14 3.5q5 2 9 1q9 -2 8 -16l-17 -52v0zM242 469q0 -2 -2 -5q-4 -6 -12 -9l-52 -15q-13 0 -16 18q6 20 9.5 30.5t5.5 15.5l3 7q3 4 11.5 8t19 7.5t20.5 6
l14 3.5q5 2 9 1q3 -1 6 -4.5t2 -11.5l-18 -52v0zM272 257q-4 -1 -8 -1t-8 -2q-17 -6 -29 -2t-14.5 13.5t8 21.5t39.5 22q7 2 19.5 6.5t25.5 8t25.5 4.5t19.5 -3q14 -8 14 -22t-1 -27q-20 -55 -39.5 -109.5t-32.5 -109.5q0 -3 2.5 -6t5.5 -3q4 -2 8 0.5t7 4.5l7 5
q12 8 22.5 7.5t22.5 -17.5q-17 -33 -44.5 -45t-56.5 -14q-17 2 -31.5 12t-20.5 30q0 11 -1 15q-18 -13 -38 -26.5t-41.5 -22t-44 -9t-46.5 11.5q-18 10 -25 25.5t-7 32.5q0 18 4.5 36.5t8.5 33.5q11 34 24 67.5t22 67.5q-6 -2 -16 -6t-19 -5t-16 2.5t-8 16.5t7 19.5t18 10.5
q16 6 32 10.5t32 11.5q10 5 21 7t20.5 -0.5t16 -10t6.5 -21.5q0 -17 -4.5 -33.5t-11 -33t-13.5 -33t-12 -31.5q-6 -17 -12 -35t-11 -36q-4 -18 0.5 -26.5t14 -11.5t22 -0.5t22.5 7.5q6 2 11 5t10 5q16 8 31 30t27 49t21 54t14 46l1 3h-1z" />
    <glyph glyph-name="yacute" unicode="&#xfd;" horiz-adv-x="401" 
d="M269 484q-29 -17 -61.5 -31.5t-64.5 -25.5q-9 -3 -17.5 -0.5t-13 9t-4 15t8.5 17.5q4 4 7.5 7t8.5 7l38 32t40 29q8 5 16.5 9.5t17.5 9.5q3 3 6 3.5t5 0.5q3 0 5 -2q2 -1 4 -3t3.5 -4t1.5 -5q5 -33 5.5 -43.5t0.5 -12.5q-3 -3 -6 -7q-5 -7 -9 -6zM301 269l-176 -409
q-14 -2 -23.5 -3t-14.5 -2q-6 -1 -10 0q-6 0 -15 1t-17 3.5t-11.5 8t1.5 16.5q1 1 1.5 2t1.5 2l2 4q2 3 13 19q9 14 28 41t52 77l-94 240h-39q-9 0 -14 4.5t-7 9.5q-3 6 -3 14q2 10 5.5 14.5t7.5 6.5q4 3 10 3h154q10 2 15 -2t7 -9q3 -5 3 -13q0 -6 -3 -12q-2 -5 -6.5 -9.5
t-13.5 -6.5h-38l60 -154l71 154h-30q-10 4 -15 8.5t-7 9.5q-3 5 -2 11q3 14 14 20q5 3 11 3h115q8 1 12.5 -2.5t6.5 -8.5q3 -5 3 -13q0 -6 -3 -12q-2 -5 -5.5 -9.5t-11.5 -6.5h-35z" />
    <glyph glyph-name="thorn" unicode="&#xfe;" horiz-adv-x="344" 
d="M107 -93h24q11 0 15.5 -5t6.5 -10q2 -6 0 -14q-2 -6 -6 -11t-9.5 -8t-15.5 -3h-141q-11 0 -15.5 4.5t-6.5 9.5q-2 6 1 15q3 6 7 11q9 11 23 11l39 1l166 505q-10 -1 -22 -5t-21 -3.5t-12 8t5 29.5q36 10 70.5 22t76.5 20l-9 -42l-40 -122q23 13 35 15.5t14 2.5
q7 0 19.5 -2.5t25 -10t24 -20t17.5 -33t4.5 -49t-14.5 -67.5q-12 -38 -35 -72.5t-58 -61.5q-10 -8 -21.5 -16.5t-24.5 -15t-26.5 -9.5t-27.5 -1q-11 2 -20.5 4.5t-19.5 6.5zM285 291q-9 0 -19.5 -5.5t-19.5 -12.5t-16 -14l-10 -10l-67 -202l2 -3q5 -8 11.5 -15t16.5 -7
q22 0 43.5 20t38.5 50t29 64.5t16 64.5t-1.5 50t-23.5 20z" />
    <glyph glyph-name="ydieresis" unicode="&#xff;" horiz-adv-x="401" 
d="M274 468q-1 -2 -3 -5q-4 -6 -12 -9l-52 -15q-14 0 -16 18q6 20 9.5 31t5.5 16l3 7q3 4 11.5 8t19 7.5t20.5 6l14 3.5q5 2 9 1q9 -2 8 -16l-17 -53v0zM174 468q-1 -2 -3 -5q-4 -6 -12 -9l-52 -15q-14 0 -16 18q6 20 9.5 31t5.5 16l3 7q3 4 11.5 8t19 7.5t20.5 6l14 3.5
q5 2 9 1q9 -2 8 -16l-17 -53v0zM278 65q-12 -18 -25 -35.5t-29.5 -36t-37 -40.5t-47.5 -49l-38.5 -38.5t-50 -40t-52 -17t-44.5 31.5q-5 16 -2 29t11.5 22t21 14t24.5 5q22 -14 39 -14t31 9.5t25 25t21 32.5q7 11 13 21t12 18q0 3 -2 5q-1 1 -1 2l-87 232q-4 3 -6.5 1.5
t-4.5 -3.5l-4 -3l-3 -2l-17 -23l-31 24q3 29 17.5 51t34.5 31.5t42 5t39 -28.5q24 -57 42 -114t43 -114q14 18 25.5 35.5t17.5 36.5t4 40t-14 45q-11 14 -20 32.5t-7 35.5q4 21 17 29t29 6.5t31.5 -11t24.5 -22.5q11 -16 15.5 -33t5 -33.5t-2 -31.5t-6.5 -27q-8 -30 -23 -55
t-31 -48z" />
    <glyph glyph-name="dotlessi" unicode="&#x131;" horiz-adv-x="169" 
d="M64 259q-4 -1 -8 -2.5t-9 -3.5t-11.5 -2.5t-11.5 3t-8.5 11.5t-2.5 24q18 6 33.5 13.5t30.5 14t31.5 11t35.5 5.5l13 -21q-17 -67 -38.5 -128.5t-35.5 -126.5q0 -2 4 -2q6 1 12 5.5t12.5 9.5t14.5 8t17 0q5 -2 6.5 -11t-3.5 -20q-14 -28 -40 -42q-7 -3 -18 -6.5t-23 -4.5
t-23 1t-18 9q-15 17 -19.5 38.5t3.5 43.5q17 43 29.5 87t26.5 86z" />
    <glyph glyph-name="Lslash" unicode="&#x141;" horiz-adv-x="502" 
d="M509 117q-1 -4 -12 -21t-24 -35.5t-24.5 -34.5t-13.5 -18q-6 -6 -11 -8q-3 -1 -4 -2q-2 -1 -15 -1h-105h-109q-65 0 -161 1q-12 0 -16.5 5t-6.5 11q-2 7 1 16q3 7 7 12t10.5 8.5t15.5 3.5h54l48 142l-16 -12q-10 -7 -19 -7q-5 0 -8.5 1.5t-5.5 3.5q-3 2 -4 4t-2 6
q-1 3 -1.5 6t1.5 8t4.5 9t7.5 8l69 54l62 182h-45q-11 0 -16 4.5t-7 10.5q-2 7 1 15q3 7 7 11t9 7t13 3h3h196h3q11 0 15 -4.5t5 -9.5q1 -6 -1 -14q-2 -6 -6 -11t-10 -8.5t-15 -4.5h-54l-27 -82l15 10q11 7 18 7q9 0 14 -5q3 -3 4 -5q2 -2 3 -6q1 -3 1.5 -6.5t-1.5 -8.5
q-3 -9 -12 -15l-68 -50l-81 -243h138q7 0 12 1l10 2t9 2q19 6 32 13.5t24 16t21.5 19.5t23.5 24q12 14 29 14q11 0 14.5 -9.5t0.5 -19.5z" />
    <glyph glyph-name="lslash" unicode="&#x142;" horiz-adv-x="250" 
d="M248 259l-69 -209h23q11 0 15.5 -4.5t6.5 -9.5q2 -6 0 -15q-2 -6 -6 -11t-9.5 -8.5t-15.5 -3.5h-138q-11 0 -15.5 5t-6.5 10q-2 6 1 14q3 7 7 12q9 11 23 11h37l53 161l-54 -27q-18 -9 -27 0q-4 4 -6 11q-2 6 -1 12q2 13 18 21l91 48l55 168q-10 -1 -22 -4.5t-20.5 -3
t-11.5 8.5t5 30q35 9 68.5 21t75.5 19l-7 -41l-49 -149q2 2 13.5 9.5t25 13.5t25 5.5t14.5 -14.5q2 -6 1 -12q-1 -5 -4.5 -11t-12.5 -11z" />
    <glyph glyph-name="OE" unicode="&#x152;" horiz-adv-x="538" 
d="M627 423q-1 -15 -3.5 -31t-8.5 -34q-10 -13 -23.5 -15t-19.5 8q-7 23 -17 44t-24 36t-32 21.5t-42 0.5q-21 -5 -42.5 -18t-41.5 -31t-38 -39.5t-30 -44.5h108q10 -2 14 -7.5t5 -10.5q1 -6 -1 -13q-2 -6 -6 -10q-3 -4 -8.5 -7t-14.5 -5l-121 -1l-4 -12l-4 -12h113
q11 -1 15 -5.5t5 -9.5q1 -6 -1 -13q-4 -10 -9 -15t-10 -7q-5 -3 -11 -3h-111q-2 -35 6 -63.5t27 -47.5q21 -22 59.5 -23t80.5 21q18 10 37.5 24.5t38.5 30.5q12 7 22.5 1t8.5 -22q-16 -27 -36.5 -47t-43.5 -35t-46.5 -25t-44.5 -16q-62 -19 -113 -1.5t-76 65.5
q-16 29 -18 65t4 73h-77q-11 0 -15.5 4.5t-6.5 10.5q-2 7 1 15q3 6 7 11q9 11 25 12l79 -1q2 6 4.5 12.5t4.5 12.5h-73q-11 0 -15.5 4.5t-6.5 10.5q-2 7 1 15q3 7 7 12t10 8.5t14 3.5l88 -1q19 35 47 69t62 61.5t73 46t79 22.5q31 3 55 -6t52 -16q8 -2 17.5 -3.5t26.5 -1.5
q-1 -23 -0.5 -38.5t-1.5 -29.5z" />
    <glyph glyph-name="oe" unicode="&#x153;" horiz-adv-x="283" 
d="M443 -8q-21 -6 -42 -6q-35 0 -67 15t-55 41q-29 -32 -66.5 -43.5t-75 -5.5t-70 28t-51.5 56q-10 18 -13.5 37.5t-2.5 38.5q0 39 15.5 75.5t50.5 60.5q26 18 57.5 27.5t65.5 0.5q25 -6 49 -20.5t42 -35.5q22 25 52.5 40.5t64.5 15.5q45 0 79.5 -25t53.5 -60l12 -31
q-54 -29 -105 -50t-99 -47q11 -22 29.5 -41t46.5 -18q4 -1 9 -1q14 0 26.5 8.5t24 19.5t22.5 22.5t22 18.5q6 2 8 2q12 0 20 -19q-9 -37 -38.5 -65.5t-64.5 -38.5zM415 253q-10 9 -26 9q-20 0 -36 -14q-29 -32 -29 -79q0 -7 1 -11q26 13 53 24t47 34q2 6 2 11q0 17 -12 26z
M218 205q-8 16 -20 29t-28 21q-22 10 -48 2.5t-35 -29.5q-14 -30 -10 -59t18 -58q3 -6 9 -14.5t12.5 -17t14 -15t14.5 -9.5q9 -4 19 -4.5t21 -0.5q33 9 45 30.5t11 51.5q-1 18 -7.5 36.5t-15.5 36.5z" />
    <glyph glyph-name="Scaron" unicode="&#x160;" 
d="M471 619q-5 -14 -19.5 -29t-32 -28.5t-33 -24t-21.5 -15.5q-8 -7 -21 -7q-14 0 -20 10t-15 21.5t-16.5 25t-11 27.5t0.5 28q3 8 7.5 21.5t17.5 13.5q8 0 17.5 -11t18 -24t14 -24.5t5.5 -12.5l86 66q8 6 16 6q9 0 11.5 -5t2 -12t-3 -14.5t-3.5 -11.5zM476 429
q-1 -15 -3.5 -31t-11.5 -38l-31 2q-7 22 -16 41.5t-21 34t-27.5 22.5t-36.5 8q-23 -1 -46 -11.5t-40 -30.5q-12 -18 -16.5 -36t0.5 -30q15 -24 39.5 -37.5t51 -25.5t51 -27.5t40.5 -43.5q15 -28 11 -62.5t-23 -68.5q-13 -24 -33.5 -42.5t-44 -31.5t-48 -21t-46.5 -12
q-21 -4 -39 -3t-34.5 4.5t-33.5 8t-36 7.5q-11 2 -24 2.5t-36 -1.5l16 142q8 10 21.5 13t18.5 -8q8 -26 21 -48.5t32 -37.5t43.5 -21t56.5 1q24 5 49 22t38 40q5 11 8 21.5t1 18.5q-12 14 -29.5 25.5t-37.5 22.5t-39.5 21.5t-35.5 21.5q-19 14 -34 31t-21 38.5t-2.5 49
t21.5 61.5q11 22 29 39t39.5 29.5t44 20t42.5 10.5q35 5 64 -1.5t62 -14.5q9 -2 19.5 -4t29.5 -4q-2 -23 -2 -38q0 -14 -1 -28z" />
    <glyph glyph-name="scaron" unicode="&#x161;" horiz-adv-x="287" 
d="M373 498q-4 -14 -18.5 -29t-31 -28.5t-31.5 -24t-21 -15.5q-12 -7 -21 -7q-14 0 -20 10q-6 9 -15.5 21t-17 25t-11 27t1.5 28q2 8 7 21.5t17 13.5q8 0 17.5 -11t18 -24t14.5 -24.5l6 -11.5l83 65q8 6 15 6q9 0 12 -5t2 -12t-3 -14t-4 -11zM280 220q-16 29 -35 47t-51 11
q-9 -4 -18 -9.5t-14 -11.5q-5 -9 -6 -14.5t1 -10.5q7 -8 18.5 -15t24.5 -13t26 -11.5t22 -11.5q14 -8 24 -18.5t14 -25t1 -33t-17 -42.5q-26 -33 -63.5 -52t-74.5 -17q-28 -2 -50 4.5t-48 15.5q-5 26 -2.5 50t3.5 50q11 11 23.5 10.5t15.5 -10.5q3 -9 5.5 -20t6.5 -21
t10.5 -17.5t16.5 -10.5q17 -5 36.5 -2t36.5 14q18 11 24 31q0 11 -5.5 17.5t-14 11.5t-18 8t-17.5 6q-13 5 -27.5 12.5t-25.5 19t-17 25.5t-4 32t11.5 36.5t22.5 32.5q24 21 50.5 29.5t52.5 9.5t51 -4t47 -13q2 -23 -0.5 -44.5t-10.5 -45.5h-25z" />
    <glyph glyph-name="Ydieresis" unicode="&#x178;" horiz-adv-x="508" 
d="M536 570q-1 -2 -3 -5q-3 -5 -12 -8l-53 -16q-14 0 -16 18q7 20 10.5 31t5.5 16l3 7q3 4 11.5 8t19 7t20.5 6t15 4q5 2 9 1q3 -1 5.5 -4.5t1.5 -12.5l-17 -52v0zM401 570q-1 -2 -3 -5q-4 -6 -12 -8l-52 -16q-14 0 -16 18q6 20 9.5 31t5.5 16l3 7q3 4 12 8t19.5 7t20.5 6
t14 4q5 2 9 1t6.5 -4.5t1.5 -12.5l-18 -52v0zM552 455l-180 -195l-69 -209h38q11 0 15.5 -4.5t6.5 -9.5q2 -6 -1 -14q-2 -6 -6 -10q-3 -4 -8.5 -8t-14.5 -6h-184q-10 2 -14 7t-5 10q-1 6 1 14q2 7 6 11t10 7t14 3h47l73 218l-45 186h-51q-11 0 -15 4.5t-5 10.5q-1 7 1 15
q4 8 8.5 12t9.5 6q5 3 11 3h166q11 0 15 -4.5t5 -9.5q1 -6 -1 -15q-2 -6 -6 -11t-9.5 -8t-14.5 -3h-26l32 -133l120 133h-28q-14 0 -19 8.5t-3 18t10.5 18t21.5 8.5h163q11 -1 15.5 -6.5t5.5 -10.5q1 -6 -1 -14q-2 -6 -6 -11q-9 -11 -23 -11h-60z" />
    <glyph glyph-name="Zcaron" unicode="&#x17d;" horiz-adv-x="465" 
d="M528 619q-4 -14 -19 -29t-32.5 -28.5t-33 -24t-21.5 -15.5q-12 -7 -22 -7q-5 0 -11 2.5t-9 7.5q-6 10 -15.5 21.5t-17 25t-11 27.5t1.5 28q3 8 7.5 21.5t17.5 13.5q8 0 17.5 -11t18 -24t14 -24.5t6.5 -12.5l87 66q8 6 15 6q9 0 12 -5t2.5 -12t-3 -14.5t-4.5 -11.5z
M136 54q31 -2 61.5 -1.5t58.5 0.5q27 0 51.5 6t35.5 10q18 8 40 24.5t36 30.5l11 11l3 3t3 2t3 2l2 1q14 7 25 -1t5 -26q-2 -6 -13.5 -22.5t-25 -35t-25.5 -34.5t-17 -20q-8 -8 -17.5 -7t-18.5 1q-3 0 -13 1q-8 1 -24 1h-42h-264q-7 9 -7.5 17t2 16t7.5 15.5t8 15.5l429 392
q-10 0 -24 0.5t-28.5 1t-28 0t-22.5 -1.5q-8 -2 -24 -4t-26 -6q-5 -2 -16.5 -8t-24 -13t-24 -14t-16.5 -12q-17 -14 -25 -14.5t-13 2.5q-9 6 -10 13t2.5 14.5t10 14.5t10.5 12q11 12 19 24t18 25q8 11 19 18t25 3q2 0 9 -0.5t15.5 -1t15.5 -0.5h10h252l11 -1q11 -11 5 -25
t-15 -22z" />
    <glyph glyph-name="zcaron" unicode="&#x17e;" horiz-adv-x="318" 
d="M326 498q-4 -14 -18.5 -29t-31 -28.5t-31.5 -24t-21 -15.5q-12 -7 -21 -7q-13 0 -20 10q-6 9 -15 21t-16.5 25t-11 27t0.5 28q3 8 7.5 21.5t17.5 13.5q8 0 17.5 -11t17.5 -24t14 -24.5l6 -11.5l83 65q8 6 15 6q9 0 12 -5t2 -12t-3 -14t-4 -11zM260 296q-2 6 -2 9
q0 14 9.5 18t16.5 4q14 0 20 -9t6 -20q0 -14 -8 -31t-19 -32.5t-22.5 -27.5t-18.5 -17l-98 -72q-9 -7 -18.5 -14t-18.5 -14l4 -1q18 -3 34.5 -8.5t33.5 -10.5q12 -3 22 -3q16 0 27 12t19 32l32 -28q-10 -16 -20 -32.5t-22 -30t-28 -22t-37 -8.5q-25 0 -42 8.5t-30 18.5
q-9 6 -20.5 14t-22.5 8q-2 0 -5.5 1t-5.5 0q5 -7 5 -18q0 -27 -26 -27q-11 0 -18 8.5t-7 20.5q0 33 18 61t44 51.5t55 42t51 33.5q11 7 20.5 14t19.5 13q-17 2 -32.5 8t-31.5 11q-9 3 -13 3q-14 0 -24.5 -10.5t-26.5 -33.5l-33 23q10 18 22 34t25.5 29t29 20.5t32.5 7.5
q27 0 49.5 -10t45.5 -21q3 -2 5 -2.5t4 -1.5z" />
    <glyph glyph-name="florin" unicode="&#x192;" horiz-adv-x="352" 
d="M53 -82q14 4 19 39.5t12 84.5q8 52 13.5 109.5t13.5 104.5h-47q-9 2 -13.5 6.5t-6.5 9.5q-3 5 -3 11q-1 7 2 12q2 5 7 9.5t13 6.5h56q4 28 15 66.5t29.5 73t45 59t62.5 24.5q23 0 37.5 -14t14.5 -37q0 -9 -9 -23.5t-30 -14.5q-14 0 -22.5 5.5t-13.5 10.5q-1 1 -4.5 5.5
t-5.5 4.5q-10 0 -17 -19.5t-12 -46t-7.5 -53t-3.5 -41.5h53q9 -3 14 -7.5t7 -9.5q3 -5 2 -12q1 -6 -2 -11q-2 -5 -7 -9.5t-14 -7.5h-59q-8 -60 -14 -120.5t-24 -130.5q-7 -30 -21 -57t-32 -47.5t-39.5 -32.5t-45.5 -12q-21 0 -36 13.5t-15 37.5q0 17 12.5 28.5t27.5 11.5
q19 0 28.5 -6.5t19.5 -20.5z" />
    <glyph glyph-name="circumflex" unicode="&#x2c6;" horiz-adv-x="382" 
d="M297 426q-2 -5 -6 -10t-12 -5q-7 0 -16 9.5t-16.5 21t-13 21.5t-5.5 11l-80 -57q-6 -6 -14 -6q-9 0 -11.5 4.5t-2 10.5t3 12.5t3.5 10.5q5 12 18.5 25.5t29.5 25t30 21t20 13.5q9 6 20 6q5 0 10.5 -2t8.5 -7q6 -9 14 -19t15 -21.5t10.5 -24t-0.5 -24.5l-6 -16v0z" />
    <glyph glyph-name="caron" unicode="&#x2c7;" horiz-adv-x="334" 
d="M397 503q-4 -13 -18 -26t-29.5 -25t-29.5 -21t-20 -13q-10 -7 -20 -7q-11 0 -19 9q-6 9 -14.5 19t-15.5 21.5t-10.5 24t0.5 24.5q3 8 7.5 19.5t16.5 11.5q8 0 16.5 -9.5t16.5 -21.5t13.5 -22l5.5 -10l79 57q8 6 14 6q9 0 11.5 -4.5t2 -10.5t-3 -12.5t-3.5 -9.5z" />
    <glyph glyph-name="breve" unicode="&#x2d8;" horiz-adv-x="285" 
d="M227 318q-31 0 -50.5 10t-28 27.5t-7 41.5t11.5 52h19h24q-3 -37 4.5 -52.5t42.5 -15.5q38 0 59 17.5t43 50.5h17h27q-23 -61 -62.5 -96t-99.5 -35z" />
    <glyph glyph-name="dotaccent" unicode="&#x2d9;" horiz-adv-x="346" 
d="M300 507q1 2 1.5 4t1.5 4q1 3 3 5q2 1 10 4t37 14q5 1 9 -1l4 -2q1 -2 2.5 -5.5t-0.5 -8.5l-12 -37q-3 -6 -5 -7t-3 -2l-6 -2q-5 -2 -13 -4t-23 -7q-5 -2 -9 0q-2 1 -3 1l-3 3q-2 2 -4 9l13 38v-6v0z" />
    <glyph glyph-name="ring" unicode="&#x2da;" horiz-adv-x="334" 
d="M293 425q-34 0 -45 21.5t-3.5 47t30.5 47t57 21.5q35 0 46 -21.5t3.5 -47t-31 -47t-57.5 -21.5zM326 522q-14 0 -25 -8.5t-15.5 -19t-1.5 -19.5t16 -9q14 0 24.5 9t15.5 19.5t2.5 19t-16.5 8.5z" />
    <glyph glyph-name="ogonek" unicode="&#x2db;" horiz-adv-x="325" 
d="M215 -13q-14 -5 -31 -10.5t-33 -14t-28 -19t-17 -23.5q-3 -10 -0.5 -12.5t9.5 -2.5q14 0 31 7t43 21l8 -33q-24 -13 -51.5 -26t-56.5 -13q-25 0 -40.5 18.5t-5.5 44.5q8 23 29 38.5t48 25.5t55 16t49 10l-9 -27v0z" />
    <glyph glyph-name="tilde" unicode="&#x2dc;" horiz-adv-x="352" 
d="M383 498q-19 -17 -44.5 -32t-51.5 -14h-4q-19 0 -34.5 7t-29.5 14.5t-27 14t-27 6.5t-25 -6t-20.5 -13.5t-17 -14t-14.5 -6.5t-10.5 3.5t-5.5 6.5l-2 3q-5 8 -4.5 14.5t4.5 12t10.5 10t12.5 9.5q19 15 39 25t46 10q18 0 33.5 -6.5t29.5 -15t27.5 -15t26.5 -6.5q2 0 5 1
q2 -1 4 -1q14 0 28 12t23 20q10 8 17 8q9 0 14.5 -5.5t6.5 -13t-1.5 -15.5t-8.5 -13z" />
    <glyph glyph-name="hungarumlaut" unicode="&#x2dd;" horiz-adv-x="412" 
d="M544 495q-35 -15 -71 -27.5t-73 -21.5q-9 -3 -17 -0.5t-11.5 8t-1.5 13.5t13 15q17 11 37.5 22t38.5 22q19 11 40 19.5t41 17.5q5 3 9.5 2.5t6.5 -1.5t5.5 -4t1.5 -9q-6 -29 -8.5 -38t-2.5 -10q-2 -2 -5 -4q-6 -4 -9 -5zM384 495q-34 -15 -70.5 -27.5t-72.5 -21.5
q-10 -3 -18 -0.5t-11.5 8t-1 13.5t13.5 15q17 11 37 22t38 22q20 11 40.5 19.5t40.5 17.5q6 3 10.5 2.5t6.5 -1.5q1 -1 4.5 -4t2.5 -9q-6 -29 -8.5 -38t-3.5 -10q-2 -2 -5 -4q-6 -4 -9 -5z" />
    <glyph glyph-name="pi" unicode="&#x3c0;" horiz-adv-x="387" 
d="M218 -1q-6 5 -9 9.5t-5 8.5t-2 8q0 11 3 16.5t7 7.5q4 3 9 3h24v213h-130v-213h27q10 -9 14 -19q2 -4 2 -8t-2 -8t-5 -8.5t-10 -9.5h-131q-11 8 -15 18q-2 4 -2 8q0 11 3 16.5t7 7.5q4 3 10 3h23l1 214h-20q-12 7 -16 16q-2 4 -2 9q0 4 2 8t5 8.5t10 8.5h332
q11 -7 13.5 -14.5t2.5 -9.5q1 -11 -2 -16t-7 -7q-4 -3 -10 -3h-24l1 -214h27q7 -5 9.5 -10l4.5 -9t2 -8t-2 -8t-5 -8.5t-10 -9.5h-130z" />
    <glyph glyph-name="endash" unicode="&#x2013;" horiz-adv-x="404" 
d="M29 138q-12 0 -20.5 6.5t-8.5 15.5v13q0 9 8.5 15.5t20.5 6.5h332q12 0 20.5 -6t8.5 -15v-14q0 -9 -8.5 -15.5t-20.5 -6.5h-332z" />
    <glyph glyph-name="emdash" unicode="&#x2014;" horiz-adv-x="634" 
d="M31 138q-13 0 -21.5 6t-8.5 15v14q0 9 8.5 15.5t21.5 6.5h558q13 0 21.5 -6.5t8.5 -15.5v-13q0 -9 -8.5 -15.5t-21.5 -6.5h-558z" />
    <glyph glyph-name="quoteleft" unicode="&#x2018;" horiz-adv-x="110" 
d="M184 367q0 -2 -1 -5t-2 -5q-1 -3 -3 -6q-1 -1 -10 -5t-39 -15q-6 -1 -9 0q-2 1 -4 3t-3.5 6t0.5 10l32 103q5 15 7 20q2 4 2 5q7 10 17.5 21.5t22.5 13.5q9 1 17 -6t3 -19l-2 -4t-3 -4q-11 -16 -17 -27.5t-8 -32.5q10 -1 15 -16l-14 -44l-1 7v0z" />
    <glyph glyph-name="quoteright" unicode="&#x2019;" horiz-adv-x="112" 
d="M158 476q0 5 3 9q2 3 3 6q1 1 9.5 5t38.5 15q4 2 10 0q3 -1 4 -3q2 -2 3.5 -6t-1.5 -10l-31 -102q-2 -8 -4 -12.5t-3 -7.5q-1 -4 -2 -5q-7 -11 -17.5 -22.5t-22.5 -12.5q-10 -1 -18 5.5t-2 19.5l4 8q11 15 17.5 27t8.5 33q-12 0 -15 15l14 45l1 -7v0z" />
    <glyph glyph-name="quotesinglbase" unicode="&#x201a;" horiz-adv-x="111" 
d="M10 30q0 5 3 9q2 3 3 6q1 1 9.5 5t38.5 15q4 2 10 0q3 -1 4 -3q2 -2 3.5 -6t-1.5 -10l-32 -102q-4 -15 -7 -21q-2 -4 -2 -5q-6 -10 -16.5 -21.5t-23.5 -12.5q-9 -1 -17 5.5t-2 19.5q0 1 4 7q11 16 17.5 28t8.5 32q-12 2 -15 16l14 45l1 -7v0z" />
    <glyph glyph-name="quotedblleft" unicode="&#x201c;" horiz-adv-x="207" 
d="M281 367q0 -4 -4 -10q-2 -3 -3 -6q-1 -1 -10.5 -5t-42.5 -15q-6 -2 -11 0q-3 1 -4 3q-2 2 -4 6t1 10l35 103q3 8 4.5 12.5t3.5 7.5q2 4 2 5q8 10 19 21.5t25 13.5q11 1 19.5 -6t2.5 -19l-2 -4t-3 -4q-12 -16 -19 -27.5t-9 -32.5q13 -2 16 -16l-15 -44l-1 7v0zM191 367
q0 -5 -3 -10q-2 -3 -3 -6q-2 -1 -11.5 -5t-42.5 -15q-6 -2 -11 0q-3 1 -4 3q-2 2 -3.5 6t0.5 10l35 103q3 8 4.5 12.5t3.5 7.5q2 4 2 5q8 10 19.5 21.5t25.5 13.5q10 1 19 -6t2 -19q0 -3 -5 -8q-12 -16 -18.5 -27.5t-9.5 -32.5q13 -2 16 -16l-15 -44l-1 7v0z" />
    <glyph glyph-name="quotedblright" unicode="&#x201d;" horiz-adv-x="209" 
d="M250 476q2 6 4 9t3 6q1 1 11 5t43 15q5 2 11 0q3 -1 4 -3q2 -2 3.5 -6t-1.5 -10l-35 -102q-2 -8 -4 -12.5t-4 -7.5q-2 -4 -2 -5q-7 -11 -18.5 -22.5t-25.5 -12.5q-10 -1 -19 5.5t-3 19.5q2 2 5 8q12 15 19 27t10 33q-12 0 -17 15l15 45l1 -7v0zM161 476q0 5 3 9q2 3 3 6
q2 1 11.5 5t42.5 15q5 2 11 0q3 -1 4 -3q2 -2 3.5 -6t-1.5 -10l-34 -102q-2 -8 -4 -12.5t-4 -7.5q-2 -4 -2 -5q-8 -11 -19.5 -22.5t-25.5 -12.5q-10 -1 -19 5.5t-2 19.5q0 1 5 8q12 15 18.5 27t9.5 33q-13 0 -16 15l15 45l1 -7v0z" />
    <glyph glyph-name="quotedblbase" unicode="&#x201e;" horiz-adv-x="201" 
d="M97 30q0 5 3 9q2 3 3 6q2 1 11.5 5t42.5 15q5 2 11 0q3 -1 4 -3q2 -2 3.5 -6t-1.5 -10l-35 -102q-4 -15 -7 -21q-2 -4 -2 -5q-8 -10 -19.5 -21.5t-25.5 -12.5q-10 -1 -18.5 5.5t-2.5 19.5q0 2 5 7q12 16 18.5 28t9.5 32q-13 2 -16 16l15 45l1 -7v0zM13 30q0 5 3 9
q2 3 3 6q2 1 11.5 5t42.5 15q5 2 11 0q3 -1 4 -3q2 -2 3.5 -6t-1.5 -10l-35 -102q-4 -15 -7 -21q-2 -4 -3 -5q-7 -10 -18.5 -21.5t-25.5 -12.5q-10 -1 -19 5.5t-2 19.5q0 2 5 7q12 16 18.5 28t9.5 32q-12 2 -17 16l16 45l1 -7v0z" />
    <glyph glyph-name="dagger" unicode="&#x2020;" horiz-adv-x="205" 
d="M276 372q-12 0 -22 6t-22 8q-5 -17 -8 -33.5t5 -33.5q-26 -39 -43 -86.5t-30 -86.5q-4 -7 -9 -9q-3 -1 -5 -1q-4 1 -8 3q-6 3 -5 14q6 20 12.5 42t12 44.5t8.5 44.5t3 41q14 14 22 28.5t14 30.5q-11 -2 -22.5 -7t-22.5 -5q-14 0 -19 9t-2.5 20t11 20t21.5 9q12 0 22 -5.5
t22 -7.5q4 16 2.5 32t3.5 31q4 12 13 20t22 8q16 0 21 -11t1 -24q-5 -15 -14 -28t-16 -27q11 3 21.5 7.5t21.5 4.5q14 0 19 -9t2.5 -20t-11 -20t-21.5 -9z" />
    <glyph glyph-name="daggerdbl" unicode="&#x2021;" horiz-adv-x="205" 
d="M278 371q-12 0 -22.5 6t-22.5 8q-5 -16 -7.5 -32t5.5 -34q-15 -14 -24 -29t-14 -30q11 2 22.5 7t23.5 5q14 0 19.5 -9t3 -20.5t-11 -20.5t-22.5 -9q-13 0 -23.5 6t-22.5 8q-4 -17 -4 -33v-16t-2 -16q-4 -11 -13 -19.5t-23 -8.5q-17 0 -22.5 11t-0.5 24q2 8 7.5 16
t10.5 15q3 5 6.5 11.5t7.5 14.5q-11 -3 -22.5 -8t-23.5 -5q-14 0 -19 9t-3 20.5t11 20.5t23 9q12 0 22.5 -6t23.5 -8q5 16 7 32.5t-6 34.5q16 14 24.5 28.5t14.5 29.5q-12 -2 -23.5 -7t-23.5 -5q-14 0 -19 9t-3 20.5t11 20.5t23 9q12 0 22.5 -6t22.5 -8q3 10 3.5 18t0.5 15
v15q0 8 2 16q4 12 13.5 20.5t22.5 8.5q17 0 22.5 -11t0.5 -25q-2 -8 -7.5 -15.5t-9.5 -14.5q-4 -6 -7.5 -12t-7.5 -14q11 3 22.5 8t23.5 5q14 0 19 -9t3 -20.5t-11 -20.5t-23 -9z" />
    <glyph glyph-name="bullet" unicode="&#x2022;" horiz-adv-x="194" 
d="M57 96q-17 0 -29 6.5t-19 17.5t-8 25t4 29q9 28 36 49.5t59 21.5q18 0 30 -6.5t19 -17.5t8 -25t-4 -29q-5 -14 -14.5 -27t-22 -22.5t-28 -15.5t-31.5 -6z" />
    <glyph glyph-name="ellipsis" unicode="&#x2026;" horiz-adv-x="315" 
d="M214 32q0 3 2 9q1 3 2 5q2 1 11 4.5t38 13.5q6 2 11 0q3 -1 4 -2q2 -1 4 -3q3 -3 2 -9l1 -37q-1 -8 -7 -12q-1 0 -9 -2.5t-37 -10.5q-5 -2 -10 0q-3 1 -4 1t-4.5 2t-6.5 7v39l3 -5v0zM105 32q0 3 2 9q1 3 2 5q2 1 11 4.5t38 13.5q6 2 11 0q3 -1 4 -2q2 -1 4 -3q3 -3 2 -9
l1 -37q-1 -8 -7 -12q-1 0 -9 -2.5t-37 -10.5q-5 -2 -10 0q-3 1 -4 1t-4.5 2t-6.5 7v39l3 -5v0zM2 32q0 3 2 9q1 3 2 5q2 1 11 4.5t39 13.5q6 1 10 0q3 -1 4 -2q2 -1 4 -3q4 -4 3 -9l1 -37q-1 -5 -3.5 -7.5l-4.5 -4.5q-2 -1 -8 -3q-5 -2 -14 -4t-24 -6q-5 -2 -10 0q-3 1 -4 1
q-4 0 -10 9v39l2 -5v0z" />
    <glyph glyph-name="perthousand" unicode="&#x2030;" horiz-adv-x="688" 
d="M614 108q-20 -30 -51.5 -52t-71.5 -17q-14 2 -26.5 10t-20.5 22q-12 27 -11.5 54.5t9 53t24 48t34.5 40.5q12 11 29 18.5t35 9t35.5 -4.5t30.5 -22q13 -19 16 -40.5t-1 -42.5t-12.5 -41t-18.5 -36zM409 108q-20 -30 -51.5 -52t-72.5 -17q-14 2 -26.5 10t-20.5 22
q-12 27 -11.5 54.5t9 53t24 48t34.5 40.5q12 11 29 18.5t35 9t36 -4.5t31 -22q12 -19 15 -40.5t-0.5 -42.5t-12 -41t-18.5 -36zM214 447q9 -19 8.5 -39.5t-6 -40t-14.5 -37.5t-19 -34q-9 -12 -20.5 -24t-25 -22t-29.5 -15.5t-35 -4.5q-32 3 -56 28q-14 24 -16.5 50t4 50.5
t18.5 47.5t26 41q15 18 33.5 28t38.5 14t40 3t39 -4q96 3 168 81l33 -2l-2 -24q-66 -140 -132 -276.5t-132 -276.5q-4 -7 -6 -13t-4.5 -12t-7 -11t-13.5 -10h-58q-11 3 -13 14.5t2 19.5q69 126 140.5 249.5t140.5 250.5q-20 -14 -46.5 -23t-55.5 -8zM567 233q-8 5 -14 8
t-14 1q-19 -4 -31 -22t-16 -40t0 -43.5t17 -33.5q20 -14 39.5 -2t27.5 32q9 25 8 54t-17 46zM361 233q-16 11 -27 9q-19 -4 -31 -22t-16.5 -40t-0.5 -43.5t17 -33.5q10 -7 20 -7q11 0 20 5t16 13.5t11 18.5q9 25 8 54t-17 46zM147 428q-6 11 -29 13q-20 -5 -33 -22.5
t-21 -38.5q-5 -23 -3 -45t16 -39q12 -12 21 -9q21 3 35.5 19.5t21 38.5t5 44.5t-12.5 38.5z" />
    <glyph glyph-name="guilsinglleft" unicode="&#x2039;" horiz-adv-x="201" 
d="M101 82q-9 0 -20 0.5t-17 8.5l-53 73l-1 1q-6 6 -6 11q0 7 6 11l1 1l53 73q6 8 17 9t20 1h16q10 0 14 -5t4 -8q0 -6 -6 -10l-60 -72l59 -71q7 -3 7 -10q0 -3 -4 -8t-14 -5h-16z" />
    <glyph glyph-name="guilsinglright" unicode="&#x203a;" horiz-adv-x="201" 
d="M128 165l-53 -74q-6 -8 -17.5 -8.5t-19.5 -0.5h-16q-10 0 -14 5t-4 8q0 6 6 10l60 71l-59 72q-7 4 -7 10q0 3 4 8t14 5h16q8 0 19.5 -1t17.5 -9l53 -73l1 -1q6 -4 6 -11q0 -5 -6 -11h-1z" />
    <glyph glyph-name="trademark" unicode="&#x2122;" horiz-adv-x="482" 
d="M374 454q-8 0 -10.5 3t-3.5 7t0 9q1 3 4 6q6 6 13 6h71l2 -83l56 83h67q13 0 15 -9q1 -4 -1 -10q-1 -3 -4 -6q-6 -6 -14 -6h-21h1l-25 -128h12q8 -1 10.5 -3.5t3.5 -6.5t-1 -9q-1 -3 -4 -6q-2 -2 -5 -4t-8 -3h-77q-8 1 -10.5 4t-3.5 7t1 9q1 3 4 6q6 6 13 6h15l14 73
l-55 -82q-2 -2 -3 -2.5t-2 -1.5l-2 -2q-2 -1 -8 -1.5t-11 4.5q-3 3 -4 9l-3 85l-43 -82h13q8 -1 10.5 -3.5t3.5 -6.5t-1 -9q-1 -3 -4 -6q-2 -2 -5.5 -4.5t-8.5 -2.5h-69q-13 0 -15 10q-1 4 0 10q4 9 11 11q4 1 7 1h19l66 128h-10zM280 454q1 -1 -0.5 -7.5t-4 -16t-6 -21
t-7.5 -23.5q-9 -28 -21 -62h13q5 0 9 -2q3 -2 5 -5.5t0 -11.5q-1 -3 -4 -6q-2 -2 -5 -4t-8 -2h-72h-12q-3 0 -10.5 2.5t-4.5 15.5q2 5 5.5 7.5t6.5 4.5q4 2 7 1h21l46 129q-5 0 -10 -1t-8 -2q-4 -1 -6 -3q-11 -5 -19 -9t-17 -10l-3 -3l-4 -2q-8 -4 -15.5 2.5t-4.5 14.5
q1 2 5 7q3 5 9.5 14.5t18.5 26.5q8 4 12 4q5 0 8.5 -2t7.5 -4q1 -1 2 -0.5t2 -0.5h66h41q8 0 13 3.5t12 3.5q2 0 5.5 -1t9.5 -6q0 -19 -0.5 -29.5t-0.5 -15.5q0 -6 -1 -7q-2 -6 -9.5 -9.5t-14.5 -0.5q0 1 -1.5 2t-3.5 3l-1 3q-5 8 -8 10t-11 7q-2 1 -9.5 3t-22.5 3z" />
    <glyph glyph-name="product" unicode="&#x220f;" horiz-adv-x="599" 
d="M638 460l-137 -408h42q11 0 15.5 -4.5t5.5 -9.5q1 -6 -1 -15q-3 -6 -7 -11t-9.5 -8.5t-14.5 -3.5h-183q-11 0 -15.5 4.5t-5.5 10.5q-1 7 1 15q3 8 8 12.5t10 6.5q6 3 12 3h49l138 407h-229l-138 -407h41q11 0 15.5 -4.5t6.5 -9.5q2 -6 -1 -15q-3 -6 -7 -11t-10 -8.5
t-15 -3.5h-182q-11 0 -15.5 4.5t-6.5 10.5q-2 7 1 15q4 8 9 12.5t10 6.5q6 3 12 3h49l138 408h-17q-10 0 -20 2.5t-15 8.5t-1 19q3 7 7 12q9 11 25 11h495q11 0 15.5 -4.5t5.5 -9.5q1 -6 -1 -15t-7.5 -14t-10.5 -7q-6 -3 -12 -3h-50z" />
    <glyph glyph-name="summation" unicode="&#x2211;" horiz-adv-x="522" 
d="M588 400q-8 -11 -23.5 -12.5t-21.5 15.5q-5 12 -16.5 24.5t-23.5 17.5q-10 4 -24.5 8t-25.5 4h-26q-17 0 -49 0.5t-88 -0.5l31 -170q2 -10 0 -16q-1 -4 -1 -7q-1 -3 -3 -6q-4 -6 -10 -11l-150 -192h168q16 0 25 3q5 2 10 3q21 6 35 13t25.5 15.5t23 19t26.5 24.5
q6 6 17 11t20 2q14 -5 12.5 -17.5t-7.5 -20.5q-1 -3 -12.5 -18t-24 -32.5t-23.5 -32t-13 -16.5q-7 -7 -12 -9q-3 -1 -5 -1h1q-7 -1 -51 -1h-47h-69t-96.5 0.5t-127.5 0.5q-13 0 -17.5 5t-6.5 11q-2 7 1 16q3 7 7 12t11 8.5t17 3.5h14l162 207q5 6 7 9.5t3 4.5v7l-32 175h-12
q-12 2 -16.5 7t-6.5 11q-2 7 1 14q5 9 11 13.5t11 6.5q6 3 12 2h41h241q14 0 22 0.5t13 0.5h8q5 1 15.5 1.5t12.5 0.5l3 1q8 2 16.5 -2t12.5 -12q3 -8 2 -26.5t2 -28.5q4 -11 6.5 -23.5t-5.5 -23.5z" />
    <glyph glyph-name="minus" unicode="&#x2212;" horiz-adv-x="286" 
d="M28 138q-12 0 -18 7t-6 15v13q0 8 6 15t18 7h245q12 0 18 -7t6 -14v-14q0 -7 -6 -14.5t-18 -7.5h-245z" />
    <glyph glyph-name="uni2215" unicode="&#x2215;" horiz-adv-x="447" 
d="M111 6q-5 -11 -16 -16.5t-20 -5.5h-17q-15 0 -19.5 10t0.5 21l244 604q5 11 16 17t21 6h17q15 0 19.5 -10.5t-0.5 -21.5l-245 -604v0z" />
    <glyph glyph-name="integral" unicode="&#x222b;" horiz-adv-x="208" 
d="M240 485q-15 0 -24.5 6t-16.5 13.5t-14 13.5t-17 6q-11 0 -14 -13t-5 -30q-2 -22 -1.5 -46t0.5 -43v-354q0 -12 -3 -42.5t-17.5 -61.5t-45 -55t-85.5 -24q-23 0 -36.5 6t-21.5 14.5t-10.5 17.5t-2.5 15q0 4 1.5 10.5t6 13t12.5 11t22 4.5q16 0 25.5 -6.5t16.5 -14
t13.5 -14t16.5 -6.5q11 0 14 12t5 28q2 20 2 43v39v366q0 11 3 41t17.5 61t44.5 55t85 24q23 0 36.5 -5.5t21.5 -14t10.5 -17t2.5 -14.5q0 -4 -1.5 -10.5t-6 -13t-12.5 -11t-22 -4.5z" />
    <glyph glyph-name="approxequal" unicode="&#x2248;" horiz-adv-x="398" 
d="M259 187q-19 1 -35.5 6.5t-32 13t-31 14.5t-32.5 11q-28 7 -42 -3.5t-23 -22t-18 -16.5t-26 14q-15 16 -9 27t18 24q21 24 42.5 32.5t43 7t42 -9.5t39.5 -17t36.5 -15.5t31.5 -4.5q13 -2 26 9t18 20q8 15 19 15t19.5 -8t11.5 -20.5t-5 -23.5q-7 -10 -16.5 -19.5
t-21.5 -17.5t-25.5 -12.5t-29.5 -3.5zM353 155q3 -2 5 -9q1 -3 1 -6q-2 -11 -6.5 -16t-12.5 -14l-10 -10l-7 -7q-19 -14 -36 -18.5t-34.5 -3t-35 7.5t-36.5 15q-18 9 -34 16t-30.5 8.5t-28 -5.5t-27.5 -26q-1 -4 -5 -8q-2 -2 -3 -2l-1 -1q-10 -12 -21 0l-5 5t-14 15l5 -2
q-2 2 -3 4.5t-3 4.5q-2 3 -3 5q0 5 1.5 7.5t3.5 5.5q18 23 38 39.5t52 18.5q7 0 14.5 -0.5t17.5 -3t24 -8t34 -15.5l8 -4t19 -8t23 -6.5t20 -1.5q14 -2 26.5 9.5t14.5 15.5q4 8 8.5 12.5t12.5 5.5q8 2 15 -5l3 -3q2 -2 4 -5t7 -8l-1 1v0z" />
    <glyph glyph-name="notequal" unicode="&#x2260;" horiz-adv-x="336" 
d="M31 185q-12 0 -20.5 8.5t-8.5 20.5v17q0 12 8.5 20.5t20.5 8.5l235 1q12 0 20.5 -8.5t8.5 -20.5v-18q0 -12 -8.5 -20.5t-20.5 -8.5h-235zM102 24q-5 -9 -15 -15t-21 -6h-17q-14 0 -19.5 10t1.5 22l163 284q5 9 15 15t20 6h18q14 0 19.5 -10t-1.5 -22l-163 -284v0zM31 78
q-12 0 -20.5 8.5t-8.5 20.5v18q0 12 8.5 20.5t20.5 8.5h235q12 0 20.5 -8.5t8.5 -20.5v-17q0 -12 -8.5 -20.5t-20.5 -8.5z" />
    <glyph glyph-name="lessequal" unicode="&#x2264;" horiz-adv-x="342" 
d="M224 57q-9 0 -20 4t-18 10l-176 156q-10 10 -10 21q0 12 10 20l176 156q7 6 18 10.5t20 4.5h18q11 0 15 -5.5t4 -10.5q0 -10 -8 -16l-180 -159l180 -160q8 -6 8 -15q0 -5 -4 -10.5t-15 -5.5h-18zM19 -1q-12 0 -18 10t-6 20v4q0 10 6 20t18 10h244q12 0 18.5 -9.5
t6.5 -19.5v-5q0 -10 -6.5 -19.5t-18.5 -9.5z" />
    <glyph glyph-name="greaterequal" unicode="&#x2265;" horiz-adv-x="342" 
d="M114 71q-7 -6 -18 -10t-20 -4h-18q-11 0 -15 5.5t-4 10.5q0 9 8 15l180 160l-180 159q-8 6 -8 16q0 5 4 10.5t15 5.5h18q9 0 20 -4.5t18 -10.5l176 -156q10 -8 10 -20q0 -11 -10 -21zM37 0q-12 0 -18.5 9.5t-6.5 19.5v5q0 10 6.5 19.5t18.5 9.5h244q12 0 18 -10t6 -20v-4
q0 -10 -6 -20t-18 -10z" />
    <glyph glyph-name="uniF8FF" unicode="&#xf8ff;" horiz-adv-x="1056" 
d="M781 0q-20 0 -33.5 13.5t-13.5 32.5v177q0 7 -4 1l-201 -196q-16 -16 -30.5 -10t-14.5 28v177q0 6 -5 1l-201 -196q-12 -12 -31.5 -20t-36.5 -8h-180q-23 0 -29 14t10 30l452 442q16 15 30 9t14 -27v-177q0 -7 5 -2l201 197q12 11 31.5 19t36.5 8h181q19 0 32.5 -13
t13.5 -32v-422q0 -19 -13.5 -32.5t-32.5 -13.5h-181z" />
    <glyph glyph-name="uniFB01" unicode="&#xfb01;" horiz-adv-x="342" 
d="M332 5q-8 -5 -14 -6h-155h-134q-9 1 -14 5.5t-7 9.5q-3 6 -4 13q0 7 3 13q2 5 7.5 9t15.5 4h29v222h-29q-10 0 -15.5 4t-7.5 9q-3 6 -3 13q0 8 3 13q2 5 7.5 8.5t15.5 3.5h30q1 30 3.5 62.5t12.5 61t29.5 50.5t54.5 31q11 2 28.5 -1t35 -9.5t31.5 -17.5t19 -25
q2 -10 1 -20.5t-7 -19.5q-8 -12 -20.5 -11t-19.5 5q-5 3 -14.5 11t-20.5 16t-21 13t-16 2q-16 -14 -16.5 -35t-0.5 -41l1 -72h33q13 2 30 2.5t34 0.5q19 0 39 -1q11 -4 11 -15v-262h30q11 0 16.5 -3.5t7.5 -8.5q3 -5 2 -12q0 -8 -3.5 -13.5t-7.5 -8.5zM198 50h11v206
q0 5 -2 9q-5 2 -13 5t-17 5h-4h-34v-222h34q3 0 12 -1t15 -3z" />
    <glyph glyph-name="uniFB02" unicode="&#xfb02;" horiz-adv-x="371" 
d="M184 0h-4q-2 0 -3 -0.5t-3 -0.5h-144q-9 1 -14.5 5.5t-7.5 9.5q-3 6 -3 13t3 13q2 5 7.5 9t14.5 4h30v222h-30q-9 0 -14.5 4t-7.5 9q-3 6 -3 13q0 8 3 13q2 5 7 8.5t15 3.5h31q1 30 3.5 62.5t12 61t29 50.5t55.5 31q16 2 39 -3t43 -14q9 -1 19 -1t29 4l5 -37l1 -429h26
q10 0 15 -3.5t8 -8.5q4 -5 4 -13q1 -7 -2 -13q-2 -5 -8 -9t-17 -4h-139zM219 448q-4 2 -8 5t-9 6l-5 3q-11 6 -21.5 10.5t-18.5 1.5q-16 -14 -16.5 -35t-0.5 -41l1 -72h33q11 0 16 -3.5t7 -8.5q3 -5 3 -13q0 -7 -3 -13q-2 -5 -7 -9t-16 -4h-34v-222h34q4 0 10 -2h35v397v0z
" />
  </font>
</defs>
</svg>
